#N canvas 904 461 798 591 10;
#X declare -lib mrpeach;
#X obj 618 -25 import mrpeach;
#X obj 22 355 unpack f f f;
#X obj 444 373 unpack f f;
#X text 293 -57 andOSC RECEIVER;
#X text 49 242 acceleration;
#X text 276 247 orientation;
#X text 484 264 touch;
#X obj 247 362 unpack f f f;
#X obj 510 -24 loadbang;
#X obj 510 6 symbol \$1;
#X text 405 -29 arg1->id;
#X obj 510 38 s \$1andOSC_id;
#X text 31 -6 osc input;
#X obj 172 154 print andOSC_other;
#X obj 22 432 s \$1andOSC_acc_x;
#X obj 55 411 s \$1andOSC_acc_y;
#X obj 91 386 s \$1andOSC_acc_z;
#X obj 316 396 s \$1andOSC_ori_z;
#X obj 281 424 s \$1andOSC_ori_y;
#X obj 247 447 s \$1andOSC_ori_x;
#X obj 501 416 s \$1andOSC_touch_y;
#X obj 442 445 s \$1andOSC_touch_x;
#X obj 25 117 routeOSC /acc /ori /touch;
#X obj 25 21 inlet;
#X obj 132 19 inlet;
#X obj 580 8 float \$1;
#X obj 610 42 s \$1andOSC_idn;
#X obj 40 60 spigot;
#X obj 184 21 r \$1andOSC_idn;
#X obj 134 49 ==;
#X text 120 -4 senderid;
#X obj 189 75 s \$1andOSC_on;
#N canvas 2 77 450 300 reset_client 1;
#X obj 57 37 inlet;
#X obj 119 139 metro 1000;
#X obj 119 103 loadbang;
#X obj 122 174 cup;
#X floatatom 120 202 5 0 0 0 - - -;
#X msg 184 110 1;
#X obj 181 209 select 4;
#X obj 182 263 s \$1and_OSC_reset;
#X msg 222 112 0;
#X obj 111 230 select 0;
#X msg 119 68 0;
#X obj 262 202 oneshot;
#X msg 208 239 clear;
#X text 264 229 reset clients (inactivity);
#X obj 230 182 int;
#X obj 236 152 r inactive;
#X connect 0 0 10 0;
#X connect 1 0 3 0;
#X connect 2 0 1 0;
#X connect 3 0 4 0;
#X connect 3 0 6 0;
#X connect 3 0 9 0;
#X connect 5 0 1 0;
#X connect 6 0 7 0;
#X connect 6 0 8 0;
#X connect 6 0 12 0;
#X connect 8 0 1 0;
#X connect 10 0 3 0;
#X connect 10 0 11 0;
#X connect 11 0 5 0;
#X connect 12 0 11 0;
#X connect 14 0 6 1;
#X connect 15 0 14 0;
#X restore 199 113 pd reset_client;
#X connect 1 0 14 0;
#X connect 1 1 15 0;
#X connect 1 2 16 0;
#X connect 2 0 21 0;
#X connect 2 1 20 0;
#X connect 7 0 19 0;
#X connect 7 1 18 0;
#X connect 7 2 17 0;
#X connect 8 0 9 0;
#X connect 8 0 25 0;
#X connect 9 0 11 0;
#X connect 22 0 1 0;
#X connect 22 1 7 0;
#X connect 22 2 2 0;
#X connect 22 3 13 0;
#X connect 23 0 27 0;
#X connect 24 0 29 0;
#X connect 25 0 26 0;
#X connect 27 0 22 0;
#X connect 27 0 32 0;
#X connect 28 0 29 1;
#X connect 29 0 27 1;
#X connect 29 0 31 0;
