#N canvas 446 241 761 458 10;
#X declare -lib mrpeach;
#X obj 94 99 andOSC \$1;
#X obj 82 34 inlet;
#X obj 139 34 inlet;
#X floatatom 66 194 5 0 0 0 - - -;
#X floatatom 443 196 5 0 0 0 - - -;
#X obj 395 51 r \$1andOSC_acc_x;
#X obj 59 162 r \$1andOSC_acc_y;
#X obj 428 163 r \$1andOSC_acc_z;
#X obj 177 167 r \$1andOSC_ori_x;
#X obj 283 34 r \$1andOSC_ori_y;
#X obj 300 169 r \$1andOSC_ori_z;
#X obj 59 372 outlet;
#X obj 461 385 outlet;
#X obj 198 367 outlet;
#X obj 356 370 outlet;
#X floatatom 195 199 5 0 0 0 - - -;
#X floatatom 325 207 5 0 0 0 - - -;
#N canvas 648 280 450 300 movimentA 0;
#X obj 155 71 int;
#X floatatom 191 80 5 0 0 0 - - -;
#X obj 154 105 Bucket 2;
#X floatatom 139 135 5 0 0 0 - - -;
#X floatatom 193 134 5 0 0 0 - - -;
#X obj 153 178 -;
#X floatatom 196 184 5 0 0 0 - - -;
#X obj 155 24 inlet;
#X obj 113 274 outlet;
#X floatatom 66 12 5 0 0 0 - - -;
#X connect 0 0 1 0;
#X connect 0 0 2 0;
#X connect 2 0 3 0;
#X connect 2 0 5 0;
#X connect 2 1 4 0;
#X connect 2 1 5 1;
#X connect 5 0 6 0;
#X connect 5 0 8 0;
#X connect 7 0 0 0;
#X connect 9 0 0 0;
#X restore 46 265 pd movimentA;
#N canvas 688 463 450 300 movimentB 0;
#X obj 155 71 int;
#X floatatom 191 80 5 0 0 0 - - -;
#X obj 154 105 Bucket 2;
#X floatatom 139 135 5 0 0 0 - - -;
#X floatatom 193 134 5 0 0 0 - - -;
#X obj 153 178 -;
#X obj 156 215 hsl 100 15 -10 10 0 0 empty empty empty -2 -8 0 10 -262144
-1 -1 4950 1;
#X floatatom 196 184 5 0 0 0 - - -;
#X obj 155 24 inlet;
#X obj 130 250 outlet;
#X connect 0 0 1 0;
#X connect 0 0 2 0;
#X connect 2 0 3 0;
#X connect 2 0 5 0;
#X connect 2 1 4 0;
#X connect 2 1 5 1;
#X connect 5 0 6 0;
#X connect 5 0 7 0;
#X connect 5 0 9 0;
#X connect 8 0 0 0;
#X restore 198 260 pd movimentB;
#N canvas 913 463 450 300 movimentC 0;
#X obj 79 37 / 10;
#X obj 79 4 inlet;
#X obj 77 87 outlet;
#X connect 0 0 2 0;
#X connect 1 0 0 0;
#X restore 331 261 pd movimentC;
#N canvas 688 463 450 300 movimentD 0;
#X obj 155 71 int;
#X floatatom 191 80 5 0 0 0 - - -;
#X obj 154 105 Bucket 2;
#X floatatom 139 135 5 0 0 0 - - -;
#X floatatom 193 134 5 0 0 0 - - -;
#X obj 153 178 -;
#X obj 156 215 hsl 100 15 -10 10 0 0 empty empty empty -2 -8 0 10 -262144
-1 -1 4950 1;
#X floatatom 196 184 5 0 0 0 - - -;
#X obj 155 24 inlet;
#X obj 130 250 outlet;
#X connect 0 0 1 0;
#X connect 0 0 2 0;
#X connect 2 0 3 0;
#X connect 2 0 5 0;
#X connect 2 1 4 0;
#X connect 2 1 5 1;
#X connect 5 0 6 0;
#X connect 5 0 7 0;
#X connect 5 0 9 0;
#X connect 8 0 0 0;
#X restore 454 264 pd movimentD;
#N canvas 723 311 499 422 energia 0;
#X obj 111 94 abs;
#X floatatom 111 127 5 0 0 0 - - -;
#X obj 155 94 abs;
#X obj 225 86 abs;
#X floatatom 222 134 5 0 0 0 - - -;
#X floatatom 163 146 5 0 0 0 - - -;
#X obj 159 114 moses 10;
#X obj 272 88 abs;
#X floatatom 293 117 5 0 0 0 - - -;
#X obj 64 40 inlet;
#X obj 133 42 inlet;
#X obj 207 40 inlet;
#X obj 276 42 inlet;
#X obj 341 143 bng 15 250 50 0 empty empty empty 17 7 0 10 -262144
-1 -1;
#X text 358 141 reset;
#X obj 131 187 average 4;
#X floatatom 21 245 5 0 0 0 - - -;
#X obj 139 221 smooth;
#X floatatom 175 321 5 0 0 0 - - -;
#X obj 195 240 > 1;
#X obj 204 210 spigot;
#X obj 115 246 moses 1;
#X obj 77 302 line 0 100;
#X floatatom 98 327 5 0 0 0 - - -;
#X msg 102 280 \$1;
#X obj 132 370 mux 1 2;
#X floatatom 138 396 5 0 0 0 - - -;
#X obj 198 394 outlet;
#X msg 21 281 0 232;
#X obj -55 145 hsl 128 15 0 333 0 0 empty empty empty -2 -8 0 10 -262144
-1 -1 8400 1;
#X msg -32 198 0 \$1;
#X obj -77 92 r latency;
#X obj -8 121 bng 15 250 50 0 empty empty empty 17 7 0 10 -262144 -1
-1;
#X connect 0 0 1 0;
#X connect 0 0 15 0;
#X connect 2 0 6 0;
#X connect 3 0 4 0;
#X connect 3 0 15 0;
#X connect 6 0 5 0;
#X connect 6 0 15 0;
#X connect 7 0 8 0;
#X connect 7 0 15 0;
#X connect 9 0 0 0;
#X connect 10 0 2 0;
#X connect 11 0 3 0;
#X connect 12 0 7 0;
#X connect 15 0 16 0;
#X connect 15 0 17 0;
#X connect 17 0 21 0;
#X connect 17 0 19 0;
#X connect 19 0 25 2;
#X connect 21 0 28 0;
#X connect 21 0 32 0;
#X connect 21 1 18 0;
#X connect 21 1 24 0;
#X connect 21 1 25 1;
#X connect 22 0 23 0;
#X connect 22 0 25 0;
#X connect 24 0 22 0;
#X connect 25 0 26 0;
#X connect 25 0 27 0;
#X connect 28 0 22 0;
#X connect 29 0 30 0;
#X connect 30 0 22 0;
#X connect 31 0 29 0;
#X connect 32 0 29 0;
#X restore 556 322 pd energia;
#X obj 553 399 outlet;
#X obj 74 311 int;
#X obj 71 339 change;
#X obj 216 309 int;
#X obj 213 337 change;
#X obj 354 309 int;
#X obj 351 337 change;
#X obj 465 322 int;
#X obj 462 350 change;
#X floatatom 682 404 5 0 0 0 - - -;
#X obj 639 354 > 0.1;
#X obj 639 378 change;
#X obj 608 384 bng 15 250 50 0 empty empty empty 17 7 0 10 -262144
-1 -1;
#X obj 634 417 outlet;
#X obj 537 377 change;
#X obj 531 350 moses 0.1;
#X obj 72 224 resample 100;
#X obj 208 229 resample 100;
#X obj 340 231 resample 100;
#X obj 490 223 resample 100;
#X obj 586 57 inlet;
#X text 637 49 resample_value;
#X connect 1 0 0 0;
#X connect 2 0 0 1;
#X connect 6 0 3 0;
#X connect 6 0 38 0;
#X connect 7 0 4 0;
#X connect 7 0 41 0;
#X connect 8 0 15 0;
#X connect 8 0 39 0;
#X connect 10 0 16 0;
#X connect 10 0 40 0;
#X connect 17 0 21 0;
#X connect 17 0 23 0;
#X connect 18 0 21 1;
#X connect 18 0 25 0;
#X connect 19 0 21 2;
#X connect 19 0 27 0;
#X connect 20 0 21 3;
#X connect 20 0 29 0;
#X connect 21 0 32 0;
#X connect 21 0 37 0;
#X connect 23 0 24 0;
#X connect 24 0 11 0;
#X connect 25 0 26 0;
#X connect 26 0 13 0;
#X connect 27 0 28 0;
#X connect 28 0 14 0;
#X connect 29 0 30 0;
#X connect 30 0 12 0;
#X connect 32 0 33 0;
#X connect 33 0 34 0;
#X connect 33 0 31 0;
#X connect 33 0 35 0;
#X connect 36 0 22 0;
#X connect 37 1 36 0;
#X connect 38 0 17 0;
#X connect 39 0 18 0;
#X connect 40 0 19 0;
#X connect 41 0 20 0;
#X connect 42 0 41 1;
#X connect 42 0 40 1;
#X connect 42 0 39 1;
#X connect 42 0 38 1;
