#N canvas 58 308 612 379 10;
#X obj 65 161 earplug~ 270 -25;
#X obj 272 102 line 0 1;
#X obj 328 52 loadbang;
#X msg 272 77 0 \, 360 7200;
#X obj 288 145 nbx 5 14 -1e+37 1e+37 0 0 empty empty empty 0 -8 0 10
-262144 -1 -1 169.65 256;
#X obj 292 174 sel 360;
#X obj 307 204 bng 15 250 50 0 empty empty empty 17 7 0 10 -262144
-1 -1;
#X obj 147 212 *~;
#X obj 181 213 *~;
#X obj 214 183 inlet;
#X obj 49 94 inlet~;
#X obj 133 250 outlet~;
#X obj 186 250 outlet~;
#X obj 399 161 knob 89 89 0 360 0 0 empty empty empty 0 -8 0 8 -262144
-1 -1 4147 1;
#X connect 0 0 7 0;
#X connect 0 1 8 0;
#X connect 1 0 0 1;
#X connect 1 0 4 0;
#X connect 2 0 3 0;
#X connect 3 0 1 0;
#X connect 4 0 5 0;
#X connect 4 0 13 0;
#X connect 5 0 6 0;
#X connect 6 0 3 0;
#X connect 7 0 11 0;
#X connect 8 0 12 0;
#X connect 9 0 8 1;
#X connect 9 0 7 1;
#X connect 10 0 0 0;
