#N canvas 253 175 363 273 10;
#X obj 29 155 outlet~;
#X obj 116 155 outlet~;
#N canvas 208 85 879 620 readtables 1;
#X obj 226 643 +~;
#X obj 450 644 +~;
#X obj 226 680 outlet~;
#X obj 450 673 outlet~;
#X obj 46 207 granreader 1 \$2;
#X obj 180 207 granreader 2 \$2;
#X obj 311 207 granreader 3 \$2;
#X obj 439 208 granreader 4 \$2;
#X obj 457 231 granreader 8 \$2;
#X obj 326 231 granreader 7 \$2;
#X obj 194 231 granreader 6 \$2;
#X obj 63 231 granreader 5 \$2;
#X connect 0 0 2 0;
#X connect 1 0 3 0;
#X connect 4 0 0 0;
#X connect 4 1 1 1;
#X connect 5 0 0 0;
#X connect 5 1 1 1;
#X connect 6 0 0 0;
#X connect 6 1 1 1;
#X connect 7 0 0 0;
#X connect 7 1 1 1;
#X connect 8 0 0 0;
#X connect 8 1 1 1;
#X connect 9 0 0 0;
#X connect 9 1 1 1;
#X connect 10 0 0 0;
#X connect 10 1 1 1;
#X connect 11 0 0 0;
#X connect 11 1 1 1;
#X restore 30 125 pd readtables;
#X connect 2 0 0 0;
#X connect 2 1 1 0;
