#N canvas 336 283 499 282 10;
#N canvas 0 53 1366 715 GMT-_- 0;
#X obj 127 -739 tgl 15 0 empty empty empty 17 7 0 10 -262144 -1 -1
1 1;
#X obj 52 -735 loadbang;
#X obj 131 -716 metro 1000;
#X msg 324 -685 bang;
#X floatatom 358 -601 0 0 0 0 - - -;
#X floatatom 341 -576 0 0 0 0 - - -;
#X floatatom 324 -552 0 0 0 0 - - -;
#X floatatom 375 -626 0 0 0 0 - - -;
#X obj 413 -536 sel 0 6 12 18 24 30 36 42 48 54;
#X obj 245 -446 bng 34 250 50 1 empty empty empty 17 7 0 10 -262144
-1 -1;
#X obj 288 -446 bng 34 250 50 1 empty empty empty 17 7 0 10 -262144
-1 -1;
#X obj 328 -446 bng 34 250 50 1 empty empty empty 17 7 0 10 -262144
-1 -1;
#X obj 371 -446 bng 34 250 50 1 empty empty empty 17 7 0 10 -262144
-1 -1;
#X obj 413 -446 bng 34 250 50 1 empty empty empty 17 7 0 10 -262144
-1 -1;
#X obj 456 -446 bng 34 250 50 1 empty empty empty 17 7 0 10 -262144
-1 -1;
#X obj 496 -446 bng 34 250 50 1 empty empty empty 17 7 0 10 -262144
-1 -1;
#X obj 539 -446 bng 34 250 50 1 empty empty empty 17 7 0 10 -262144
-1 -1;
#X obj 582 -445 bng 34 250 50 1 empty empty empty 17 7 0 10 -262144
-1 -1;
#X obj 625 -445 bng 34 250 50 1 empty empty empty 17 7 0 10 -262144
-1 -1;
#X obj 222 -400 s min0;
#X obj 156 -668 counter 59;
#X obj 166 -635 sel 0;
#X obj 228 -639 nbx 5 14 -1e+37 1e+37 0 0 empty empty empty 0 -8 0
10 -262144 -1 -1 8 256;
#X obj 271 -391 s min6;
#X obj 321 -381 s min12;
#X obj 370 -372 s min18;
#X obj 420 -370 s min24;
#X obj 469 -361 s min30;
#X obj 519 -351 s min36;
#X obj 568 -342 s min42;
#X obj 324 -656 time;
#X obj 617 -338 s min48;
#X obj 671 -333 s min54;
#X obj -30 -301 line;
#X msg -32 -372 1;
#X msg 0 -372 0;
#X obj -27 -267 hsl 128 15 0 1 0 0 empty empty empty -2 -8 0 10 -262144
-1 -1 0 1;
#X obj 27 -248 line;
#X msg 25 -319 1;
#X msg 57 -319 0;
#X obj 30 -214 hsl 128 15 0 1 0 0 empty empty empty -2 -8 0 10 -262144
-1 -1 0 1;
#X obj 120 -192 line;
#X msg 118 -263 1;
#X msg 150 -263 0;
#X obj 123 -158 hsl 128 15 0 1 0 0 empty empty empty -2 -8 0 10 -262144
-1 -1 0 1;
#X obj 214 -138 line;
#X msg 212 -209 1;
#X msg 244 -209 0;
#X obj 217 -104 hsl 128 15 0 1 0 0 empty empty empty -2 -8 0 10 -262144
-1 -1 0 1;
#X obj 333 -161 line;
#X msg 331 -232 1;
#X msg 363 -232 0;
#X obj 336 -127 hsl 128 15 0 1 0 0 empty empty empty -2 -8 0 10 -262144
-1 -1 0 1;
#X obj 420 -107 line;
#X msg 418 -178 1;
#X msg 450 -178 0;
#X obj 423 -73 hsl 128 15 0 1 0 0 empty empty empty -2 -8 0 10 -262144
-1 -1 0 1;
#X obj 544 -136 line;
#X msg 542 -207 1;
#X msg 574 -207 0;
#X obj 547 -102 hsl 128 15 0 1 0 0 empty empty empty -2 -8 0 10 -262144
-1 -1 0 1;
#X obj 691 -124 line;
#X msg 689 -195 1;
#X msg 721 -195 0;
#X obj 694 -90 hsl 128 15 0 1 0 0 empty empty empty -2 -8 0 10 -262144
-1 -1 0 1;
#X obj 766 -152 line;
#X msg 764 -223 1;
#X msg 796 -223 0;
#X obj 769 -118 hsl 128 15 0 1 0 0 empty empty empty -2 -8 0 10 -262144
-1 -1 0 1;
#X msg -21 -343 \$1 72000;
#X msg 36 -290 \$1 72000;
#X msg 129 -234 \$1 72000;
#X msg 223 -180 \$1 72000;
#X msg 342 -203 \$1 72000;
#X msg 429 -149 \$1 72000;
#X msg 553 -178 \$1 72000;
#X msg 700 -166 \$1 72000;
#X msg 775 -194 \$1 72000;
#X obj 841 -180 line;
#X msg 839 -251 1;
#X msg 871 -251 0;
#X obj 844 -146 hsl 128 15 0 1 0 0 empty empty empty -2 -8 0 10 -262144
-1 -1 1249 1;
#X msg 850 -222 \$1 72000;
#X msg 217 -725 50;
#X obj -96 -224 s VolInstrument1;
#X obj -6 -185 s VolInstrument2;
#X obj 76 -134 s VolInstrument3;
#X obj 197 -78 s VolInstrument4;
#X obj 309 -80 s VolInstrument5;
#X obj 419 -50 s VolInstrument6;
#X obj 564 -73 s VolInstrument7;
#X obj 695 -67 s VolInstrument8;
#X obj 844 -94 s VolInstrument9;
#X obj 918 -130 s VolInstrument10;
#X connect 0 0 2 0;
#X connect 1 0 0 0;
#X connect 2 0 20 0;
#X connect 3 0 30 0;
#X connect 5 0 8 0;
#X connect 8 0 9 0;
#X connect 8 1 10 0;
#X connect 8 2 11 0;
#X connect 8 3 12 0;
#X connect 8 4 13 0;
#X connect 8 5 14 0;
#X connect 8 6 15 0;
#X connect 8 7 16 0;
#X connect 8 8 17 0;
#X connect 8 9 18 0;
#X connect 9 0 19 0;
#X connect 9 0 34 0;
#X connect 9 0 80 0;
#X connect 10 0 23 0;
#X connect 10 0 38 0;
#X connect 10 0 35 0;
#X connect 11 0 24 0;
#X connect 11 0 39 0;
#X connect 11 0 42 0;
#X connect 12 0 25 0;
#X connect 12 0 43 0;
#X connect 12 0 46 0;
#X connect 13 0 26 0;
#X connect 13 0 47 0;
#X connect 13 0 50 0;
#X connect 14 0 27 0;
#X connect 14 0 51 0;
#X connect 14 0 54 0;
#X connect 15 0 28 0;
#X connect 15 0 55 0;
#X connect 15 0 58 0;
#X connect 16 0 29 0;
#X connect 16 0 59 0;
#X connect 16 0 62 0;
#X connect 17 0 31 0;
#X connect 17 0 63 0;
#X connect 17 0 66 0;
#X connect 18 0 32 0;
#X connect 18 0 67 0;
#X connect 18 0 79 0;
#X connect 20 0 21 0;
#X connect 20 0 22 0;
#X connect 21 0 3 0;
#X connect 30 0 6 0;
#X connect 30 1 5 0;
#X connect 30 2 4 0;
#X connect 30 3 7 0;
#X connect 33 0 36 0;
#X connect 34 0 69 0;
#X connect 35 0 69 0;
#X connect 36 0 84 0;
#X connect 37 0 40 0;
#X connect 38 0 70 0;
#X connect 39 0 70 0;
#X connect 40 0 85 0;
#X connect 41 0 44 0;
#X connect 42 0 71 0;
#X connect 43 0 71 0;
#X connect 44 0 86 0;
#X connect 45 0 48 0;
#X connect 46 0 72 0;
#X connect 47 0 72 0;
#X connect 48 0 87 0;
#X connect 49 0 52 0;
#X connect 50 0 73 0;
#X connect 51 0 73 0;
#X connect 52 0 88 0;
#X connect 53 0 56 0;
#X connect 54 0 74 0;
#X connect 55 0 74 0;
#X connect 56 0 89 0;
#X connect 57 0 60 0;
#X connect 58 0 75 0;
#X connect 59 0 75 0;
#X connect 60 0 90 0;
#X connect 61 0 64 0;
#X connect 62 0 76 0;
#X connect 63 0 76 0;
#X connect 64 0 91 0;
#X connect 65 0 68 0;
#X connect 66 0 77 0;
#X connect 67 0 77 0;
#X connect 68 0 92 0;
#X connect 69 0 33 0;
#X connect 70 0 37 0;
#X connect 71 0 41 0;
#X connect 72 0 45 0;
#X connect 73 0 49 0;
#X connect 74 0 53 0;
#X connect 75 0 57 0;
#X connect 76 0 61 0;
#X connect 77 0 65 0;
#X connect 78 0 81 0;
#X connect 79 0 82 0;
#X connect 80 0 82 0;
#X connect 81 0 93 0;
#X connect 82 0 78 0;
#X connect 83 0 2 1;
#X restore 232 -768 pd GMT-_-;
#X obj 137 -878 r VolInstrument10;
#X obj 140 -854 hsl 100 15 0 1 0 0 empty empty empty -2 -8 0 10 -262144
-1 -1 974 1;
#X obj 258 -854 hsl 100 15 0 1 0 0 empty empty empty -2 -8 0 10 -262144
-1 -1 0 1;
#X obj 255 -878 r VolInstrument1;
#X obj 333 -806 hsl 100 15 0 1 0 0 empty empty empty -2 -8 0 10 -262144
-1 -1 0 1;
#X obj 330 -830 r VolInstrument2;
#X obj 364 -754 hsl 100 15 0 1 0 0 empty empty empty -2 -8 0 10 -262144
-1 -1 0 1;
#X obj 361 -778 r VolInstrument3;
#X obj 343 -699 hsl 100 15 0 1 0 0 empty empty empty -2 -8 0 10 -262144
-1 -1 0 1;
#X obj 340 -723 r VolInstrument4;
#X obj 285 -645 hsl 100 15 0 1 0 0 empty empty empty -2 -8 0 10 -262144
-1 -1 0 1;
#X obj 282 -669 r VolInstrument5;
#X obj 159 -644 hsl 100 15 0 1 0 0 empty empty empty -2 -8 0 10 -262144
-1 -1 0 1;
#X obj 156 -668 r VolInstrument6;
#X obj 87 -806 hsl 100 15 0 1 0 0 empty empty empty -2 -8 0 10 -262144
-1 -1 0 1;
#X obj 61 -754 hsl 100 15 0 1 0 0 empty empty empty -2 -8 0 10 -262144
-1 -1 0 1;
#X obj 99 -699 hsl 100 15 0 1 0 0 empty empty empty -2 -8 0 10 -262144
-1 -1 0 1;
#X obj 96 -723 r VolInstrument7;
#X obj 58 -778 r VolInstrument8;
#X obj 84 -830 r VolInstrument9;
#X connect 1 0 2 0;
#X connect 4 0 3 0;
#X connect 6 0 5 0;
#X connect 8 0 7 0;
#X connect 10 0 9 0;
#X connect 12 0 11 0;
#X connect 14 0 13 0;
#X connect 18 0 17 0;
#X connect 19 0 16 0;
#X connect 20 0 15 0;
