#N canvas 0 89 422 214 10;
#X obj -7468 -17149 catch~ mikroEE;
#X obj -7219 -17146 hsl 60 15 0 0.67 0 1 empty empty empty -2 -8 0
10 -262144 -1 -1 1761 1;
#N canvas 613 228 450 458 gnrtv_mod 0;
#N canvas 577 307 450 423 lorenzattractor 0;
#X obj 122 68 metro 50;
#X obj 122 44 tgl 15 0 empty empty empty 20 8 0 8 -262144 -1 -1 0 1
;
#X floatatom 173 43 5 0 0 0 - - -;
#X obj 122 131 lorenz;
#X floatatom 167 239 5 0 0 0 - - -;
#X msg 208 148 param 0.02 10 28 2.667;
#X text 98 20 Calculate;
#X text 206 115 Reset To Initial Conditions;
#X text 208 166 Modify Parameters;
#X floatatom 122 239 5 0 0 0 - - -;
#X floatatom 213 239 5 0 0 0 - - -;
#X text 151 212 Output;
#X msg 207 97 reset 0.1 0 0;
#X obj 54 43 loadbang;
#X obj 168 316 line;
#X obj 172 351 outlet;
#X msg 185 287 \$1 33333;
#X connect 0 0 3 0;
#X connect 1 0 0 0;
#X connect 2 0 0 1;
#X connect 3 0 9 0;
#X connect 3 1 4 0;
#X connect 3 2 10 0;
#X connect 4 0 16 0;
#X connect 5 0 3 0;
#X connect 12 0 3 0;
#X connect 13 0 0 0;
#X connect 13 0 12 0;
#X connect 14 0 15 0;
#X connect 16 0 14 0;
#X restore 97 39 pd lorenzattractor;
#X obj 107 67 abs;
#X obj 102 144 nbx 5 14 -1e+37 1e+37 0 0 empty empty empty 0 -8 0 10
-262144 -1 -1 0.21279 256;
#X obj 150 277 line;
#X obj 168 389 outlet;
#X obj 107 189 * 0.6;
#X msg 131 246 \$1 36000;
#X obj 192 307 max 0.2;
#X obj 204 346 min 0.5;
#X connect 0 0 1 0;
#X connect 1 0 2 0;
#X connect 2 0 5 0;
#X connect 3 0 7 0;
#X connect 5 0 6 0;
#X connect 6 0 3 0;
#X connect 7 0 8 0;
#X connect 8 0 4 0;
#X restore -7242 -17172 pd gnrtv_mod;
#X obj -7242 -17123 nbx 5 14 -1e+37 1e+37 0 0 empty empty empty 0 -8
0 10 -262144 -1 -1 0.2 256;
#X obj -7364 -17148 catch~ mikroDD;
#X obj -7354 -17109 *~;
#X obj -7439 -17109 *~;
#X obj -7401 -17065 dac~;
#N canvas 0 106 1351 687 micro-_- 0;
#X obj -8309 -17632 hsl 128 15 0 1000 0 1 empty empty empty -2 -8 0
10 -262144 -1 -1 457 1;
#N canvas 0 105 1351 687 HexaEngine 0;
#X obj 147 -638 sel 0 1 2 3 4 5;
#X obj 147 -702 hradio 15 1 0 8 empty empty empty 0 -8 0 10 -262144
-1 -1 0;
#X obj 152 -748 i;
#X obj 183 -755 + 1;
#X obj 185 -735 mod 6;
#X obj 131 -764 bng 15 360 50 0 empty empty empty 17 7 0 10 -262144
-1 -1;
#X obj 145 -805 tgl 15 0 empty empty empty 17 7 0 10 -262144 -1 -1
1 1;
#X obj 176 -804 hsl 128 15 0 127 0 0 empty empty empty -2 -8 0 10 -262144
-1 -1 0 1;
#X obj 351 -682 nbx 5 14 -1e+37 1e+37 0 0 empty empty empty 0 -8 0
10 -262144 -1 -1 3 256;
#X obj 327 -734 sel 0;
#X obj 351 -661 hradio 15 1 0 36 empty empty empty 0 -8 0 10 -262144
-1 -1 3;
#X obj 400 -646 nbx 5 14 -1e+37 1e+37 0 0 empty empty empty 0 -8 0
10 -262144 -1 -1 3 256;
#X obj 443 -577 sel 0 1 2 3 4 5;
#X obj 443 -607 hradio 15 1 0 8 empty empty empty 0 -8 0 10 -262144
-1 -1 3;
#X obj 712 -603 nbx 5 14 -1e+37 1e+37 0 0 empty empty empty 0 -8 0
10 -262144 -1 -1 5 256;
#X obj 766 -624 sel 0;
#X obj 782 -600 counter 5;
#X obj 757 -557 sel 0 1 2 3 4 5;
#X obj 757 -580 hradio 15 1 0 8 empty empty empty 0 -8 0 10 -262144
-1 -1 5;
#X obj 343 -710 counter 5;
#X obj 149 -782 metro 1000;
#X obj 1100 -539 nbx 5 14 -1e+37 1e+37 0 0 empty empty empty 0 -8 0
10 -262144 -1 -1 1 256;
#X obj 1092 -567 counter 5;
#X obj 70 -801 loadbang;
#X obj 956 -609 bng 15 250 50 0 empty empty empty 17 7 0 10 -262144
-1 -1;
#X obj 1152 -497 nbx 5 14 -1e+37 1e+37 0 0 empty empty empty 0 -8 0
10 -262144 -1 -1 1 256;
#X obj 1197 -451 sel 0 1 2 3 4 5;
#X obj 1197 -474 hradio 15 1 0 8 empty empty empty 0 -8 0 10 -262144
-1 -1 1;
#X obj 1030 -281 nbx 5 14 -1e+37 1e+37 0 0 empty empty empty 0 -8 0
10 -262144 -1 -1 0 256;
#X obj 1022 -309 counter 5;
#X obj 886 -351 bng 15 250 50 0 empty empty empty 17 7 0 10 -262144
-1 -1;
#X obj 1082 -239 nbx 5 14 -1e+37 1e+37 0 0 empty empty empty 0 -8 0
10 -262144 -1 -1 0 256;
#X obj 1127 -193 sel 0 1 2 3 4 5;
#X obj 1127 -216 hradio 15 1 0 8 empty empty empty 0 -8 0 10 -262144
-1 -1 0;
#X obj 162 -461 i;
#X obj 193 -468 + 1;
#X obj 195 -448 mod 6;
#X obj 141 -477 bng 15 360 50 0 empty empty empty 17 7 0 10 -262144
-1 -1;
#X obj 159 -495 metro 1000;
#X obj 237 -510 / 2;
#X obj 41 -687 s trigger1sT;
#X obj 36 -622 s trigger6sT;
#X obj 51 -400 s triggerhalfsT;
#X obj 337 -587 s trigger36sT;
#X obj 655 -548 s trigger216sT;
#X obj 1095 -442 s trigger1296sT;
#X obj 927 -216 s trigger7776sT;
#X obj 262 -772 r masterTelurica;
#X obj 272 -485 r masterTelurica;
#X obj 11 -744 r startstopMicro;
#X connect 0 0 41 0;
#X connect 1 0 0 0;
#X connect 1 0 9 0;
#X connect 1 0 40 0;
#X connect 2 0 3 0;
#X connect 2 0 1 0;
#X connect 3 0 4 0;
#X connect 4 0 2 1;
#X connect 5 0 2 0;
#X connect 6 0 20 0;
#X connect 6 0 38 0;
#X connect 7 0 20 1;
#X connect 8 0 10 0;
#X connect 9 0 19 0;
#X connect 10 0 11 0;
#X connect 10 0 15 0;
#X connect 10 0 13 0;
#X connect 12 0 43 0;
#X connect 13 0 12 0;
#X connect 14 0 18 0;
#X connect 15 0 16 0;
#X connect 16 0 14 0;
#X connect 17 0 24 0;
#X connect 17 0 44 0;
#X connect 18 0 17 0;
#X connect 19 0 8 0;
#X connect 20 0 5 0;
#X connect 21 0 25 0;
#X connect 22 0 21 0;
#X connect 23 0 6 0;
#X connect 24 0 22 0;
#X connect 25 0 27 0;
#X connect 26 0 30 0;
#X connect 26 0 45 0;
#X connect 27 0 26 0;
#X connect 28 0 31 0;
#X connect 29 0 28 0;
#X connect 30 0 29 0;
#X connect 31 0 33 0;
#X connect 32 0 46 0;
#X connect 33 0 32 0;
#X connect 34 0 35 0;
#X connect 34 0 42 0;
#X connect 35 0 36 0;
#X connect 36 0 34 1;
#X connect 37 0 34 0;
#X connect 38 0 37 0;
#X connect 39 0 38 1;
#X connect 47 0 20 1;
#X connect 48 0 39 0;
#X connect 49 0 6 0;
#X restore -8279 -17578 pd HexaEngine;
#X obj -8287 -17610 nbx 5 14 -1e+37 1e+37 0 0 empty empty empty 0 -8
0 10 -262144 -1 -1 35.9843 256;
#X msg -8289 -17649 240;
#X msg -8256 -17655 135;
#X msg -8220 -17656 111;
#X obj -8058 -17615 t b f;
#X obj -8134 -17643 hradio 23 1 1 8 empty empty empty 0 -8 0 10 -262144
-1 -1 1;
#X obj -8059 -17587 *;
#X obj -8047 -17556 nbx 5 14 -1e+37 1e+37 0 0 empty empty empty 0 -8
0 10 -262144 -1 -1 36 256;
#X obj -8005 -17744 knob 55 55 0 6 0 0 empty empty empty 0 -8 0 8 -262144
-260097 -1 900 1;
#X obj -8005 -17769 countund 5;
#N canvas 377 133 971 624 HexaTimeGUI 0;
#X obj 175 76 counter 5;
#X obj 175 102 knob 55 55 0 6 0 0 empty empty empty 0 -8 0 8 -262144
-260097 -1 2700 1;
#X obj 245 76 counter 5;
#X obj 321 76 counter 5;
#X obj 396 76 counter 5;
#X obj 245 102 knob 55 55 0 6 0 0 empty empty empty 0 -8 0 8 -262144
-260097 -1 4500 1;
#X obj 323 104 knob 55 55 0 6 0 0 empty empty empty 0 -8 0 8 -262144
-260097 -1 900 1;
#X obj 399 104 knob 55 55 0 6 0 0 empty empty empty 0 -8 0 8 -262144
-260097 -1 0 1;
#X obj 484 76 counter 5;
#X obj 482 103 knob 55 55 0 6 0 0 empty empty empty 0 -8 0 8 -262144
-260097 -1 0 1;
#X obj 572 76 counter 5;
#X obj 565 107 knob 55 55 0 6 0 0 empty empty empty 0 -8 0 8 -262144
-260097 -1 0 1;
#X obj 105 76 counter 5;
#X obj 105 102 knob 55 55 0 6 0 0 empty empty empty 0 -8 0 8 -262144
-260097 -1 900 1;
#X obj 105 53 r trigger1sT;
#X obj 175 53 r trigger6sT;
#X obj 245 53 r trigger36sT;
#X obj 403 33 r trigger1296sT;
#X obj 484 53 r trigger7776sT;
#X obj 572 53 r trigger46656sT;
#X obj 305 42 r trigger216sT;
#X connect 0 0 1 0;
#X connect 2 0 5 0;
#X connect 3 0 6 0;
#X connect 4 0 7 0;
#X connect 8 0 9 0;
#X connect 10 0 11 0;
#X connect 12 0 13 0;
#X connect 14 0 12 0;
#X connect 15 0 0 0;
#X connect 16 0 2 0;
#X connect 17 0 4 0;
#X connect 18 0 8 0;
#X connect 19 0 10 0;
#X connect 20 0 3 0;
#X coords 0 -1 1 1 555 60 1 100 100;
#X restore -7929 -17672 pd HexaTimeGUI;
#X obj -8301 -17551 s masterTelurica;
#X obj -8321 -17764 tgl 15 0 empty empty empty 17 7 0 10 -262144 -1
-1 1 1;
#X obj -8098 -17788 r trigger216sT;
#X obj -7877 -17791 r trigger1296sT;
#X obj -7931 -17546 bng 55 250 50 1 empty empty empty 17 7 0 10 -1
-262144 -1;
#X obj -7869 -17545 bng 55 250 50 1 empty empty empty 17 7 0 10 -33289
-262144 -1;
#X obj -7808 -17546 bng 55 250 50 1 empty empty empty 17 7 0 10 -66577
-262144 -1;
#X obj -7748 -17546 bng 55 250 50 1 empty empty empty 17 7 0 10 -99865
-262144 -1;
#X obj -7687 -17546 bng 55 250 50 1 empty empty empty 17 7 0 10 -128992
-262144 -1;
#X obj -7932 -17595 r trigger1sT;
#X obj -7862 -17595 r trigger6sT;
#X obj -7792 -17595 r trigger36sT;
#X obj -7714 -17595 r trigger216sT;
#X obj -7641 -17595 r trigger1296sT;
#X obj -8050 -17530 s time;
#X obj -7212 -17445 *~;
#X floatatom -7171 -17560 5 0 0 0 - - -;
#X floatatom -7145 -17538 5 0 0 0 - - -;
#X obj -7231 -17548 bng 15 250 50 0 empty empty empty 0 -6 0 8 -262144
-1 -1;
#X obj -7154 -17481 *~;
#X obj -7104 -17509 hsl 128 15 0 0.5 0 1 empty empty empty -2 -8 0
10 -262144 -1 -1 7620 1;
#X obj -7436 -17674 bng 55 250 50 1 empty empty empty 17 7 0 10 -1
-262144 -1;
#X obj -7374 -17673 bng 55 250 50 1 empty empty empty 17 7 0 10 -33289
-262144 -1;
#X obj -7313 -17674 bng 55 250 50 1 empty empty empty 17 7 0 10 -66577
-262144 -1;
#X obj -7253 -17674 bng 55 250 50 1 empty empty empty 17 7 0 10 -99865
-262144 -1;
#X obj -7192 -17674 bng 55 250 50 1 empty empty empty 17 7 0 10 -128992
-262144 -1;
#X obj -7437 -17723 r trigger1sT;
#X obj -7367 -17723 r trigger6sT;
#X obj -7297 -17723 r trigger36sT;
#X obj -7219 -17723 r trigger216sT;
#X obj -7146 -17723 r trigger1296sT;
#X obj -7451 -17586 counter 3;
#X obj -7439 -17547 sel 0;
#X obj -7355 -17464 noise~;
#X obj -7285 -17437 *~ 0.1;
#X obj -7196 -17513 ead~ 3 9;
#N canvas 0 125 971 630 delai+ 0;
#X msg 844 47 \; pd dsp 1;
#X msg 910 47 \; pd dsp 0;
#X obj 843 18 loadbang;
#X obj 843 18 loadbang;
#X obj 313 330 hsl 128 15 0 4000 0 1 empty delay4000 temps_delai 10
8 1 10 -262144 -1 -1 286 1;
#X obj 218 345 sig~;
#X obj 160 297 *~;
#X obj 308 282 hsl 128 15 0 1 0 1 empty reinjection reinjection 10
7 1 10 -262144 -1 -1 12700 1;
#X obj 313 306 hsl 128 15 0 500 0 1 empty delay500 temps_delai 10 8
1 10 -262144 -1 -1 12648 1;
#X obj 149 513 outlet~;
#X obj 47 86 inlet~;
#X text 336 504 .::.multieffets : realise par le 'doob' de D'gepeto.::.
;
#X floatatom 391 373 5 0 0 0 - - autodelay1;
#X text 334 527 .:::.:..::. x!;
#X text 337 480 .:::...::merci beaucoup a dgepeto! je t'aime \; ).:::..
;
#X obj 220 436 *~ 0.3;
#X obj 314 98 bng 23 250 50 0 empty empty empty 17 7 0 10 -1 -262144
-262144;
#X obj 343 247 line;
#X obj 386 117 pipe;
#X msg 367 216 0 \$1;
#X obj 373 158 nbx 5 14 -1e+37 1e+37 0 0 empty empty empty 0 -8 0 10
-262144 -1 -1 90 256;
#X obj 372 137 bng 15 250 50 0 empty empty empty 17 7 0 10 -262144
-1 -1;
#X msg 321 138 1;
#X obj 666 163 t b f;
#X obj 573 180 nbx 5 14 -1e+37 1e+37 0 0 empty empty empty 0 -8 0 10
-262144 -1 -1 90 256;
#X obj 703 128 hradio 15 1 0 8 empty empty empty 0 -8 0 10 -262144
-1 -1 0;
#X obj 634 239 *;
#X obj 700 49 counter 3;
#X obj 703 72 nbx 5 14 -1e+37 1e+37 0 0 empty empty empty 0 -8 0 10
-262144 -1 -1 0 256;
#X obj 578 22 bng 23 250 50 0 empty empty empty 17 7 0 10 -1 -262144
-262144;
#X obj 704 312 sel 0;
#X obj 494 304 hsl 128 15 11 4000 0 1 empty delay4000 temps_delai 10
8 1 10 -262144 -1 -1 252 1;
#X floatatom 640 319 5 0 0 0 - - autodelay1;
#X obj 503 271 hradio 15 1 0 21 empty empty empty 0 -8 0 10 -262144
-1 -1 0;
#X obj -135 75 r masterSEQ;
#X obj 410 81 r masterSEQ;
#X obj 646 -33 bng 55 250 50 1 empty empty empty 17 7 0 10 -1 -262144
-1;
#X obj 323 -150 r masterSEQ;
#X obj 712 151 + 1;
#X obj 390 184 * 6;
#X obj 546 144 / 2;
#X obj 487 -131 t b f;
#X obj 394 -114 nbx 5 14 -1e+37 1e+37 0 0 empty empty empty 0 -8 0
10 -262144 -1 -1 18 256;
#X obj 524 -166 hradio 15 1 0 8 empty empty empty 0 -8 0 10 -262144
-1 -1 4;
#X obj 455 -55 *;
#X obj 533 -143 + 1;
#X obj 470 -8 nbx 5 14 -1e+37 1e+37 0 0 empty empty empty 0 -8 0 10
-262144 -1 -1 90 256;
#X obj 323 -116 / 2;
#X obj 565 -82 counter 5;
#X obj 387 431 s delaicliqs;
#X obj 160 242 delwrite~ delayDNA 3000;
#X obj 219 396 vd~ delayDNA;
#X obj 267 -30 nbx 3 34 -1e+37 1e+37 0 0 empty time empty 0 -8 0 34
-262144 -1 -1 36 256;
#X obj 645 -82 r trigger6sT;
#X obj 747 -60 inlet;
#X msg 626 368 1;
#X msg 589 365 0.5;
#X obj 695 371 s tempsdelai;
#X connect 2 0 0 0;
#X connect 4 0 5 0;
#X connect 4 0 12 0;
#X connect 4 0 49 0;
#X connect 5 0 51 0;
#X connect 6 0 50 0;
#X connect 7 0 6 1;
#X connect 8 0 4 0;
#X connect 10 0 50 0;
#X connect 15 0 9 0;
#X connect 16 0 22 0;
#X connect 16 0 18 0;
#X connect 17 0 7 0;
#X connect 18 0 21 0;
#X connect 19 0 17 0;
#X connect 20 0 39 0;
#X connect 21 0 20 0;
#X connect 22 0 17 0;
#X connect 23 0 24 0;
#X connect 23 1 26 1;
#X connect 24 0 26 0;
#X connect 25 0 30 0;
#X connect 25 0 38 0;
#X connect 26 0 31 0;
#X connect 26 0 18 1;
#X connect 26 0 20 0;
#X connect 27 0 28 0;
#X connect 28 0 25 0;
#X connect 29 0 27 0;
#X connect 30 0 56 0;
#X connect 30 1 55 0;
#X connect 31 0 32 0;
#X connect 31 0 4 0;
#X connect 31 0 57 0;
#X connect 33 0 4 0;
#X connect 35 0 18 1;
#X connect 36 0 29 0;
#X connect 36 0 16 0;
#X connect 36 0 48 0;
#X connect 37 0 47 0;
#X connect 38 0 23 0;
#X connect 39 0 19 0;
#X connect 40 0 24 0;
#X connect 41 0 42 0;
#X connect 41 1 44 1;
#X connect 42 0 44 0;
#X connect 43 0 45 0;
#X connect 44 0 46 0;
#X connect 45 0 41 0;
#X connect 46 0 24 0;
#X connect 47 0 42 0;
#X connect 48 0 43 0;
#X connect 51 0 6 0;
#X connect 51 0 15 0;
#X connect 52 0 47 0;
#X connect 52 0 18 1;
#X connect 53 0 36 0;
#X connect 54 0 36 0;
#X connect 55 0 15 1;
#X connect 56 0 15 1;
#X restore -7129 -17447 pd delai+;
#X obj -7101 -17401 *~;
#X obj -7051 -17429 hsl 128 15 0 0.5 0 1 empty empty empty -2 -8 0
10 -262144 -1 -1 7100 1;
#N canvas 345 94 996 665 particleMINI 0;
#X obj 90 37 s 1-zample_number;
#X obj 32 63 tgl 20 1 gran1-mute empty empty 0 -6 0 8 -258699 -1 -1
1 1;
#X obj 61 65 vsl 20 96 -100 20 0 1 gran1gain empty empty 5 12 0 12
-44926 -1 -1 7300 1;
#X obj 96 87 hsl 100 15 2 200 1 1 1-zample_envelope_min empty envelope
6 7 0 8 -262144 -1 -1 0 1;
#X obj 204 87 nbx 5 14 0 50 0 1 1-zample_envelope_sprd empty range
60 8 0 10 -262144 -1 -1 14 256;
#X obj 96 108 hsl 100 15 1 5000 1 1 1-zample_sustain_min empty length
6 7 0 8 -262144 -1 -1 3300 1;
#X obj 204 109 nbx 5 14 0 100 0 1 1-zample_sustain_sprd empty range
60 8 0 10 -262144 -1 -1 16 256;
#X obj 96 129 hsl 100 15 0 100 0 1 1-zample_gain_min 20-midi gain 6
7 0 8 -262144 -1 -1 2200 1;
#X obj 204 130 nbx 5 14 0 100 0 1 1-zample_gain_sprd empty range 60
8 0 10 -262144 -1 -1 10 256;
#X obj 96 149 hsl 100 15 0 100 0 1 1-zample_pan_sprd empty stereo_spread
6 7 0 8 -262144 -1 -1 9900 1;
#X obj 207 149 hsl 75 15 0 120 0 1 gran1pan empty pan 1 8 0 8 -262144
-1 -1 3700 1;
#X obj 207 168 hsl 75 15 1 32 0 1 1-zample_voices empty vox 15 9 0
8 -262144 -1 -1 7300 1;
#X obj 96 168 hsl 100 15 99 0 0 1 1-zample_asynch empty asynch 15 9
0 8 -262144 -1 -1 1700 1;
#X obj 83 16 hradio 15 1 1 8 empty empty sample_number 20 7 0 8 -262144
-1 -1 0;
#X obj 305 149 nbx 5 14 0 10000 0 1 readspread empty grain_spread 60
7 0 10 -262144 -1 -1 10 256;
#X obj 477 58 cnv 15 200 150 empty empty reverb 130 140 0 14 -71869
-66577 0;
#X obj 486 64 tgl 20 1 rev-mute empty empty 0 -6 0 8 -258699 -1 -1
1 1;
#X obj 515 66 vsl 20 96 -100 20 0 0 reverbgain empty empty 5 12 0 12
-44926 -1 -1 0 1;
#X obj 551 65 hsl 100 15 0 99 0 1 reverb_room empty room_size 6 7 0
8 -262144 -1 -1 9400 1;
#X obj 551 88 hsl 100 15 0 100 0 1 reverb_damp empty damping 6 7 0
8 -262144 -1 -1 0 1;
#X obj 551 130 hsl 100 15 0 100 0 1 reverb_wetdry empty dry/wet 6 7
0 8 -262144 -1 -1 6200 1;
#X obj 551 150 hsl 100 15 0 127 0 1 reverb_width empty stereo_width
6 7 0 8 -262144 -1 -1 2700 1;
#X obj 305 86 nbx 5 14 -1e+37 1e+37 0 0 readpositionin tableloc scan_target
60 7 0 10 -62784 -1 -1 0 256;
#X obj 305 108 nbx 6 14 -1e+37 1e+37 0 0 empty scan_speed scan_interpolation
60 7 0 10 -62784 -1 -1 0 256;
#X obj 305 169 nbx 5 14 0 10000 0 0 empty ave_g_length ave_grain_length
60 7 0 10 -62784 -1 -1 168.728 256;
#N canvas 748 162 456 494 guts 0;
#X obj 185 285 r gran1gain;
#X obj 185 347 pack 0 50;
#X obj 187 207 pack 0 50;
#X obj 175 77 * -1;
#X obj 211 26 r gran1pan;
#X obj 187 186 r gran1-mute;
#X obj 185 306 + 100;
#X obj 185 326 dbtorms;
#N canvas 0 188 560 429 scanner 0;
#X obj 136 19 r readspread;
#X obj 136 110 s 1-zample_start_sprd;
#X obj 136 47 / 100;
#X obj 318 16 r 1-zample_envelope_min;
#X obj 358 54 r 1-zample_sustain_min;
#X obj 318 55 * 2;
#X obj -1 171 random_range 0 0;
#X obj 52 104 * -1;
#X obj -1 216 line;
#X obj -1 265 +;
#X obj -1 295 s 1-zample_start_min;
#X obj 52 74 / 10;
#X obj 52 47 r jitter;
#X obj -1 138 metro 100;
#X obj -1 194 pack 0 5;
#X obj 15 19 r readpositionout;
#X obj 318 148 f;
#X obj 358 148 f;
#X obj 358 117 t b f;
#X obj 318 117 t b f;
#X obj 318 170 +;
#X obj 318 192 s ave_g_length;
#X connect 0 0 2 0;
#X connect 2 0 1 0;
#X connect 3 0 5 0;
#X connect 4 0 18 0;
#X connect 5 0 19 0;
#X connect 6 0 14 0;
#X connect 7 0 6 1;
#X connect 8 0 9 0;
#X connect 9 0 10 0;
#X connect 11 0 7 0;
#X connect 11 0 6 2;
#X connect 12 0 11 0;
#X connect 13 0 6 0;
#X connect 14 0 8 0;
#X connect 15 0 9 1;
#X connect 15 0 13 0;
#X connect 16 0 20 0;
#X connect 17 0 20 1;
#X connect 18 0 17 0;
#X connect 18 0 16 0;
#X connect 18 1 17 1;
#X connect 19 0 17 0;
#X connect 19 0 16 0;
#X connect 19 1 16 1;
#X connect 20 0 21 0;
#X restore 72 3 pd scanner;
#N canvas 87 81 1009 673 reverb 0;
#X obj 192 338 r reverbgain;
#X obj 199 149 / 100;
#X obj 190 105 / 100;
#X obj 180 63 / 100;
#X obj 436 66 * -1;
#X obj 357 21 r reverb_wetdry;
#X obj 180 43 r reverb_room;
#X obj 190 85 r reverb_damp;
#X obj 199 128 r reverb_width;
#X obj 192 398 pack 0 50;
#X obj 193 259 pack 0 50;
#X obj 193 235 r rev-mute;
#X obj 357 88 pack 0 100;
#X obj 436 87 pack 0 100;
#X obj 357 108 line;
#X obj 436 108 line;
#X obj 143 1 inlet~;
#X obj 170 23 inlet~;
#X obj 143 516 outlet~;
#X obj 257 518 outlet~;
#X obj 192 358 + 100;
#X obj 192 378 dbtorms;
#X obj 193 281 line~;
#X obj 192 417 line~;
#X obj 160 472 *~;
#X obj 272 472 *~;
#X obj 271 310 *~;
#X obj 161 310 *~;
#X obj 436 46 - 100;
#X obj 161 206 freeverb~;
#X obj 143 493 +~;
#X obj 257 496 +~;
#X connect 0 0 20 0;
#X connect 4 0 13 0;
#X connect 5 0 12 0;
#X connect 5 0 28 0;
#X connect 6 0 3 0;
#X connect 7 0 2 0;
#X connect 8 0 1 0;
#X connect 9 0 23 0;
#X connect 10 0 22 0;
#X connect 11 0 10 0;
#X connect 12 0 14 0;
#X connect 13 0 15 0;
#X connect 16 0 29 0;
#X connect 16 0 30 0;
#X connect 17 0 29 1;
#X connect 17 0 31 0;
#X connect 20 0 21 0;
#X connect 21 0 9 0;
#X connect 22 0 26 1;
#X connect 22 0 27 1;
#X connect 23 0 24 1;
#X connect 23 0 25 1;
#X connect 24 0 30 1;
#X connect 25 0 31 1;
#X connect 26 0 25 0;
#X connect 27 0 24 0;
#X connect 28 0 4 0;
#X connect 29 0 27 0;
#X connect 29 1 26 0;
#X connect 30 0 18 0;
#X connect 31 0 19 0;
#X restore 153 429 pd reverb;
#X obj 187 228 line~;
#X obj 155 257 *~;
#X obj 276 256 *~;
#X obj 185 367 line~;
#X obj 154 396 *~;
#X obj 275 396 *~;
#X obj 291 98 pack 0 50;
#X obj 211 51 / 100;
#X obj 175 100 pack 0 50;
#X obj 154 146 *~;
#X obj 275 146 *~;
#X obj 176 121 line~;
#X obj 291 119 line~;
#X obj 211 77 - 1;
#X obj 153 3 filegranulator 1 1;
#X obj 152 460 s~ grAIN_E;
#X obj 227 458 s~ grAIN_D;
#X connect 0 0 6 0;
#X connect 1 0 13 0;
#X connect 2 0 10 0;
#X connect 3 0 18 0;
#X connect 4 0 17 0;
#X connect 5 0 2 0;
#X connect 6 0 7 0;
#X connect 7 0 1 0;
#X connect 9 0 25 0;
#X connect 9 1 26 0;
#X connect 10 0 11 1;
#X connect 10 0 12 1;
#X connect 11 0 14 0;
#X connect 12 0 15 0;
#X connect 13 0 14 1;
#X connect 13 0 15 1;
#X connect 14 0 9 0;
#X connect 15 0 9 1;
#X connect 16 0 22 0;
#X connect 17 0 23 0;
#X connect 17 0 16 0;
#X connect 18 0 21 0;
#X connect 19 0 11 0;
#X connect 20 0 12 0;
#X connect 21 0 19 1;
#X connect 22 0 20 1;
#X connect 23 0 3 0;
#X connect 24 0 19 0;
#X connect 24 1 20 0;
#X restore 484 242 pd guts;
#X text 505 314 x 1;
#X obj 96 188 hsl 100 15 0 500 0 1 jitter empty jitter 15 9 0 8 -262144
-1 -1 9700 1;
#X obj 305 130 nbx 5 14 -1e+37 1e+37 0 0 empty 1-zample_start_min current_position
60 7 0 10 -62784 -1 -1 0 256;
#X obj 27 215 grid grid1 440 0 1000 125 1 10000 1 1 1 30 20 251 269
;
#N canvas 69 348 692 396 table_locator 0;
#X obj 229 18 inlet;
#X obj 229 47 select 0;
#X obj 299 47 select 1;
#X obj 363 45 select 2;
#X msg 229 70 1;
#X msg 299 70 10;
#X msg 363 67 100;
#X obj 229 114 line;
#X obj 229 92 pack 0 100;
#X obj -44 18 inlet;
#X obj 170 16 inlet;
#X obj -60 223 line;
#X obj 170 152 *;
#X obj -60 203 pack 0 0;
#X obj 170 175 t b f;
#X obj -60 177 f;
#X obj 170 244 s scan_speed;
#X obj -60 246 s readpositionout;
#X obj -9 275 s tableloc;
#X text -72 -3 x coordinates = read position;
#X text -4 225 range = 0-1000;
#X text 158 -3 y coordinates = scan speed interpolation;
#X text 181 221 range = 0-10000;
#X text 130 306 If you do not have the Grid object \, you can hack
this subpatch to control Particlechamber.;
#X obj 95 130 nbx 5 14 -1e+37 1e+37 0 0 empty empty empty 0 -8 0 10
-262144 -1 -1 0 256;
#X obj 2 114 nbx 5 14 -1e+37 1e+37 0 0 empty empty empty 0 -8 0 10
-262144 -1 -1 0 256;
#X obj -60 331 nbx 5 14 -1e+37 1e+37 0 0 empty empty empty 0 -8 0 10
-262144 -1 -1 0 256;
#X connect 0 0 1 0;
#X connect 0 0 2 0;
#X connect 0 0 3 0;
#X connect 1 0 4 0;
#X connect 2 0 5 0;
#X connect 3 0 6 0;
#X connect 4 0 8 0;
#X connect 5 0 8 0;
#X connect 6 0 8 0;
#X connect 7 0 12 1;
#X connect 8 0 7 0;
#X connect 9 0 15 1;
#X connect 9 0 18 0;
#X connect 9 0 25 0;
#X connect 10 0 12 0;
#X connect 10 0 24 0;
#X connect 11 0 17 0;
#X connect 11 0 26 0;
#X connect 12 0 14 0;
#X connect 12 0 16 0;
#X connect 13 0 11 0;
#X connect 14 0 15 0;
#X connect 14 1 13 1;
#X connect 15 0 13 0;
#X restore 353 340 pd table_locator;
#X obj 485 314 vradio 15 1 1 3 empty empty empty 0 -6 0 8 -262144 -1
-1 0;
#X text 505 329 x 10;
#X text 505 343 x 100;
#X text 546 314 gear-shift for;
#X text 546 329 interpolation;
#X text 546 343 speed;
#X text 206 24 32-voice asynchronous granular synthesizer;
#X msg -84 337 bang;
#X obj 76 389 openpanel;
#X obj 76 474 soundfiler;
#X obj 76 530 s 1-zample_size;
#X msg 86 495 \; 1-zample resize \$1;
#X msg 76 452 read -resize -maxsize 1e+07 \$1 1-zample;
#N canvas 0 0 450 300 (subpatch) 0;
#X array 1-zample 114247 float 0;
#X coords 0 1 114246 -1 120 30 1;
#X restore -70 460 graph;
#X obj 345 489 inlet~;
#X obj 675 540 outlet~;
#X obj 676 485 r~ grAIN_E;
#X obj 751 483 r~ grAIN_D;
#X obj 744 542 outlet~;
#X obj 686 515 *~;
#X obj 751 513 *~;
#X obj 711 451 hsl 128 15 0 1 0 1 empty empty empty -2 -8 0 10 -262144
-1 -1 5644 1;
#X obj 799 420 inlet;
#X msg 461 476 bang;
#X msg 477 521 stop;
#X msg 464 498 start 500;
#X obj 444 573 tabwrite~ 1-zample;
#X obj 523 419 r cadamin;
#X obj 523 445 bng 30 250 50 0 empty empty empty 17 7 0 10 -262144
-1 -1;
#X obj 487 389 r trigger36sT;
#X connect 13 0 0 0;
#X connect 29 0 30 0;
#X connect 29 1 30 1;
#X connect 31 0 30 2;
#X connect 38 0 39 0;
#X connect 39 0 43 0;
#X connect 40 0 42 0;
#X connect 40 0 41 0;
#X connect 43 0 40 0;
#X connect 45 0 57 0;
#X connect 47 0 50 0;
#X connect 48 0 51 0;
#X connect 50 0 46 0;
#X connect 51 0 49 0;
#X connect 52 0 50 1;
#X connect 52 0 51 1;
#X connect 53 0 52 0;
#X connect 54 0 57 0;
#X connect 55 0 57 0;
#X connect 56 0 57 0;
#X connect 58 0 59 0;
#X connect 59 0 54 0;
#X connect 60 0 59 0;
#X restore -7146 -17260 pd particleMINI;
#X obj -6979 -17280 hsl 55 15 0 1 0 1 empty empty empty -2 -8 0 10
-262144 -1 -1 2400 1;
#X obj -6984 -17252 nbx 5 14 -1e+37 1e+37 0 0 empty empty empty 0 -8
0 10 -262144 -1 -1 0.444444 256;
#X obj -6986 -17184 tgl 20 1 gran1-mute empty empty 0 -6 0 8 -258699
-1 -1 1 1;
#X obj -6957 -17182 vsl 20 96 -100 20 0 1 gran1gain empty empty 5 12
0 12 -44926 -1 -1 7100 1;
#X obj -6922 -17160 hsl 100 15 2 200 1 1 1-zample_envelope_min empty
envelope 6 7 0 8 -262144 -1 -1 0 1;
#X obj -6814 -17160 nbx 5 14 0 50 0 1 1-zample_envelope_sprd empty
range 60 8 0 10 -262144 -1 -1 14 256;
#X obj -6920 -17137 hsl 100 15 1 5000 1 1 1-zample_sustain_min empty
length 6 7 0 8 -262144 -1 -1 5933 1;
#X obj -6814 -17138 nbx 5 14 0 100 0 1 1-zample_sustain_sprd empty
range 60 8 0 10 -262144 -1 -1 16 256;
#X obj -6922 -17118 hsl 100 15 0 100 0 1 1-zample_gain_min 20-midi
gain 6 7 0 8 -262144 -1 -1 7000 1;
#X obj -6814 -17117 nbx 5 14 0 100 0 1 1-zample_gain_sprd empty range
60 8 0 10 -262144 -1 -1 10 256;
#X obj -6922 -17098 hsl 100 15 0 100 0 1 1-zample_pan_sprd empty stereo_spread
6 7 0 8 -262144 -1 -1 9900 1;
#X obj -6811 -17098 hsl 75 15 0 120 0 1 gran1pan empty pan 1 8 0 8
-262144 -1 -1 3900 1;
#X obj -6811 -17079 hsl 75 15 1 32 0 1 1-zample_voices empty vox 15
9 0 8 -262144 -1 -1 6800 1;
#X obj -6922 -17079 hsl 100 15 99 0 0 1 1-zample_asynch empty asynch
15 9 0 8 -262144 -1 -1 9875 1;
#X obj -6922 -17059 hsl 100 15 0 500 0 1 jitter empty jitter 15 9 0
8 -262144 -1 -1 9900 1;
#X obj -6983 -17077 nbx 5 14 -1e+37 1e+37 0 0 empty empty empty 0 -8
0 10 -262144 -1 -1 -10.3158 256;
#X obj -6863 -17272 hsl 60 15 0 0.67 0 1 empty empty empty -2 -8 0
10 -262144 -1 -1 221 1;
#N canvas 616 224 450 458 gnrtv_mod 0;
#N canvas 577 307 450 423 lorenzattractor 0;
#X obj 122 68 metro 50;
#X obj 122 44 tgl 15 0 empty empty empty 20 8 0 8 -262144 -1 -1 0 1
;
#X floatatom 173 43 5 0 0 0 - - -;
#X obj 122 131 lorenz;
#X floatatom 167 239 5 0 0 0 - - -;
#X msg 208 148 param 0.02 10 28 2.667;
#X text 98 20 Calculate;
#X text 206 115 Reset To Initial Conditions;
#X text 208 166 Modify Parameters;
#X floatatom 122 239 5 0 0 0 - - -;
#X floatatom 213 239 5 0 0 0 - - -;
#X text 151 212 Output;
#X msg 207 97 reset 0.1 0 0;
#X obj 54 43 loadbang;
#X obj 168 316 line;
#X obj 172 351 outlet;
#X msg 185 287 \$1 33333;
#X connect 0 0 3 0;
#X connect 1 0 0 0;
#X connect 2 0 0 1;
#X connect 3 0 9 0;
#X connect 3 1 4 0;
#X connect 3 2 10 0;
#X connect 4 0 16 0;
#X connect 5 0 3 0;
#X connect 12 0 3 0;
#X connect 13 0 0 0;
#X connect 13 0 12 0;
#X connect 14 0 15 0;
#X connect 16 0 14 0;
#X restore 97 39 pd lorenzattractor;
#X obj 107 67 abs;
#X obj 102 144 nbx 5 14 -1e+37 1e+37 0 0 empty empty empty 0 -8 0 10
-262144 -1 -1 0.21279 256;
#X obj 150 277 line;
#X obj 168 389 outlet;
#X obj 107 189 * 0.6;
#X msg 131 246 \$1 36000;
#X connect 0 0 1 0;
#X connect 1 0 2 0;
#X connect 2 0 5 0;
#X connect 3 0 4 0;
#X connect 5 0 6 0;
#X connect 6 0 3 0;
#X restore -6886 -17298 pd gnrtv_mod;
#X obj -6886 -17249 nbx 5 14 -1e+37 1e+37 0 0 empty empty empty 0 -8
0 10 -262144 -1 -1 0.0251007 256;
#X obj -6751 -17272 hsl 60 15 0 0.67 0 1 empty empty empty -2 -8 0
10 -262144 -1 -1 221 1;
#N canvas 616 224 450 458 gnrtv_mod 0;
#N canvas 577 307 450 423 lorenzattractor 0;
#X obj 122 68 metro 50;
#X obj 122 44 tgl 15 0 empty empty empty 20 8 0 8 -262144 -1 -1 0 1
;
#X floatatom 173 43 5 0 0 0 - - -;
#X obj 122 131 lorenz;
#X floatatom 167 239 5 0 0 0 - - -;
#X msg 208 148 param 0.02 10 28 2.667;
#X text 98 20 Calculate;
#X text 206 115 Reset To Initial Conditions;
#X text 208 166 Modify Parameters;
#X floatatom 122 239 5 0 0 0 - - -;
#X floatatom 213 239 5 0 0 0 - - -;
#X text 151 212 Output;
#X msg 207 97 reset 0.1 0 0;
#X obj 54 43 loadbang;
#X obj 168 316 line;
#X obj 172 351 outlet;
#X msg 185 287 \$1 33333;
#X connect 0 0 3 0;
#X connect 1 0 0 0;
#X connect 2 0 0 1;
#X connect 3 0 9 0;
#X connect 3 1 4 0;
#X connect 3 2 10 0;
#X connect 4 0 16 0;
#X connect 5 0 3 0;
#X connect 12 0 3 0;
#X connect 13 0 0 0;
#X connect 13 0 12 0;
#X connect 14 0 15 0;
#X connect 16 0 14 0;
#X restore 97 39 pd lorenzattractor;
#X obj 107 67 abs;
#X obj 102 144 nbx 5 14 -1e+37 1e+37 0 0 empty empty empty 0 -8 0 10
-262144 -1 -1 0.21279 256;
#X obj 150 277 line;
#X obj 168 389 outlet;
#X obj 107 189 * 0.6;
#X msg 131 246 \$1 36000;
#X connect 0 0 1 0;
#X connect 1 0 2 0;
#X connect 2 0 5 0;
#X connect 3 0 4 0;
#X connect 5 0 6 0;
#X connect 6 0 3 0;
#X restore -6794 -17293 pd gnrtv_mod;
#X obj -6794 -17244 nbx 5 14 -1e+37 1e+37 0 0 empty empty empty 0 -8
0 10 -262144 -1 -1 0.0251007 256;
#X obj -6779 -17189 nbx 5 14 -1e+37 1e+37 0 0 empty empty empty 0 -8
0 10 -262144 -1 -1 0.251007 256;
#X obj -6885 -17225 * 23;
#X obj -6793 -17220 * 10;
#X obj -7095 -17335 *~;
#X obj -7045 -17363 hsl 128 15 0 0.5 0 1 empty empty empty -2 -8 0
10 -262144 -1 -1 5100 1;
#N canvas 237 102 885 649 DualReverb 0;
#X obj 293 536 freeverb~;
#X msg 292 42 roomsize \$1;
#X msg 292 87 damping \$1;
#X msg 292 131 width \$1;
#X msg 292 175 wet \$1;
#X msg 292 219 dry \$1;
#X msg 326 242 print;
#X msg 345 281 freeze \$1;
#X msg 350 318 bypass \$1;
#X obj 350 299 tgl 15 0 empty empty empty 0 -6 0 8 -262144 -1 -1 0
1;
#X obj 345 262 tgl 15 0 empty empty empty 0 -6 0 8 -262144 -1 -1 0
1;
#X obj 304 196 hsl 60 18 0 1 0 1 empty empty dry 2 9 1 12 -225271 -1
-1 4200 0;
#X obj 304 152 hsl 60 18 0 1 0 1 empty empty wet 2 9 1 12 -225271 -1
-1 1300 0;
#X obj 304 108 hsl 60 18 0 1 0 1 empty empty width 2 9 1 12 -262131
-1 -1 5900 0;
#X obj 304 64 hsl 60 18 0 2 0 1 empty empty damping 2 9 1 12 -261689
-1 -1 1475 0;
#X obj 304 19 hsl 60 18 0.11 1.1 0 1 empty empty roomsize 2 9 1 12
-261689 -1 -1 5300 0;
#X floatatom 274 23 3 0 0 0 - - -;
#X floatatom 274 68 3 0 0 0 - - -;
#X floatatom 274 113 3 0 0 0 - - -;
#X floatatom 274 156 3 0 0 0 - - -;
#X floatatom 274 200 3 0 0 0 - - -;
#X obj 14 307 inlet~;
#X obj 70 311 inlet~;
#X obj 477 584 freeverb~;
#X msg 476 90 roomsize \$1;
#X msg 476 135 damping \$1;
#X msg 476 179 width \$1;
#X msg 476 223 wet \$1;
#X msg 476 267 dry \$1;
#X msg 510 290 print;
#X msg 529 329 freeze \$1;
#X msg 534 366 bypass \$1;
#X obj 534 347 tgl 15 0 empty empty empty 0 -6 0 8 -262144 -1 -1 0
1;
#X obj 529 310 tgl 15 0 empty empty empty 0 -6 0 8 -262144 -1 -1 0
1;
#X obj 488 244 hsl 60 18 0 1 0 1 empty empty dry 2 9 1 12 -225271 -1
-1 4200 0;
#X obj 488 200 hsl 60 18 0 1 0 1 empty empty wet 2 9 1 12 -225271 -1
-1 1300 0;
#X obj 488 156 hsl 60 18 0 1 0 1 empty empty width 2 9 1 12 -262131
-1 -1 5900 0;
#X obj 488 112 hsl 60 18 0 2 0 1 empty empty damping 2 9 1 12 -261689
-1 -1 1475 0;
#X obj 488 67 hsl 60 18 0.11 1.1 0 1 empty empty roomsize 2 9 1 12
-261689 -1 -1 5300 0;
#X floatatom 458 71 3 0 0 0 - - -;
#X floatatom 458 116 3 0 0 0 - - -;
#X floatatom 458 161 3 0 0 0 - - -;
#X floatatom 458 204 3 0 0 0 - - -;
#X floatatom 458 248 3 0 0 0 - - -;
#X obj 117 33 inlet;
#X obj 121 68 inlet;
#X obj 143 102 inlet;
#X obj 155 136 inlet;
#X obj 170 170 inlet;
#X obj 191 209 inlet;
#X obj 515 658 *~;
#X obj 459 654 *~;
#X obj 649 566 hsl 128 15 0 1 0 0 empty empty empty -2 -8 0 10 -262144
-1 -1 3603 1;
#X obj 448 692 outlet~;
#X obj 504 696 outlet~;
#X obj 677 514 inlet;
#X connect 0 0 23 0;
#X connect 0 1 23 1;
#X connect 1 0 0 0;
#X connect 2 0 0 0;
#X connect 3 0 0 0;
#X connect 4 0 0 0;
#X connect 5 0 0 0;
#X connect 6 0 0 0;
#X connect 7 0 0 0;
#X connect 8 0 0 0;
#X connect 9 0 8 0;
#X connect 10 0 7 0;
#X connect 11 0 5 0;
#X connect 11 0 20 0;
#X connect 11 0 34 0;
#X connect 12 0 4 0;
#X connect 12 0 19 0;
#X connect 12 0 35 0;
#X connect 13 0 3 0;
#X connect 13 0 18 0;
#X connect 13 0 36 0;
#X connect 14 0 2 0;
#X connect 14 0 17 0;
#X connect 14 0 37 0;
#X connect 15 0 1 0;
#X connect 15 0 16 0;
#X connect 15 0 38 0;
#X connect 21 0 0 0;
#X connect 22 0 0 1;
#X connect 23 0 51 0;
#X connect 23 1 50 0;
#X connect 24 0 23 0;
#X connect 25 0 23 0;
#X connect 26 0 23 0;
#X connect 27 0 23 0;
#X connect 28 0 23 0;
#X connect 29 0 23 0;
#X connect 30 0 23 0;
#X connect 31 0 23 0;
#X connect 32 0 31 0;
#X connect 33 0 30 0;
#X connect 34 0 28 0;
#X connect 34 0 43 0;
#X connect 35 0 27 0;
#X connect 35 0 42 0;
#X connect 36 0 26 0;
#X connect 36 0 41 0;
#X connect 37 0 25 0;
#X connect 37 0 40 0;
#X connect 38 0 24 0;
#X connect 38 0 39 0;
#X connect 44 0 15 0;
#X connect 45 0 14 0;
#X connect 46 0 13 0;
#X connect 47 0 12 0;
#X connect 48 0 11 0;
#X connect 49 0 10 0;
#X connect 50 0 54 0;
#X connect 51 0 53 0;
#X connect 52 0 50 1;
#X connect 52 0 51 1;
#X connect 55 0 52 0;
#X restore -7483 -17248 pd DualReverb;
#X obj -7245 -17242 hsl 55 15 0 0.333 0 1 empty empty empty -2 -8 0
10 -262144 -1 -1 4600 1;
#X obj -7323 -17266 hsl 60 18 0 1 0 1 empty empty dry 2 9 1 12 -262144
-1 -1 4200 0;
#X obj -7324 -17291 hsl 60 18 0 1 0 1 empty empty wet 2 9 1 12 -262144
-1 -1 1300 0;
#X obj -7323 -17315 hsl 60 18 0 1 0 1 empty empty width 2 9 1 12 -262144
-1 -1 5900 0;
#X obj -7323 -17340 hsl 60 18 0 2 0 1 empty empty damping 2 9 1 12
-262144 -1 -1 1475 0;
#X obj -7323 -17365 hsl 60 18 0.11 1.1 0 1 empty empty roomsize 2 9
1 12 -262144 -1 -1 5300 0;
#X msg -8111 -17606 36;
#X msg -7332 -17528 8888;
#X msg -7290 -17527 1111;
#X obj -7095 -17307 *~;
#X obj -7045 -17335 hsl 128 15 0 0.5 0 1 empty empty empty -2 -8 0
10 -262144 -1 -1 1400 1;
#X obj -6978 -17630 t b f;
#X obj -7054 -17658 hradio 23 1 1 8 empty empty empty 0 -8 0 10 -262144
-1 -1 1;
#X obj -6979 -17602 *;
#X obj -6967 -17571 nbx 5 14 -1e+37 1e+37 0 0 empty empty empty 0 -8
0 10 -262144 -1 -1 2222 256;
#X obj -6842 -17594 t b f;
#X obj -6917 -17624 hradio 23 1 1 8 empty empty empty 0 -8 0 10 -262144
-1 -1 1;
#X obj -6842 -17568 *;
#X obj -6830 -17537 nbx 5 14 -1e+37 1e+37 0 0 empty empty empty 0 -8
0 10 -262144 -1 -1 1 256;
#X obj -8171 -17723 loadbang;
#X msg -8159 -17694 0;
#X msg -8205 -17703 1;
#X obj -7300 -17495 osc~ 1111;
#X obj -7584 -17323 *~;
#X floatatom -7543 -17438 5 0 0 0 - - -;
#X floatatom -7517 -17416 5 0 0 0 - - -;
#X obj -7603 -17426 bng 15 250 50 0 empty empty empty 0 -6 0 8 -262144
-1 -1;
#X obj -7526 -17359 *~;
#X obj -7476 -17387 hsl 128 15 0 0.5 0 1 empty empty empty -2 -8 0
10 -262144 -1 -1 6096 1;
#X obj -7568 -17391 ead~ 3 9;
#X obj -7657 -17351 osc~ 1111;
#X obj -7764 -17401 t b f;
#X obj -7839 -17431 hradio 23 1 1 8 empty empty empty 0 -8 0 10 -262144
-1 -1 1;
#X obj -7764 -17375 *;
#X obj -7752 -17344 nbx 5 14 -1e+37 1e+37 0 0 empty empty empty 0 -8
0 10 -262144 -1 -1 27.7 256;
#X msg -7816 -17394 27.7;
#X obj -7722 -17232 t b f;
#X obj -8045 -17197 hradio 23 1 1 8 empty empty empty 0 -8 0 10 -262144
-1 -1 6;
#X obj -7723 -17204 *;
#X obj -7711 -17173 nbx 5 14 -1e+37 1e+37 0 0 empty empty empty 0 -8
0 10 -262144 -1 -1 720 256;
#X msg -7775 -17223 120;
#X obj -8036 -17331 sel 0 1 2 3 4 5 6 7;
#X msg -8067 -17280 0;
#X msg -8040 -17280 1;
#X msg -8008 -17280 2;
#X msg -7981 -17280 3;
#X msg -7950 -17281 4;
#X msg -7918 -17281 5;
#X msg -7891 -17281 6;
#X msg -7861 -17281 7;
#X obj -7873 -17120 * 0.04;
#X obj -7917 -17760 r trigger36sT;
#X obj -8097 -17679 + 0;
#X msg -8142 -17520 set \$1;
#X obj -8204 -17427 t b f;
#X obj -8280 -17455 hradio 23 1 1 8 empty empty empty 0 -8 0 10 -262144
-1 -1 1;
#X obj -8205 -17399 *;
#X obj -8193 -17368 nbx 5 14 -1e+37 1e+37 0 0 empty empty empty 0 -8
0 10 -262144 -1 -1 27.7 256;
#X msg -8257 -17418 27.7;
#X msg -7635 -17390 0.25;
#X obj -8204 -17301 t b f;
#X obj -8280 -17329 hradio 23 1 1 8 empty empty empty 0 -8 0 10 -262144
-1 -1 1;
#X obj -8205 -17273 *;
#X obj -8193 -17242 nbx 5 14 -1e+37 1e+37 0 0 empty empty empty 0 -8
0 10 -262144 -1 -1 36 256;
#X msg -8257 -17292 36;
#X obj -7077 -17214 r tempsdelai;
#X obj -7063 -17185 / 1000;
#X obj -7076 -17163 nbx 5 14 -1e+37 1e+37 0 0 empty empty empty 0 -8
0 10 -262144 -1 -1 90.1518 256;
#X obj -7100 -17111 line;
#X msg -7103 -17137 \$1 1111;
#X msg -6894 -17587 1;
#X obj -7009 -17696 random 6;
#X obj -7637 -17119 * 0.05;
#X obj -7319 -17228 tgl 15 0 empty empty empty 17 7 0 10 -262144 -1
-1 0 1;
#X msg -7037 -17621 2222;
#X obj -8322 -17743 s startstopMicro;
#X obj -7210 -17124 throw~ mikroDD;
#X obj -7248 -17101 throw~ mikroEE;
#X connect 0 0 2 0;
#X connect 0 0 13 0;
#X connect 3 0 0 0;
#X connect 4 0 0 0;
#X connect 5 0 0 0;
#X connect 6 0 87 0;
#X connect 6 1 8 1;
#X connect 7 0 6 0;
#X connect 7 0 93 0;
#X connect 8 0 9 0;
#X connect 9 0 0 0;
#X connect 9 0 27 0;
#X connect 11 0 10 0;
#X connect 11 0 133 0;
#X connect 14 0 156 0;
#X connect 15 0 11 0;
#X connect 22 0 17 0;
#X connect 23 0 18 0;
#X connect 24 0 19 0;
#X connect 25 0 20 0;
#X connect 26 0 21 0;
#X connect 28 0 32 0;
#X connect 29 0 48 1;
#X connect 30 0 48 2;
#X connect 31 0 48 0;
#X connect 31 0 49 1;
#X connect 32 0 49 0;
#X connect 32 0 80 0;
#X connect 32 0 80 1;
#X connect 32 0 158 0;
#X connect 32 0 157 0;
#X connect 33 0 32 1;
#X connect 34 0 44 0;
#X connect 34 0 152 0;
#X connect 35 0 107 0;
#X connect 39 0 34 0;
#X connect 40 0 35 0;
#X connect 41 0 36 0;
#X connect 42 0 37 0;
#X connect 43 0 38 0;
#X connect 44 0 45 0;
#X connect 45 0 31 0;
#X connect 46 0 47 0;
#X connect 47 0 28 0;
#X connect 48 0 28 1;
#X connect 49 0 50 0;
#X connect 50 0 78 0;
#X connect 50 0 158 0;
#X connect 50 0 157 0;
#X connect 51 0 50 1;
#X connect 52 0 158 0;
#X connect 52 1 157 0;
#X connect 53 0 54 0;
#X connect 53 0 52 1;
#X connect 56 0 68 0;
#X connect 70 0 69 0;
#X connect 70 0 71 0;
#X connect 71 0 76 0;
#X connect 73 0 72 0;
#X connect 73 0 74 0;
#X connect 74 0 77 0;
#X connect 76 0 57 0;
#X connect 77 0 66 0;
#X connect 77 0 75 0;
#X connect 78 0 52 0;
#X connect 79 0 78 1;
#X connect 80 0 158 0;
#X connect 80 1 90 0;
#X connect 80 1 157 0;
#X connect 81 0 80 8;
#X connect 82 0 80 6;
#X connect 83 0 80 5;
#X connect 84 0 80 4;
#X connect 85 0 80 3;
#X connect 86 0 80 2;
#X connect 87 0 8 0;
#X connect 88 0 103 0;
#X connect 89 0 103 0;
#X connect 90 0 52 0;
#X connect 91 0 90 1;
#X connect 92 0 155 0;
#X connect 92 1 94 1;
#X connect 93 0 92 0;
#X connect 93 0 97 0;
#X connect 93 0 113 0;
#X connect 94 0 95 0;
#X connect 95 0 103 0;
#X connect 96 0 151 0;
#X connect 96 1 98 1;
#X connect 97 0 96 0;
#X connect 98 0 99 0;
#X connect 99 0 30 0;
#X connect 99 0 29 0;
#X connect 100 0 101 0;
#X connect 100 0 102 0;
#X connect 101 0 7 0;
#X connect 102 0 14 0;
#X connect 103 0 28 0;
#X connect 104 0 108 0;
#X connect 105 0 110 1;
#X connect 106 0 110 2;
#X connect 107 0 110 0;
#X connect 107 0 140 0;
#X connect 108 0 158 0;
#X connect 109 0 108 1;
#X connect 110 0 104 1;
#X connect 111 0 104 0;
#X connect 112 0 116 0;
#X connect 112 1 114 1;
#X connect 113 0 112 0;
#X connect 113 0 122 0;
#X connect 114 0 115 0;
#X connect 115 0 111 0;
#X connect 116 0 114 0;
#X connect 117 0 121 0;
#X connect 117 1 119 1;
#X connect 118 0 117 0;
#X connect 118 0 131 0;
#X connect 118 0 153 0;
#X connect 119 0 120 0;
#X connect 120 0 106 0;
#X connect 120 0 105 0;
#X connect 121 0 119 0;
#X connect 122 0 130 0;
#X connect 122 1 129 0;
#X connect 122 2 128 0;
#X connect 122 3 127 0;
#X connect 122 4 126 0;
#X connect 122 5 125 0;
#X connect 122 6 124 0;
#X connect 122 7 123 0;
#X connect 123 0 118 0;
#X connect 124 0 118 0;
#X connect 125 0 118 0;
#X connect 126 0 118 0;
#X connect 127 0 118 0;
#X connect 128 0 118 0;
#X connect 129 0 118 0;
#X connect 130 0 118 0;
#X connect 131 0 109 0;
#X connect 133 0 7 0;
#X connect 134 0 87 0;
#X connect 135 0 139 0;
#X connect 135 1 137 1;
#X connect 136 0 135 0;
#X connect 137 0 138 0;
#X connect 138 0 134 0;
#X connect 139 0 137 0;
#X connect 140 0 111 1;
#X connect 141 0 145 0;
#X connect 141 1 143 1;
#X connect 142 0 141 0;
#X connect 143 0 144 0;
#X connect 144 0 134 0;
#X connect 145 0 143 0;
#X connect 146 0 147 0;
#X connect 146 0 148 0;
#X connect 148 0 150 0;
#X connect 149 0 59 0;
#X connect 150 0 149 0;
#X connect 151 0 98 0;
#X connect 153 0 33 0;
#X connect 154 0 80 7;
#X connect 155 0 94 0;
#X restore -7248 -17090 pd micro-_-;
#X connect 0 0 6 0;
#X connect 1 0 6 1;
#X connect 1 0 5 1;
#X connect 2 0 1 0;
#X connect 2 0 3 0;
#X connect 4 0 5 0;
#X connect 5 0 7 1;
#X connect 6 0 7 0;
