#N canvas 318 160 357 189 10;
#X obj -1694 -15865 dac~;
#X obj -1767 -15918 r~ MNMLEEE;
#X obj -1672 -15973 r~ MNMLDDD;
#N canvas 0 53 1366 715 MNMLTech-_- 1;
#X obj -2862 -17372 nbx 4 24 -1e+37 1e+37 0 0 empty timemaster empty
0 -8 0 55 -262144 -1 -1 565.333 256;
#X obj -2806 -17249 nbx 5 14 -1e+37 1e+37 0 0 empty empty empty 0 -8
0 10 -262144 -1 -1 240 256;
#N canvas 0 0 450 300 (subpatch) 0;
#X array dna 712 float 3;
#A 0 3 3 1 3 1 4 2 3 1 3 4 4 2 3 1 2 4 3 2 1 3 4 1 3 4 4 2 1 4 2 1
2 2 4 2 3 1 3 4 2 2 3 1 1 4 3 1 1 3 1 2 3 1 3 1 1 3 3 3 3 1 1 3 1 1
1 4 4 3 1 2 3 1 1 3 1 1 3 1 1 3 1 1 1 1 3 4 1 3 4 3 1 3 1 3 1 3 1 2
3 2 3 3 4 2 1 1 3 3 3 1 2 2 3 1 1 3 1 4 1 4 2 3 1 4 2 1 4 2 2 4 3 1
4 4 1 2 2 1 1 1 1 3 3 3 2 2 2 1 2 2 4 2 3 2 2 1 4 2 3 1 3 1 1 1 2 4
1 4 2 2 1 2 3 1 2 3 4 1 3 3 3 1 4 2 3 4 2 3 3 2 1 3 2 3 4 4 4 4 4 4
4 2 4 4 4 4 4 2 4 4 4 4 4 4 4 4 4 1 1 1 1 2 4 4 4 2 2 3 1 1 4 1 3 4
3 4 4 4 2 3 4 2 3 4 3 4 3 4 2 2 2 4 2 2 2 2 2 2 3 4 4 3 2 4 2 3 3 3
3 1 4 2 3 3 4 3 3 4 3 2 4 3 2 3 2 3 4 1 2 3 4 1 4 1 4 1 1 1 1 1 3 3
3 2 2 3 3 2 3 1 2 4 4 4 3 3 4 4 1 2 2 3 1 1 3 1 1 3 1 1 3 3 1 3 3 1
3 1 1 3 3 3 1 1 3 1 1 1 1 3 1 3 3 1 3 1 3 1 4 2 3 3 1 4 1 4 1 4 2 3
1 4 3 1 3 2 3 4 1 3 3 1 3 3 3 1 3 3 1 1 4 2 3 1 3 3 3 3 3 1 1 3 3 3
1 1 4 2 3 3 3 3 4 4 4 2 3 3 2 1 1 3 3 3 4 4 4 4 4 4 2 3 1 1 1 2 3 2
3 1 1 3 3 4 1 3 3 4 4 4 1 2 3 3 3 1 1 4 2 3 1 4 3 2 3 4 3 3 2 2 2 2
2 1 4 3 3 4 4 3 3 4 2 3 2 4 4 4 4 3 4 2 1 1 3 4 1 4 1 4 1 4 1 3 1 4
2 3 1 1 4 3 4 3 4 2 3 3 1 2 3 2 4 4 3 1 2 4 2 3 3 3 3 1 4 4 4 3 1 1
1 2 4 4 1 1 2 2 2 4 3 2 3 2 1 1 2 3 3 3 2 4 1 4 3 1 4 2 3 3 4 4 3 1
1 2 3 1 4 2 3 1 4 4 4 2 4 2 4 4 4 4 4 4 2 2 2 2 2 2 3 2 3 1 3 2 1 4
4 4 2 3 3 4 3 1 1 1 1 1 4 4 4 2 2 1 2 3 4 3 1 1 1 4 4 3 2 2 3 3 1 4
2 3 1 4 1 2 3 2 4 4 2 3 4 1 4 4 2 3 4 1 4 2 3 1 2 2 4 1 4 4 4 2 3 1
4 2 2 3 1 4 4 2 1 1 1 1 4 1 4 2 3 2 3 2 1 2 3 4 4 3 1 4 4 3 4 4 1 2
1;
#X coords 0 5 712 0 787 222 1 0 0;
#X restore -2600 -17355 graph;
#X obj -2768 -17219 s timeDNA;
#X obj -2442 -17043 loadbang;
#X msg -2441 -17080 \; dna read BeeDNA+.txt;
#X msg -2442 -17023 \; dna write BeeDNA+.txt;
#X obj -2841 -17184 metro;
#X obj -2876 -17212 loadbang;
#X obj -2872 -17182 bng 15 250 50 0 empty empty empty 17 7 0 10 -262144
-1 -1;
#X obj -2188 -17091 cnv 15 88 60 empty empty A 20 12 0 34 -233017 -66577
0;
#X obj -2077 -17091 cnv 15 88 60 empty empty C 20 12 0 34 -233017 -66577
0;
#X obj -1963 -17091 cnv 15 88 60 empty empty G 20 12 0 34 -233017 -66577
0;
#X obj -1848 -17090 cnv 15 88 60 empty empty T 20 12 0 34 -233017 -66577
0;
#X obj -2188 -17047 tgl 89 1 empty empty melodia&txarles 0 -7 0 10
-228856 -1 -1 1 1;
#X obj -2076 -17047 tgl 89 1 empty empty snarekikk&bubbles 0 -7 0 10
-260097 -1 -1 0 1;
#X obj -1963 -17047 tgl 89 1 empty empty kikk_beat 0 -7 0 10 -262144
-1 -1 0 1;
#X obj -1849 -17047 tgl 89 1 empty empty melodia2 0 -7 0 10 -33289
-260097 -1 0 1;
#N canvas 0 125 1216 623 SeqDNA 0;
#X obj 100 85 hradio 23 1 1 5 empty empty empty 0 -8 0 10 -262144 -1
-1 1;
#X obj 86 24 r valuedna;
#X msg 106 179 1;
#X msg 136 178 0;
#X obj 128 136 sel 1;
#X obj 115 213 tgl 15 0 empty empty empty 17 7 0 10 -262144 -1 -1 1
1;
#X msg 176 180 1;
#X msg 206 179 0;
#X obj 185 214 tgl 15 0 empty empty empty 17 7 0 10 -262144 -1 -1 0
1;
#X obj 198 137 sel 2;
#X msg 252 180 1;
#X msg 282 179 0;
#X obj 261 214 tgl 15 0 empty empty empty 17 7 0 10 -262144 -1 -1 0
1;
#X msg 322 181 1;
#X msg 352 180 0;
#X obj 331 215 tgl 15 0 empty empty empty 17 7 0 10 -262144 -1 -1 0
1;
#X obj 274 137 sel 3;
#X obj 344 138 sel 4;
#X obj 134 57 spigot;
#X obj 196 36 inlet;
#X obj 437 519 outlet;
#X obj 494 520 outlet;
#X obj 555 520 outlet;
#X obj 612 521 outlet;
#X obj 517 318 spigot;
#X obj 579 297 inlet;
#X obj 428 317 spigot;
#X obj 522 283 inlet;
#X obj 289 307 spigot;
#X obj 351 286 inlet;
#X obj 200 306 spigot;
#X obj 274 259 inlet;
#X obj 781 183 hradio 15 1 0 8 empty empty empty 0 -8 0 10 -262144
-1 -1 0;
#X obj 656 20 keyname;
#X symbolatom 642 68 10 0 0 0 - - -;
#X msg 706 122 0;
#X msg 737 122 1;
#X msg 770 122 2;
#X msg 801 122 3;
#X obj 713 86 sel a c g t;
#X obj 639 405 spigot;
#X obj 631 337 keyname;
#X symbolatom 695 356 10 0 0 0 - - -;
#X obj 686 378 sel a;
#X obj 637 434 tgl 15 0 empty empty empty 17 7 0 10 -262144 -1 -1 1
1;
#X obj 749 390 spigot;
#X obj 741 322 keyname;
#X symbolatom 805 341 10 0 0 0 - - -;
#X obj 747 419 tgl 15 0 empty empty empty 17 7 0 10 -262144 -1 -1 0
1;
#X obj 863 376 spigot;
#X obj 855 308 keyname;
#X symbolatom 919 327 10 0 0 0 - - -;
#X obj 861 405 tgl 15 0 empty empty empty 17 7 0 10 -262144 -1 -1 0
1;
#X obj 973 361 spigot;
#X obj 965 293 keyname;
#X symbolatom 1029 312 10 0 0 0 - - -;
#X obj 971 390 tgl 15 0 empty empty empty 17 7 0 10 -262144 -1 -1 0
1;
#X obj 796 363 sel c;
#X obj 910 349 sel g;
#X obj 1020 334 sel t;
#X obj 492 192 loadbang;
#X msg 479 215 1;
#X obj 871 534 spigot;
#X obj 863 466 keyname;
#X symbolatom 927 485 10 0 0 0 - - -;
#X obj 869 563 tgl 15 0 empty empty empty 17 7 0 10 -262144 -1 -1 0
1;
#X obj 919 577 s freeze1-;
#X obj 918 507 sel Home;
#X obj 1044 507 spigot;
#X obj 1036 439 keyname;
#X symbolatom 1100 458 10 0 0 0 - - -;
#X obj 1042 536 tgl 15 0 empty empty empty 17 7 0 10 -262144 -1 -1
0 1;
#X obj 1092 550 s freeze2-;
#X obj 1091 480 sel End;
#X obj 44 128 nbx 5 14 -1e+37 1e+37 0 0 empty empty empty 0 -8 0 10
-262144 -1 -1 1 256;
#X obj 689 286 bng 15 250 50 0 empty empty empty 17 7 0 10 -262144
-1 -1;
#X obj 792 279 bng 15 250 50 0 empty empty empty 17 7 0 10 -262144
-1 -1;
#X obj 916 262 bng 15 250 50 0 empty empty empty 17 7 0 10 -262144
-1 -1;
#X obj 1032 247 bng 15 250 50 0 empty empty empty 17 7 0 10 -262144
-1 -1;
#X obj 675 256 r aaaa;
#X obj 781 247 r cccc;
#X obj 904 229 r gggg;
#X obj 1020 219 r tttt;
#X connect 0 0 4 0;
#X connect 0 0 9 0;
#X connect 0 0 17 0;
#X connect 0 0 16 0;
#X connect 0 0 74 0;
#X connect 1 0 18 0;
#X connect 2 0 5 0;
#X connect 3 0 5 0;
#X connect 4 0 2 0;
#X connect 4 1 3 0;
#X connect 5 0 30 0;
#X connect 6 0 8 0;
#X connect 7 0 8 0;
#X connect 8 0 28 0;
#X connect 9 0 6 0;
#X connect 9 1 7 0;
#X connect 10 0 12 0;
#X connect 11 0 12 0;
#X connect 12 0 26 0;
#X connect 13 0 15 0;
#X connect 14 0 15 0;
#X connect 15 0 24 0;
#X connect 16 0 10 0;
#X connect 16 1 11 0;
#X connect 17 0 13 0;
#X connect 17 1 14 0;
#X connect 18 0 0 0;
#X connect 19 0 18 1;
#X connect 24 0 23 0;
#X connect 25 0 24 1;
#X connect 26 0 22 0;
#X connect 27 0 26 1;
#X connect 28 0 21 0;
#X connect 29 0 28 1;
#X connect 30 0 20 0;
#X connect 31 0 30 1;
#X connect 33 1 34 0;
#X connect 34 0 39 0;
#X connect 35 0 32 0;
#X connect 36 0 32 0;
#X connect 37 0 32 0;
#X connect 38 0 32 0;
#X connect 39 0 35 0;
#X connect 39 1 36 0;
#X connect 39 2 37 0;
#X connect 39 3 38 0;
#X connect 40 0 44 0;
#X connect 41 0 40 1;
#X connect 41 1 42 0;
#X connect 42 0 43 0;
#X connect 43 0 40 0;
#X connect 44 0 20 0;
#X connect 45 0 48 0;
#X connect 46 0 45 1;
#X connect 46 1 47 0;
#X connect 47 0 57 0;
#X connect 48 0 21 0;
#X connect 49 0 52 0;
#X connect 50 0 49 1;
#X connect 50 1 51 0;
#X connect 51 0 58 0;
#X connect 52 0 22 0;
#X connect 53 0 56 0;
#X connect 54 0 53 1;
#X connect 54 1 55 0;
#X connect 55 0 59 0;
#X connect 56 0 23 0;
#X connect 57 0 45 0;
#X connect 58 0 49 0;
#X connect 59 0 53 0;
#X connect 60 0 61 0;
#X connect 61 0 30 1;
#X connect 61 0 28 1;
#X connect 61 0 26 1;
#X connect 61 0 24 1;
#X connect 62 0 65 0;
#X connect 63 0 62 1;
#X connect 63 1 64 0;
#X connect 64 0 67 0;
#X connect 65 0 66 0;
#X connect 67 0 62 0;
#X connect 68 0 71 0;
#X connect 69 0 68 1;
#X connect 69 1 70 0;
#X connect 70 0 73 0;
#X connect 71 0 72 0;
#X connect 73 0 68 0;
#X connect 75 0 43 0;
#X connect 75 0 40 0;
#X connect 76 0 57 0;
#X connect 76 0 45 0;
#X connect 77 0 58 0;
#X connect 77 0 49 0;
#X connect 78 0 59 0;
#X connect 78 0 53 0;
#X connect 79 0 44 0;
#X connect 80 0 48 0;
#X connect 81 0 52 0;
#X connect 82 0 56 0;
#X restore -2259 -17064 pd SeqDNA;
#X obj -2259 -17108 tgl 34 1 empty empty automuteDNA 0 -8 0 10 -261441
-1 -1 8 8;
#X obj -2837 -17096 tabread dna;
#X obj -2799 -17150 counter 15;
#X obj -2827 -17074 nbx 5 14 -1e+37 1e+37 0 0 empty empty empty 0 -8
0 10 -262144 -1 -1 1 256;
#X obj -2818 -16844 t b f;
#X obj -2788 -16874 hradio 15 1 0 8 empty empty empty 0 -8 0 10 -262144
-1 -1 1;
#X obj -2806 -16793 *;
#X obj -2600 -16839 t b f;
#X obj -2570 -16869 hradio 15 1 0 8 empty empty empty 0 -8 0 10 -262144
-1 -1 1;
#X obj -2588 -16788 *;
#X obj -2663 -16558 *~;
#X obj -2635 -16694 metro;
#X floatatom -2699 -16622 5 0 0 0 - - -;
#X floatatom -2610 -16670 5 0 0 0 - - -;
#X floatatom -2530 -16712 5 0 0 0 - - -;
#X obj -2670 -16658 bng 15 250 50 0 empty empty empty 0 -6 0 8 -262144
-1 -1;
#X obj -2881 -17142 s ttriggerDNA;
#X obj -2670 -16736 r ttriggerDNA;
#X obj -2768 -16749 nbx 5 14 -1e+37 1e+37 0 0 empty empty empty 0 -8
0 10 -262144 -1 -1 18 256;
#X obj -2635 -16623 ead~ 2 0;
#X obj -2609 -16356 *~;
#X obj -2524 -16414 hsl 128 15 0 0.8 0 1 empty empty empty -2 -8 0
10 -262144 -1 -1 6350 1;
#X obj -2882 -16955 s valuedna;
#X msg -2724 -17091 3;
#X msg -2692 -17095 5;
#X msg -2658 -17094 7;
#X msg -2695 -17059 15;
#X msg -2659 -17059 31;
#X msg -2623 -17059 11;
#X msg -2633 -16805 18;
#X obj -2318 -16773 sel 0 1 2 3 4 5 6;
#X obj -2326 -16682 hradio 15 1 0 8 empty empty empty 0 -8 0 10 -262144
-1 -1 4;
#X msg -2356 -16737 5;
#X msg -2327 -16736 4;
#X msg -2296 -16735 3;
#X msg -2267 -16734 2;
#X msg -2237 -16731 1;
#X msg -2208 -16730 0;
#X obj -2386 -16809 hradio 15 1 0 8 empty empty empty 0 -8 0 10 -262144
-1 -1 1;
#X obj -2339 -16643 * 0.1;
#X obj -2781 -16659 line;
#X msg -2797 -16704 \$1 \$1;
#X obj -2521 -16740 line;
#X msg -2532 -16766 \$1 \$1;
#X obj -2913 -17109 nbx 5 14 -1e+37 1e+37 0 0 empty empty empty 0 -8
0 10 -262144 -1 -1 10 256;
#X msg -2876 -17297 960;
#X obj -1910 -16904 hradio 15 1 0 8 empty empty empty 0 -8 0 10 -262144
-1 -1 3;
#X obj -1940 -16874 sel 0 1 2 3 4 5;
#X obj -2143 -16859 spigot;
#X obj -2107 -16888 tgl 15 0 empty empty empty 17 7 0 10 -262144 -1
-1 0 1;
#X msg -2712 -16694 0.25;
#X obj -2083 -16702 t b f;
#X obj -2053 -16732 hradio 15 1 0 8 empty empty empty 0 -8 0 10 -262144
-1 -1 1;
#X obj -2071 -16651 *;
#X floatatom -2013 -16575 5 0 0 0 - - -;
#X obj -2004 -16603 line;
#X msg -2015 -16629 \$1 \$1;
#X msg -2116 -16668 30;
#N canvas 0 81 1351 687 delai+ 0;
#X msg 844 47 \; pd dsp 1;
#X msg 910 47 \; pd dsp 0;
#X obj 843 18 loadbang;
#X obj 843 18 loadbang;
#X obj 313 330 hsl 128 15 0 4000 0 1 empty delay4000 temps_delai 10
8 1 10 -262144 -1 -1 762 1;
#X obj 218 345 sig~;
#X obj 160 297 *~;
#X obj 308 282 hsl 128 15 0 1 0 1 empty reinjection reinjection 10
7 1 10 -262144 -1 -1 11875 1;
#X obj 313 306 hsl 128 15 0 500 0 1 empty delay500 temps_delai 10 8
1 10 -262144 -1 -1 12648 1;
#X obj 149 513 outlet~;
#X obj 7 -21 inlet~;
#X text 701 407 .::.multieffets : realise par le 'doob' de D'gepeto.::.
;
#X floatatom 391 373 5 0 0 0 - - autodelay1;
#X text 190 92 .:::.:..::. x!;
#X text 702 383 .:::...::merci beaucoup a dgepeto! je t'aime \; ).:::..
;
#X obj 314 98 bng 23 250 50 0 empty empty empty 17 7 0 10 -1 -262144
-262144;
#X obj 343 247 line;
#X obj 386 117 pipe;
#X msg 367 216 0 \$1;
#X obj 373 158 nbx 5 14 -1e+37 1e+37 0 0 empty empty empty 0 -8 0 10
-262144 -1 -1 60 256;
#X obj 372 137 bng 15 250 50 0 empty empty empty 17 7 0 10 -262144
-1 -1;
#X obj 666 163 t b f;
#X obj 573 180 nbx 5 14 -1e+37 1e+37 0 0 empty empty empty 0 -8 0 10
-262144 -1 -1 120 256;
#X obj 703 128 hradio 15 1 0 8 empty empty empty 0 -8 0 10 -262144
-1 -1 1;
#X obj 700 49 counter 3;
#X obj 703 72 nbx 5 14 -1e+37 1e+37 0 0 empty empty empty 0 -8 0 10
-262144 -1 -1 3 256;
#X obj 578 22 bng 23 250 50 0 empty empty empty 17 7 0 10 -1 -262144
-262144;
#X obj 704 312 sel 0;
#X obj 494 304 hsl 128 15 11 4000 0 1 empty delay4000 temps_delai 10
8 1 10 -262144 -1 -1 729 1;
#X floatatom 640 319 5 0 0 0 - - autodelay1;
#X obj 503 271 hradio 15 1 0 21 empty empty empty 0 -8 0 10 -262144
-1 -1 0;
#X obj -135 75 r masterSEQ;
#X obj 646 -33 bng 55 250 50 1 empty empty empty 17 7 0 10 -1 -262144
-1;
#X obj 712 151 + 1;
#X obj 487 -131 t b f;
#X obj 394 -114 nbx 5 14 -1e+37 1e+37 0 0 empty empty empty 0 -8 0
10 -262144 -1 -1 120 256;
#X obj 524 -166 hradio 15 1 0 8 empty empty empty 0 -8 0 10 -262144
-1 -1 1;
#X obj 533 -143 + 1;
#X obj 470 -8 nbx 5 14 -1e+37 1e+37 0 0 empty empty empty 0 -8 0 10
-262144 -1 -1 60 256;
#X obj 323 -116 / 2;
#X obj 565 -82 counter 5;
#X obj 747 -60 inlet;
#X obj 80 -153 nbx 4 24 -1e+37 1e+37 0 1 empty timeDNA empty 0 -8 0
55 -262144 -1 -1 240 256;
#X msg 589 357 0.3;
#X msg 626 368 0.4;
#X obj 634 239 /;
#X obj 656 -170 r valuedna;
#X obj 756 -99 r valuedna;
#X obj 455 -55 /;
#X obj 160 242 delwrite~ delayTriaddna 3000;
#X obj 219 396 vd~ delayTriaddna;
#X obj 220 436 *~ 0.7;
#X obj 223 152 r rangedna+;
#X obj 972 150 t b f;
#X obj 879 167 nbx 5 14 -1e+37 1e+37 0 0 empty empty empty 0 -8 0 10
-262144 -1 -1 120 256;
#X obj 1009 115 hradio 15 1 0 8 empty empty empty 0 -8 0 10 -262144
-1 -1 1;
#X obj 1018 138 + 1;
#X obj 940 226 *;
#X obj 1013 81 r valuedna;
#X obj 285 189 / 3;
#X msg 916 187 120;
#X msg 852 191 set \$1;
#X msg 321 138 0.99;
#X obj 390 184 * 6;
#X obj 78 34 hip~;
#X obj 84 59 hip~;
#X obj 93 81 hip~;
#X obj 99 106 hip~;
#X obj 137 30 r hipzsidelai;
#X obj 583 504 s hipzsidelai;
#X msg 590 476 74;
#X obj 585 452 loadbang;
#X connect 2 0 0 0;
#X connect 4 0 5 0;
#X connect 4 0 12 0;
#X connect 5 0 50 0;
#X connect 6 0 49 0;
#X connect 7 0 6 1;
#X connect 8 0 4 0;
#X connect 10 0 64 0;
#X connect 15 0 62 0;
#X connect 15 0 17 0;
#X connect 16 0 7 0;
#X connect 17 0 20 0;
#X connect 18 0 16 0;
#X connect 19 0 63 0;
#X connect 20 0 19 0;
#X connect 21 0 22 0;
#X connect 21 1 45 1;
#X connect 22 0 45 0;
#X connect 23 0 27 0;
#X connect 23 0 33 0;
#X connect 24 0 25 0;
#X connect 26 0 24 0;
#X connect 27 0 43 0;
#X connect 27 1 44 0;
#X connect 28 0 29 0;
#X connect 28 0 4 0;
#X connect 30 0 4 0;
#X connect 32 0 26 0;
#X connect 32 0 15 0;
#X connect 32 0 40 0;
#X connect 33 0 21 0;
#X connect 34 0 35 0;
#X connect 34 1 48 1;
#X connect 35 0 48 0;
#X connect 35 0 54 0;
#X connect 35 0 22 0;
#X connect 36 0 37 0;
#X connect 37 0 34 0;
#X connect 38 0 17 1;
#X connect 39 0 35 0;
#X connect 40 0 36 0;
#X connect 41 0 32 0;
#X connect 42 0 39 0;
#X connect 45 0 17 1;
#X connect 45 0 19 0;
#X connect 46 0 36 0;
#X connect 47 0 32 0;
#X connect 48 0 38 0;
#X connect 50 0 6 0;
#X connect 50 0 51 0;
#X connect 51 0 9 0;
#X connect 52 0 59 0;
#X connect 53 0 60 0;
#X connect 53 1 57 1;
#X connect 54 0 61 0;
#X connect 55 0 56 0;
#X connect 55 0 23 0;
#X connect 56 0 53 0;
#X connect 57 0 28 0;
#X connect 58 0 55 0;
#X connect 60 0 57 0;
#X connect 61 0 60 0;
#X connect 62 0 16 0;
#X connect 63 0 18 0;
#X connect 64 0 65 0;
#X connect 65 0 66 0;
#X connect 66 0 67 0;
#X connect 67 0 49 0;
#X connect 68 0 64 1;
#X connect 68 0 65 1;
#X connect 68 0 66 1;
#X connect 68 0 67 1;
#X connect 70 0 69 0;
#X connect 71 0 70 0;
#X restore -2419 -16364 pd delai+;
#X obj -2391 -16318 *~;
#X obj -2341 -16346 hsl 128 15 0 0.5 0 1 empty empty empty -2 -8 0
10 -262144 -1 -1 8500 1;
#X msg -2851 -16810 18;
#X obj -1925 -16769 s rangedna+;
#X obj -2723 -17181 r rangedna+;
#X obj -3017 -16882 t b f;
#X obj -2987 -16912 hradio 15 1 0 8 empty empty empty 0 -8 0 10 -262144
-1 -1 1;
#X obj -3005 -16831 *;
#X obj -2967 -16787 nbx 5 14 -1e+37 1e+37 0 0 empty empty empty 0 -8
0 10 -262144 -1 -1 18 256;
#X msg -2938 -16755 set \$1;
#X msg -3050 -16848 18;
#X obj -2919 -16684 tgl 15 0 empty empty empty 17 7 0 10 -262144 -1
-1 0 1;
#X obj -2899 -16711 bng 15 250 50 0 empty empty empty 17 7 0 10 -262144
-1 -1;
#X obj -2987 -16460 *~;
#X obj -2971 -16599 metro;
#X floatatom -3035 -16527 5 0 0 0 - - -;
#X floatatom -2946 -16575 5 0 0 0 - - -;
#X floatatom -2866 -16617 5 0 0 0 - - -;
#X obj -3006 -16563 bng 15 250 50 0 empty empty empty 0 -6 0 8 -262144
-1 -1;
#X obj -2814 -16471 hsl 128 15 0 0.8 0 1 empty empty empty -2 -8 0
10 -262144 -1 -1 12700 1;
#X obj -3035 -16495 osc~;
#X obj -3101 -16708 t b f;
#X obj -3071 -16738 hradio 15 1 0 8 empty empty empty 0 -8 0 10 -262144
-1 -1 1;
#X obj -3089 -16657 *;
#X obj -3051 -16613 nbx 5 14 -1e+37 1e+37 0 0 empty empty empty 0 -8
0 10 -262144 -1 -1 2222 256;
#X obj -2718 -16427 *~;
#X obj -2984 -17061 +;
#X obj -2596 -17384 hsl 787 15 0 712 0 1 empty empty empty -2 -8 0
10 -262144 -1 -1 78600 1;
#X obj -2500 -17513 t b f;
#X obj -2470 -17543 hradio 15 1 0 8 empty empty empty 0 -8 0 10 -262144
-1 -1 3;
#X obj -2488 -17462 *;
#X obj -2450 -17418 nbx 5 14 -1e+37 1e+37 0 0 empty empty empty 0 -8
0 10 -262144 -1 -1 180 256;
#X msg -2533 -17479 60;
#X obj -3010 -17108 sel 0;
#X obj -3062 -17075 s initdna;
#X obj -2317 -17501 r initdna;
#X obj -2276 -17430 nbx 5 14 -1e+37 1e+37 0 0 empty empty empty 0 -8
0 10 -262144 -1 -1 3 256;
#X obj -2616 -17415 spigot;
#X obj -2580 -17444 tgl 15 0 empty empty empty 17 7 0 10 -262144 -1
-1 0 1;
#X obj -2278 -17463 counter 3;
#X obj -3057 -16353 t b f;
#X obj -3027 -16383 hradio 15 1 0 8 empty empty empty 0 -8 0 10 -262144
-1 -1 1;
#X obj -3045 -16302 *;
#X floatatom -2987 -16226 5 0 0 0 - - -;
#X obj -2978 -16254 line;
#X msg -2989 -16280 \$1 \$1;
#X obj -2134 -16389 *~;
#X floatatom -2182 -16456 5 0 0 0 - - -;
#X floatatom -2093 -16504 5 0 0 0 - - -;
#X obj -2153 -16492 bng 15 250 50 0 empty empty empty 0 -6 0 8 -262144
-1 -1;
#X obj -2182 -16589 r ttriggerDNA;
#X obj -2106 -16313 *~;
#X obj -2021 -16371 hsl 128 15 0 0.8 0 1 empty empty empty -2 -8 0
10 -262144 -1 -1 9100 1;
#X msg -2208 -16497 0.25;
#X obj -2179 -16560 tgl 15 0 empty empty empty 17 7 0 10 -262144 -1
-1 0 1;
#X obj -2979 -16713 r ttriggerDNA;
#X obj -2976 -16684 tgl 15 0 empty empty empty 17 7 0 10 -262144 -1
-1 0 1;
#X obj -2186 -16532 sel 1;
#X obj -2816 -16508 sel 0;
#X obj -2938 -17316 loadbang;
#N canvas 6 93 1351 687 sidechain 0;
#X obj 923 -53 bng 15 250 50 0 empty empty empty 0 -6 0 8 -262144 -1
-1;
#X obj 342 323 *~;
#X obj 490 308 hsl 128 15 0 1 0 1 empty empty empty 10 7 1 10 -262144
-1 -1 7278 1;
#X obj 466 118 bng 23 250 50 0 empty empty empty 17 7 0 10 -1 -262144
-262144;
#X obj 525 273 line;
#X obj 568 143 pipe;
#X obj 555 184 nbx 5 14 -1e+37 1e+37 0 0 empty empty empty 0 -8 0 10
-262144 -1 -1 180 256;
#X obj 554 163 bng 15 250 50 0 empty empty empty 17 7 0 10 -262144
-1 -1;
#X obj 848 189 t b f;
#X obj 755 206 nbx 5 14 -1e+37 1e+37 0 0 empty empty empty 0 -8 0 10
-262144 -1 -1 180 256;
#X obj 885 154 hradio 15 1 0 8 empty empty empty 0 -8 0 10 -262144
-1 -1 0;
#X obj 816 265 *;
#X obj 882 75 counter 3;
#X obj 885 98 nbx 5 14 -1e+37 1e+37 0 0 empty empty empty 0 -8 0 10
-262144 -1 -1 0 256;
#X obj 760 48 bng 23 250 50 0 empty empty empty 17 7 0 10 -1 -262144
-262144;
#X obj 828 -7 bng 55 250 50 1 empty empty empty 17 7 0 10 -1 -262144
-1;
#X obj 894 177 + 1;
#X obj 669 -105 t b f;
#X obj 576 -88 nbx 5 14 -1e+37 1e+37 0 0 empty empty empty 0 -8 0 10
-262144 -1 -1 60 256;
#X obj 706 -140 hradio 15 1 0 8 empty empty empty 0 -8 0 10 -262144
-1 -1 2;
#X obj 637 -29 *;
#X obj 715 -117 + 1;
#X obj 652 18 nbx 5 14 -1e+37 1e+37 0 0 empty empty empty 0 -8 0 10
-262144 -1 -1 180 256;
#X obj 747 -56 counter 5;
#X msg 473 158 0.519685;
#X msg 549 242 1 \$1;
#X msg 395 156 set \$1;
#X obj 338 63 hsl 128 15 0 1 0 1 empty empty empty 10 7 1 10 -262144
-1 -1 6600 1;
#X obj 505 -90 / 4;
#X obj 433 -76 s time;
#X msg 426 -105 120;
#X obj 286 379 hip~;
#X obj 292 404 hip~;
#X obj 301 426 hip~;
#X obj 307 451 hip~;
#X obj 345 375 r hipzsidechain;
#X obj 178 114 inlet~;
#X obj 98 624 outlet~;
#X obj 734 440 s hipzsidechain;
#X obj 549 331 nbx 5 14 -1e+37 1e+37 0 0 empty empty empty 0 -8 0 10
-262144 -1 -1 0.573071 256;
#X obj 740 326 sel 1;
#X msg 758 360 34;
#X obj 783 329 bng 15 250 50 0 empty empty empty 17 7 0 10 -262144
-1 -1;
#X obj 339 36 inlet;
#X obj 468 350 outlet;
#X obj 374 301 line~;
#X obj 780 390 line;
#X msg 647 374 \$1 2;
#X obj 270 169 tgl 34 0 empty empty empty 17 7 0 10 -262144 -1 -1 1
1;
#X obj 20 221 spigot~;
#X msg 844 387 \$1 111;
#X obj 505 -124 r timeDNA;
#X obj 263 133 r sidechainonoffdna;
#X obj 851 -70 r minikikkdna;
#X msg 721 360 77;
#X obj 572 210 * 1;
#X connect 0 0 15 0;
#X connect 1 0 31 0;
#X connect 2 0 39 0;
#X connect 2 0 40 0;
#X connect 2 0 44 0;
#X connect 3 0 24 0;
#X connect 3 0 5 0;
#X connect 3 0 54 0;
#X connect 4 0 2 0;
#X connect 5 0 7 0;
#X connect 6 0 55 0;
#X connect 7 0 6 0;
#X connect 8 0 9 0;
#X connect 8 1 11 1;
#X connect 9 0 11 0;
#X connect 10 0 16 0;
#X connect 11 0 5 1;
#X connect 11 0 6 0;
#X connect 12 0 13 0;
#X connect 13 0 10 0;
#X connect 14 0 12 0;
#X connect 15 0 14 0;
#X connect 15 0 3 0;
#X connect 15 0 23 0;
#X connect 16 0 8 0;
#X connect 17 0 18 0;
#X connect 17 1 20 1;
#X connect 18 0 20 0;
#X connect 19 0 21 0;
#X connect 20 0 22 0;
#X connect 21 0 17 0;
#X connect 22 0 9 0;
#X connect 22 0 5 1;
#X connect 23 0 19 0;
#X connect 24 0 4 0;
#X connect 24 0 45 0;
#X connect 25 0 4 0;
#X connect 25 0 45 0;
#X connect 26 0 24 0;
#X connect 27 0 26 0;
#X connect 28 0 18 0;
#X connect 30 0 29 0;
#X connect 31 0 32 0;
#X connect 32 0 33 0;
#X connect 33 0 34 0;
#X connect 34 0 37 0;
#X connect 35 0 31 1;
#X connect 35 0 32 1;
#X connect 35 0 33 1;
#X connect 35 0 34 1;
#X connect 36 0 49 0;
#X connect 40 0 42 0;
#X connect 41 0 50 0;
#X connect 42 0 41 0;
#X connect 43 0 27 0;
#X connect 45 0 1 1;
#X connect 46 0 38 0;
#X connect 47 0 46 0;
#X connect 48 0 49 1;
#X connect 49 0 37 0;
#X connect 49 1 1 0;
#X connect 50 0 46 0;
#X connect 51 0 28 0;
#X connect 52 0 48 0;
#X connect 53 0 0 0;
#X connect 54 0 47 0;
#X connect 55 0 25 0;
#X restore -2237 -16181 pd sidechain;
#X obj -2167 -16230 hsl 128 15 0 1 0 1 empty empty empty 10 7 1 10
-262144 -1 -1 6600 1;
#X obj -2165 -16156 hsl 128 15 0 1 0 1 empty empty empty 10 7 1 10
-262144 -1 -1 7278 1;
#X obj -2134 -16196 hsl 128 15 0 1 0 1 empty empty empty 10 7 1 10
-1 -262144 -1 0 1;
#X obj -2112 -16255 r threshold;
#X obj -2073 -16125 s response;
#X obj -2328 -16296 s~ pulses-_-dna;
#X obj -2621 -16106 s~ dnasignal;
#X obj -2289 -16206 r~ dnasignal;
#X obj -2001 -16248 s sidechainonoffdna;
#X obj -2002 -16289 tgl 34 0 empty empty empty 17 7 0 10 -262144 -1
-1 1 1;
#X obj -2004 -16470 s minikikkdna;
#X obj -2182 -16424 osc~ 60;
#X obj -2292 -16542 * 2;
#X obj -2018 -16410 + 36;
#X obj -2005 -16446 r valuedna;
#X obj -1914 -16576 r initdna;
#X obj -1873 -16505 nbx 5 14 -1e+37 1e+37 0 0 empty empty empty 0 -8
0 10 -262144 -1 -1 7 256;
#X msg -1883 -16436 36;
#X obj -1874 -16474 sel 0 1 2 3 4 5;
#X obj -1875 -16538 counter 5;
#X obj -2118 -16550 sel 1;
#N canvas 237 102 885 649 DualReverb 0;
#X obj 293 536 freeverb~;
#X msg 292 42 roomsize \$1;
#X msg 292 87 damping \$1;
#X msg 292 131 width \$1;
#X msg 292 175 wet \$1;
#X msg 292 219 dry \$1;
#X msg 326 242 print;
#X msg 345 281 freeze \$1;
#X msg 350 318 bypass \$1;
#X obj 350 299 tgl 15 0 empty empty empty 0 -6 0 8 -262144 -1 -1 0
1;
#X obj 345 262 tgl 15 0 empty empty empty 0 -6 0 8 -262144 -1 -1 0
1;
#X obj 304 196 hsl 60 18 0 1 0 1 empty empty dry 2 9 1 12 -225271 -1
-1 5900 0;
#X obj 304 152 hsl 60 18 0 1 0 1 empty empty wet 2 9 1 12 -225271 -1
-1 1300 0;
#X obj 304 108 hsl 60 18 0 1 0 1 empty empty width 2 9 1 12 -262131
-1 -1 5900 0;
#X obj 304 64 hsl 60 18 0 2 0 1 empty empty damping 2 9 1 12 -261689
-1 -1 0 0;
#X obj 304 19 hsl 60 18 0.11 1.1 0 1 empty empty roomsize 2 9 1 12
-261689 -1 -1 2691 0;
#X floatatom 274 23 3 0 0 0 - - -;
#X floatatom 274 68 3 0 0 0 - - -;
#X floatatom 274 113 3 0 0 0 - - -;
#X floatatom 274 156 3 0 0 0 - - -;
#X floatatom 274 200 3 0 0 0 - - -;
#X obj 14 307 inlet~;
#X obj 70 311 inlet~;
#X obj 477 584 freeverb~;
#X msg 476 90 roomsize \$1;
#X msg 476 135 damping \$1;
#X msg 476 179 width \$1;
#X msg 476 223 wet \$1;
#X msg 476 267 dry \$1;
#X msg 510 290 print;
#X msg 529 329 freeze \$1;
#X msg 534 366 bypass \$1;
#X obj 534 347 tgl 15 0 empty empty empty 0 -6 0 8 -262144 -1 -1 0
1;
#X obj 529 310 tgl 15 0 empty empty empty 0 -6 0 8 -262144 -1 -1 0
1;
#X obj 488 244 hsl 60 18 0 1 0 1 empty empty dry 2 9 1 12 -225271 -1
-1 5900 0;
#X obj 488 200 hsl 60 18 0 1 0 1 empty empty wet 2 9 1 12 -225271 -1
-1 1300 0;
#X obj 488 156 hsl 60 18 0 1 0 1 empty empty width 2 9 1 12 -262131
-1 -1 5900 0;
#X obj 488 112 hsl 60 18 0 2 0 1 empty empty damping 2 9 1 12 -261689
-1 -1 0 0;
#X obj 488 67 hsl 60 18 0.11 1.1 0 1 empty empty roomsize 2 9 1 12
-261689 -1 -1 2691 0;
#X floatatom 458 71 3 0 0 0 - - -;
#X floatatom 458 116 3 0 0 0 - - -;
#X floatatom 458 161 3 0 0 0 - - -;
#X floatatom 458 204 3 0 0 0 - - -;
#X floatatom 458 248 3 0 0 0 - - -;
#X obj 117 33 inlet;
#X obj 121 68 inlet;
#X obj 143 102 inlet;
#X obj 155 136 inlet;
#X obj 170 170 inlet;
#X obj 191 209 inlet;
#X obj 515 658 *~;
#X obj 459 654 *~;
#X obj 649 566 hsl 128 15 0 1 0 0 empty empty empty -2 -8 0 10 -262144
-1 -1 1736 1;
#X obj 448 692 outlet~;
#X obj 504 696 outlet~;
#X obj 677 514 inlet;
#X connect 0 0 23 0;
#X connect 0 1 23 1;
#X connect 1 0 0 0;
#X connect 2 0 0 0;
#X connect 3 0 0 0;
#X connect 4 0 0 0;
#X connect 5 0 0 0;
#X connect 6 0 0 0;
#X connect 7 0 0 0;
#X connect 8 0 0 0;
#X connect 9 0 8 0;
#X connect 10 0 7 0;
#X connect 11 0 5 0;
#X connect 11 0 20 0;
#X connect 11 0 34 0;
#X connect 12 0 4 0;
#X connect 12 0 19 0;
#X connect 12 0 35 0;
#X connect 13 0 3 0;
#X connect 13 0 18 0;
#X connect 13 0 36 0;
#X connect 14 0 2 0;
#X connect 14 0 17 0;
#X connect 14 0 37 0;
#X connect 15 0 1 0;
#X connect 15 0 16 0;
#X connect 15 0 38 0;
#X connect 21 0 0 0;
#X connect 22 0 0 1;
#X connect 23 0 51 0;
#X connect 23 1 50 0;
#X connect 24 0 23 0;
#X connect 25 0 23 0;
#X connect 26 0 23 0;
#X connect 27 0 23 0;
#X connect 28 0 23 0;
#X connect 29 0 23 0;
#X connect 30 0 23 0;
#X connect 31 0 23 0;
#X connect 32 0 31 0;
#X connect 33 0 30 0;
#X connect 34 0 28 0;
#X connect 34 0 43 0;
#X connect 35 0 27 0;
#X connect 35 0 42 0;
#X connect 36 0 26 0;
#X connect 36 0 41 0;
#X connect 37 0 25 0;
#X connect 37 0 40 0;
#X connect 38 0 24 0;
#X connect 38 0 39 0;
#X connect 44 0 15 0;
#X connect 45 0 14 0;
#X connect 46 0 13 0;
#X connect 47 0 12 0;
#X connect 48 0 11 0;
#X connect 49 0 10 0;
#X connect 50 0 54 0;
#X connect 51 0 53 0;
#X connect 52 0 50 1;
#X connect 52 0 51 1;
#X connect 55 0 52 0;
#X restore -2303 -15991 pd DualReverb;
#X obj -2092 -16006 hsl 55 15 0 0.333 0 1 empty empty empty -2 -8 0
10 -262144 -1 -1 2217 1;
#X obj -2172 -16009 hsl 60 18 0 1 0 1 empty empty dry 2 9 1 12 -262144
-1 -1 5900 0;
#X obj -2173 -16034 hsl 60 18 0 1 0 1 empty empty wet 2 9 1 12 -262144
-1 -1 1300 0;
#X obj -2172 -16058 hsl 60 18 0 1 0 1 empty empty width 2 9 1 12 -262144
-1 -1 5900 0;
#X obj -2172 -16083 hsl 60 18 0 2 0 1 empty empty damping 2 9 1 12
-262144 -1 -1 0 0;
#X obj -2172 -16108 hsl 60 18 0.11 1.1 0 1 empty empty roomsize 2 9
1 12 -262144 -1 -1 2691 0;
#X obj -2174 -15983 tgl 15 0 empty empty empty 17 7 0 10 -262144 -1
-1 0 1;
#X msg -2919 -17263 480;
#X obj -1770 -16020 r~ pulses-_-dna;
#X msg -1764 -16826 3;
#X msg -1732 -16830 5;
#X msg -1698 -16830 11;
#X obj -1731 -16902 hradio 15 1 0 8 empty empty empty 0 -8 0 10 -262144
-1 -1 0;
#X obj -1761 -16872 sel 0 1 2 3 4 5;
#X obj -1746 -16767 s rangedna+;
#X msg -1662 -16830 17;
#X msg -1628 -16830 29;
#X msg -1943 -16828 2;
#X msg -1911 -16832 3;
#X msg -1877 -16832 7;
#X msg -1841 -16832 15;
#X msg -1807 -16832 31;
#X obj -1814 -16586 r rangedna+;
#X obj -2126 -17478 metro 1000;
#X obj -2131 -17514 loadbang;
#X obj -2014 -17420 random 777;
#X obj -2016 -17446 bng 15 250 50 0 empty empty empty 17 7 0 10 -262144
-1 -1;
#X obj -2079 -17422 sel 0;
#X obj -2161 -17499 bng 15 250 50 0 empty empty empty 17 7 0 10 -262144
-1 -1;
#X obj -2157 -17428 nbx 5 14 -1e+37 1e+37 0 0 empty empty empty 0 -8
0 10 -262144 -1 -1 2 256;
#X obj -2067 -17506 hsl 128 15 0 1000 0 1 empty empty empty -2 -8 0
10 -262144 -1 -1 12700 1;
#X obj -2853 -16516 bng 15 250 50 0 empty empty empty 0 -6 0 8 -262144
-1 -1;
#X obj -2820 -16603 r valuedna;
#X obj -2111 -17450 counter 35;
#X obj -2804 -16532 hradio 15 1 0 8 empty empty empty 0 -8 0 10 -262144
-1 -1 1;
#X obj -2818 -16574 sel 3;
#X obj -2770 -16575 sel 4;
#X msg -2036 -17475 17;
#X msg -3090 -16319 1;
#X obj -2971 -16528 ead~ 1 0;
#X obj -2819 -17283 / 4;
#X obj -2899 -16424 *~ 0.5;
#X obj -2869 -16448 tgl 15 0 empty empty empty 17 7 0 10 -262144 -1
-1 1 1;
#X obj -3111 -16508 bng 15 250 50 0 empty empty empty 17 7 0 10 -262144
-1 -1;
#X msg -3134 -16674 2222;
#X obj -2699 -16590 osc~;
#X obj -2524 -16493 *~;
#X obj -2496 -16629 metro;
#X floatatom -2560 -16557 5 0 0 0 - - -;
#X floatatom -2471 -16605 5 0 0 0 - - -;
#X obj -2531 -16593 bng 15 250 50 0 empty empty empty 0 -6 0 8 -262144
-1 -1;
#X obj -2531 -16671 r ttriggerDNA;
#X obj -2496 -16558 ead~ 2 0;
#X obj -2560 -16525 osc~;
#X obj -2602 -16589 * 2;
#X obj -3046 -16052 *~;
#X obj -3030 -16191 metro;
#X floatatom -3094 -16119 5 0 0 0 - - -;
#X floatatom -3005 -16167 5 0 0 0 - - -;
#X floatatom -2925 -16209 5 0 0 0 - - -;
#X obj -3065 -16155 bng 15 250 50 0 empty empty empty 0 -6 0 8 -262144
-1 -1;
#X obj -3110 -16205 nbx 5 14 -1e+37 1e+37 0 0 empty empty empty 0 -8
0 10 -262144 -1 -1 2222 256;
#X obj -2912 -16108 bng 15 250 50 0 empty empty empty 0 -6 0 8 -262144
-1 -1;
#X obj -3030 -16120 ead~ 1 0;
#X obj -2958 -16016 *~ 0.5;
#X obj -2928 -16040 tgl 15 0 empty empty empty 17 7 0 10 -262144 -1
-1 0 1;
#X obj -2868 -16223 * -1;
#X obj -2859 -16192 + 1;
#X obj -2667 -16212 *~;
#X obj -2582 -16270 hsl 128 15 0 0.8 0 1 empty empty empty -2 -8 0
10 -262144 -1 -1 6350 1;
#X obj -3052 -17198 r ttriggerDNA;
#X obj -3055 -17166 counter 3;
#X obj -3098 -17113 s kikkmaster;
#X obj -2232 -16641 r kikkmaster;
#X obj -2297 -16482 nbx 5 14 -1e+37 1e+37 0 0 empty empty empty 0 -8
0 10 -262144 -1 -1 36 256;
#X msg -2050 -16503 444;
#X obj -2871 -16376 *~ 0.3;
#X obj -2868 -16066 *~ 0.2;
#X obj -2652 -16521 *~ 0.4;
#X obj -2513 -16456 *~ 0.3;
#X msg -1848 -16423 40;
#X obj -2410 -16507 * -1;
#X obj -2401 -16476 + 1;
#X obj -2290 -16455 tgl 15 0 empty empty empty 17 7 0 10 -262144 -1
-1 0 1;
#X obj -2301 -16424 spigot;
#X obj -2437 -17501 s evoldnaL;
#X obj -2089 -16599 r evoldnaL;
#X obj -2063 -16544 nbx 5 14 -1e+37 1e+37 0 0 empty empty empty 0 -8
0 10 -262144 -1 -1 3 256;
#X msg -2704 -16816 set \$1;
#X msg -2639 -16774 120;
#X msg -3062 -16818 18;
#X obj -3064 -17140 sel 0 2;
#X obj -3094 -16087 phasor~;
#X obj -1747 -17252 r evoldnaL;
#X obj -1730 -17178 nbx 5 14 -1e+37 1e+37 0 0 empty empty empty 0 -8
0 10 -262144 -1 -1 3 256;
#X obj -1732 -17211 counter 3;
#X obj -1732 -17231 hradio 15 1 0 8 empty empty empty 0 -8 0 10 -262144
-1 -1 3;
#X obj -1730 -17150 sel 0;
#X obj -1733 -17067 nbx 5 14 -1e+37 1e+37 0 0 empty empty empty 0 -8
0 10 -262144 -1 -1 3 256;
#X obj -1735 -17100 counter 3;
#X obj -1583 -17000 hradio 15 1 0 8 empty empty empty 0 -8 0 10 -262144
-1 -1 3;
#X obj -1905 -16033 bp~ 100 1;
#X obj -1838 -16035 bp~ 100 1;
#X obj -1868 -16176 hsl 111 15 0 1111 0 1 empty empty empty -2 -8 0
10 -262144 -1 -1 178 1;
#X obj -1848 -16147 hsl 111 15 0 23 0 1 empty empty empty -2 -8 0 10
-262144 -1 -1 0 1;
#X obj -1794 -16271 nbx 5 14 -1e+37 1e+37 0 0 empty empty empty 0 -8
0 10 -262144 -1 -1 120 256;
#X obj -1805 -16307 * 120;
#X obj -1780 -16204 line;
#X obj -1786 -16124 nbx 5 14 -1e+37 1e+37 0 0 empty empty empty 0 -8
0 10 -262144 -1 -1 0 256;
#X obj -2588 -15984 s~ dnacliqqs;
#X obj -1991 -16029 r~ dnacliqqs;
#X obj -1851 -16221 line;
#X msg -1858 -16249 \$1 \$1;
#X msg -2547 -15930 add2 55;
#X obj -3054 -15901 bng 23 250 50 0 empty empty empty 17 7 0 10 -13352
-262144 -1;
#N canvas 0 86 1351 687 XHat::::::: 0;
#X obj 548 759 outlet~;
#X obj 341 325 *~;
#X obj 488 327 *~;
#X obj 408 357 *~;
#X obj 362 423 +~;
#X obj 408 444 osc~ 5435;
#X obj 408 380 *~ 12000;
#X obj 506 286 osc~ 2441;
#X obj 540 313 noise~;
#X obj 438 472 +~;
#X obj 488 443 clip~ -0.7 0.7;
#X obj 485 500 *~;
#X obj 628 498 *~;
#X obj 678 516 *~ 0.06;
#X obj 551 517 *~ 0.06;
#X obj 205 406 sig~ 7435;
#X obj 486 400 bp~ 12000 12;
#X obj 430 287 osc~ 3283;
#X obj 356 288 osc~ 4109;
#X obj 925 651 switch~;
#X obj 783 593 env~;
#X obj 925 624 > 1;
#X msg 956 625 1;
#X obj 793 242 t b f;
#X obj 846 271 * 1000;
#X obj 281 288 osc~ 4221;
#X obj 474 37 vsl 15 64 0 5 0 1 empty empty tone 0 -8 0 8 -208528 -1
-1 1260 1;
#X obj 1044 153 vsl 15 64 0 1 0 1 empty empty decay 0 -8 0 8 -236947
-1 -1 382 1;
#X obj 669 222 vsl 15 64 0 2 0 1 empty empty noise 0 -8 0 8 -244615
-1 -1 3150 1;
#X obj 272 -6 vradio 15 1 0 9 empty empty edge 0 -6 0 8 -240942 -1
-1 1;
#X obj 1105 485 vsl 15 64 0 2 0 1 empty empty bite 0 -8 0 8 -216147
-1 -1 1400 1;
#X obj 522 364 *~;
#X obj 959 248 * 1200;
#X obj 620 347 * 12000;
#X obj 344 139 * 4221;
#X obj 367 198 * 4109;
#X obj 432 211 * 3283;
#X obj 485 209 * 2441;
#X obj 585 552 *~;
#X msg 7 367 7436;
#X obj 721 101 bng 15 250 50 0 empty empty empty 17 7 0 10 -262144
-1 -1;
#X msg 52 367 8000;
#X msg 97 362 11111;
#X obj 248 151 nbx 5 14 -1e+37 1e+37 0 0 empty empty empty 0 -8 0 10
-262144 -1 -1 1 256;
#X obj 123 311 sel 0 1 2 3 4 5 6 7 8;
#X obj 845 171 nbx 5 14 -1e+37 1e+37 0 0 empty empty empty 0 -8 0 10
-262144 -1 -1 1 256;
#X obj 805 138 counter 7;
#X obj 626 72 bng 15 250 50 0 empty empty empty 17 7 0 10 -262144 -1
-1;
#X obj 706 135 bng 15 250 50 0 empty empty empty 17 7 0 10 -262144
-1 -1;
#X obj 793 195 / 4;
#X obj 653 118 pipe 100;
#X obj 730 154 random 16;
#X msg 142 362 14441;
#X obj 437 35 vsl 15 64 0.2 1.1 0 1 empty empty tone 0 -8 0 8 -208528
-1 -1 5000 1;
#X obj 547 174 nbx 5 14 -1e+37 1e+37 0 0 empty empty empty 0 -8 0 10
-262144 -1 -1 1 256;
#X msg 227 364 8888;
#X msg -43 370 5435;
#X obj 811 98 s metro;
#X msg 262 367 2222;
#X obj 754 191 / 8;
#X obj 955 147 nbx 5 14 -1e+37 1e+37 0 0 empty empty empty 0 -8 0 10
-262144 -1 -1 0.5 256;
#X obj 964 122 / 2;
#X obj 399 -192 inlet;
#X obj 532 94 r temps;
#X obj 666 -94 inlet;
#X obj 585 -105 inlet;
#X obj 713 203 inlet;
#X obj 1056 92 inlet;
#X msg 183 363 12222;
#X msg 303 368 34;
#X obj 516 601 *~ 0.3;
#X obj 515 577 *~ 0.3;
#X obj 591 661 *~ 0;
#X obj 624 647 hsl 128 15 0 1 0 0 empty empty Volume_0-1 -2 -6 0 8
-262144 -1 -1 12700 1;
#X obj 1247 554 inlet;
#X msg 144 547 Code pieces borrowed from Obiwanabe;
#X obj 1095 331 vead~ 2 100;
#N canvas 1 82 548 429 vead~ 0;
#X obj 301 334 vline~;
#X obj 178 85 max 0.1;
#X obj 278 85 max 0.1;
#X text 176 42 attack (ms);
#X text 276 42 decay (ms);
#X text 106 42 trigger;
#X obj 107 65 inlet;
#X obj 178 65 inlet;
#X obj 278 65 inlet;
#X obj 164 487 outlet~;
#X obj 107 85 b;
#X obj 107 328 vline~;
#X obj 107 235 pack 3 4;
#X text 149 303 attack;
#X text 337 305 decay;
#X msg 107 281 1 \, 0 \$1 0 \, 1 0 \$1;
#X msg 301 281 0 \, 1 0 \$1 \, 0 \$2 \$1;
#X obj 107 215 f 3;
#X obj 271 147 f \$1;
#X obj 271 122 loadbang;
#X obj 271 173 select 0;
#X obj 345 121 loadbang;
#X obj 345 172 select 0;
#X obj 345 146 f \$2;
#X obj 301 381 expr~ pow($v1 \, 6);
#X obj 108 379 expr~ 1 - pow($v1 \, 6);
#X connect 0 0 24 0;
#X connect 1 0 17 1;
#X connect 2 0 12 1;
#X connect 6 0 10 0;
#X connect 7 0 1 0;
#X connect 8 0 2 0;
#X connect 10 0 17 0;
#X connect 11 0 25 0;
#X connect 12 0 16 0;
#X connect 12 0 15 0;
#X connect 15 0 11 0;
#X connect 16 0 0 0;
#X connect 17 0 12 0;
#X connect 18 0 20 0;
#X connect 19 0 18 0;
#X connect 20 1 17 1;
#X connect 21 0 23 0;
#X connect 22 1 12 1;
#X connect 23 0 22 0;
#X connect 24 0 9 0;
#X connect 25 0 9 0;
#X restore 647 410 pd vead~ 2 200;
#N canvas 1 82 548 429 vead~ 0;
#X obj 301 334 vline~;
#X obj 178 85 max 0.1;
#X obj 278 85 max 0.1;
#X text 176 42 attack (ms);
#X text 276 42 decay (ms);
#X text 106 42 trigger;
#X obj 107 65 inlet;
#X obj 178 65 inlet;
#X obj 278 65 inlet;
#X obj 164 487 outlet~;
#X obj 107 85 b;
#X obj 107 328 vline~;
#X obj 107 235 pack 3 4;
#X text 149 303 attack;
#X text 337 305 decay;
#X msg 107 281 1 \, 0 \$1 0 \, 1 0 \$1;
#X msg 301 281 0 \, 1 0 \$1 \, 0 \$2 \$1;
#X obj 107 215 f 3;
#X obj 271 147 f \$1;
#X obj 271 122 loadbang;
#X obj 271 173 select 0;
#X obj 345 121 loadbang;
#X obj 345 172 select 0;
#X obj 345 146 f \$2;
#X obj 301 381 expr~ pow($v1 \, 6);
#X obj 108 379 expr~ 1 - pow($v1 \, 6);
#X connect 0 0 24 0;
#X connect 1 0 17 1;
#X connect 2 0 12 1;
#X connect 6 0 10 0;
#X connect 7 0 1 0;
#X connect 8 0 2 0;
#X connect 10 0 17 0;
#X connect 11 0 25 0;
#X connect 12 0 16 0;
#X connect 12 0 15 0;
#X connect 15 0 11 0;
#X connect 16 0 0 0;
#X connect 17 0 12 0;
#X connect 18 0 20 0;
#X connect 19 0 18 0;
#X connect 20 1 17 1;
#X connect 21 0 23 0;
#X connect 22 1 12 1;
#X connect 23 0 22 0;
#X connect 24 0 9 0;
#X connect 25 0 9 0;
#X restore 770 454 pd vead~ 2 200;
#X connect 1 0 3 0;
#X connect 2 0 3 1;
#X connect 3 0 6 0;
#X connect 4 0 5 0;
#X connect 5 0 9 0;
#X connect 6 0 4 1;
#X connect 7 0 2 1;
#X connect 8 0 31 0;
#X connect 9 0 11 0;
#X connect 9 0 12 0;
#X connect 10 0 9 1;
#X connect 11 0 14 0;
#X connect 12 0 13 0;
#X connect 13 0 38 0;
#X connect 14 0 71 0;
#X connect 15 0 4 0;
#X connect 16 0 10 0;
#X connect 17 0 2 0;
#X connect 18 0 1 1;
#X connect 20 0 21 0;
#X connect 21 0 19 0;
#X connect 22 0 19 0;
#X connect 23 0 22 0;
#X connect 23 0 77 0;
#X connect 23 0 78 0;
#X connect 23 1 14 1;
#X connect 23 1 13 1;
#X connect 23 1 24 0;
#X connect 24 0 77 2;
#X connect 25 0 1 0;
#X connect 26 0 34 0;
#X connect 26 0 35 0;
#X connect 26 0 36 0;
#X connect 26 0 37 0;
#X connect 27 0 32 0;
#X connect 28 0 31 1;
#X connect 28 0 33 0;
#X connect 29 0 43 0;
#X connect 29 0 44 0;
#X connect 30 0 38 1;
#X connect 31 0 16 0;
#X connect 32 0 24 1;
#X connect 33 0 16 1;
#X connect 34 0 25 0;
#X connect 35 0 18 0;
#X connect 36 0 17 0;
#X connect 37 0 7 0;
#X connect 38 0 71 0;
#X connect 39 0 15 0;
#X connect 40 0 46 0;
#X connect 40 0 57 0;
#X connect 41 0 15 0;
#X connect 42 0 15 0;
#X connect 44 0 56 0;
#X connect 44 1 39 0;
#X connect 44 2 41 0;
#X connect 44 3 42 0;
#X connect 44 4 52 0;
#X connect 44 5 68 0;
#X connect 44 6 55 0;
#X connect 44 7 58 0;
#X connect 44 8 69 0;
#X connect 45 0 49 0;
#X connect 45 0 54 0;
#X connect 45 0 61 0;
#X connect 46 0 45 0;
#X connect 47 0 50 0;
#X connect 48 0 51 0;
#X connect 49 0 23 0;
#X connect 50 0 48 0;
#X connect 51 0 59 0;
#X connect 52 0 15 0;
#X connect 53 0 26 0;
#X connect 55 0 15 0;
#X connect 56 0 15 0;
#X connect 58 0 15 0;
#X connect 59 0 23 0;
#X connect 61 0 60 0;
#X connect 62 0 40 0;
#X connect 62 0 47 0;
#X connect 63 0 50 1;
#X connect 64 0 26 0;
#X connect 65 0 29 0;
#X connect 66 0 28 0;
#X connect 67 0 27 0;
#X connect 68 0 15 0;
#X connect 69 0 15 0;
#X connect 70 0 72 0;
#X connect 71 0 20 0;
#X connect 71 0 70 0;
#X connect 72 0 0 0;
#X connect 73 0 72 1;
#X connect 74 0 73 0;
#X connect 77 0 11 1;
#X connect 78 0 12 1;
#X restore -3020 -15878 pd XHat:::::::;
#X obj -2999 -15893 hradio 15 1 0 9 empty empty edge 0 -8 0 9 -262144
-1 -1 1;
#X obj -2853 -15893 hsl 100 15 0.01 4 0 1 empty empty tone -2 -8 0
9 -262144 -1 -1 2456 1;
#X obj -2801 -15878 nbx 5 14 -1e+37 1e+37 0 0 empty empty empty 0 -8
0 10 -262144 -1 -1 0.999842 256;
#X obj -2740 -15893 hsl 100 15 0 1 0 1 empty empty noise -2 -8 0 9
-262144 -1 -1 9900 1;
#X obj -2688 -15878 nbx 5 14 -1e+37 1e+37 0 0 empty empty empty 0 -8
0 10 -262144 -1 -1 1 256;
#X obj -2628 -15893 hsl 100 15 0 1 0 1 empty empty decay_[0-1] -2 -8
0 9 -262144 -1 -1 600 1;
#X obj -2576 -15878 nbx 5 14 -1e+37 1e+37 0 0 empty empty empty 0 -8
0 10 -262144 -1 -1 0.0606061 256;
#X obj -2509 -15893 hsl 100 15 0 1 0 1 empty empty volum -2 -8 0 9
-262144 -1 -1 9900 1;
#X obj -2457 -15878 nbx 5 14 -1e+37 1e+37 0 0 empty empty empty 0 -8
0 10 -262144 -1 -1 1 256;
#X obj -2971 -15921 r valuedna;
#X obj -2698 -15850 r valuedna;
#X obj -2850 -15853 hsl 100 15 0.01 0.66 0 1 empty empty tone -2 -8
0 9 -262144 -1 -1 400 1;
#X obj -2859 -15950 r valuedna;
#X obj -2850 -15999 *~ 0.4;
#X obj -2221 -16132 * 0.98;
#X obj -2242 -16109 nbx 5 14 -1e+37 1e+37 0 0 empty empty empty 0 -8
0 10 -262144 -1 -1 0.56161 256;
#X obj -3228 -15807 *~ 0.5;
#X obj -3198 -15831 tgl 15 0 empty empty empty 17 7 0 10 -262144 -1
-1 0 1;
#X obj -3198 -15901 r evoldnaL;
#X obj -3172 -15846 nbx 5 14 -1e+37 1e+37 0 0 empty empty empty 0 -8
0 10 -262144 -1 -1 3 256;
#X obj -3169 -15815 sel 0 2;
#X msg -3171 -15785 1;
#X msg -3139 -15782 0;
#X obj -1962 -16218 + 0;
#X msg -1793 -16226 \$1 36;
#X obj -1661 -16441 *~;
#X floatatom -1709 -16508 5 0 0 0 - - -;
#X floatatom -1620 -16556 5 0 0 0 - - -;
#X obj -1680 -16544 bng 15 250 50 0 empty empty empty 0 -6 0 8 -262144
-1 -1;
#X obj -1633 -16365 *~;
#X obj -1548 -16423 hsl 128 15 0 0.8 0 1 empty empty empty -2 -8 0
10 -262144 -1 -1 11000 1;
#X msg -1735 -16549 0.25;
#X obj -1709 -16476 osc~ 60;
#X msg -1577 -16555 111;
#X obj -1774 -16507 * 4;
#X obj -1645 -16509 ead~ 0 111;
#X obj -2598 -16011 *~ 0.3;
#X obj -1815 -16646 nbx 5 14 -1e+37 1e+37 0 0 empty empty empty 0 -8
0 10 -262144 -1 -1 5 256;
#X obj -1809 -16670 counter 5;
#X obj -1809 -16625 sel 5;
#X msg -1742 -16624 0;
#X msg -1712 -16623 1;
#X obj -1734 -17127 bng 15 250 50 0 empty empty empty 17 7 0 10 -262144
-1 -1;
#X obj -1816 -16704 sel 0;
#X obj -1833 -16682 bng 15 250 50 0 empty empty empty 17 7 0 10 -262144
-1 -1;
#X obj -2197 -16293 *~;
#X obj -2176 -16335 tgl 15 0 empty empty empty 17 7 0 10 -262144 -1
-1 0 1;
#X obj -2152 -16287 line;
#X msg -2165 -16309 \$1 36;
#X obj -1952 -16285 loadbang;
#X obj -2118 -16457 ead~ 2 444;
#X obj -1788 -16417 hradio 15 1 0 8 empty empty empty 0 -8 0 10 -262144
-1 -1 4;
#X obj -1615 -16681 r evoldnaL;
#X obj -1600 -16640 counter 3;
#X obj -1600 -16660 hradio 15 1 0 8 empty empty empty 0 -8 0 10 -262144
-1 -1 3;
#X obj -1604 -16612 + 1;
#X obj -2307 -15937 s~ MNMLEEE-;
#X obj -2231 -15938 s~ MNMLDDD-;
#X obj -1923 -16081 r~ MNMLEEE-;
#X obj -1851 -16083 r~ MNMLDDD-;
#X obj -1651 -16210 hradio 15 1 0 8 empty empty empty 0 -8 0 10 -262144
-1 -1 5;
#X obj -1594 -16008 osc~;
#X obj -1609 -16058 mtof;
#X obj -1648 -16186 + 1;
#X obj -1647 -16154 sel 1 2 3 4 5 6;
#X msg -1642 -16121 0;
#X obj -1568 -16039 nbx 5 14 -1e+37 1e+37 0 0 empty empty empty 0 -8
0 10 -262144 -1 -1 38.8909 256;
#X msg -1597 -16127 3;
#X msg -1566 -16124 -3;
#X obj -1561 -16066 nbx 5 14 -1e+37 1e+37 0 0 empty empty empty 0 -8
0 10 -262144 -1 -1 27 256;
#X obj -1537 -15892 hsl 60 15 0 0.67 0 1 empty empty empty -2 -8 0
10 -262144 -1 -1 2932 1;
#N canvas 607 236 450 458 gnrtv_mod 0;
#N canvas 577 307 450 423 lorenzattractor 0;
#X obj 122 68 metro 50;
#X obj 122 44 tgl 15 0 empty empty empty 20 8 0 8 -262144 -1 -1 0 1
;
#X floatatom 173 43 5 0 0 0 - - -;
#X obj 122 131 lorenz;
#X floatatom 167 239 5 0 0 0 - - -;
#X msg 208 148 param 0.02 10 28 2.667;
#X text 98 20 Calculate;
#X text 206 115 Reset To Initial Conditions;
#X text 208 166 Modify Parameters;
#X floatatom 122 239 5 0 0 0 - - -;
#X floatatom 213 239 5 0 0 0 - - -;
#X text 151 212 Output;
#X msg 207 97 reset 0.1 0 0;
#X obj 54 43 loadbang;
#X obj 168 316 line;
#X obj 172 351 outlet;
#X msg 185 287 \$1 33333;
#X connect 0 0 3 0;
#X connect 1 0 0 0;
#X connect 2 0 0 1;
#X connect 3 0 9 0;
#X connect 3 1 4 0;
#X connect 3 2 10 0;
#X connect 4 0 16 0;
#X connect 5 0 3 0;
#X connect 12 0 3 0;
#X connect 13 0 0 0;
#X connect 13 0 12 0;
#X connect 14 0 15 0;
#X connect 16 0 14 0;
#X restore 97 39 pd lorenzattractor;
#X obj 107 67 abs;
#X obj 102 144 nbx 5 14 -1e+37 1e+37 0 0 empty empty empty 0 -8 0 10
-262144 -1 -1 2.34194 256;
#X obj 150 277 line;
#X obj 168 389 outlet;
#X obj 107 189 * 0.3;
#X msg 131 246 \$1 3600;
#X obj 189 341 min 0.333;
#X obj 175 305 max 0.1111;
#X connect 0 0 1 0;
#X connect 1 0 2 0;
#X connect 2 0 5 0;
#X connect 3 0 8 0;
#X connect 5 0 6 0;
#X connect 6 0 3 0;
#X connect 7 0 4 0;
#X connect 8 0 7 0;
#X restore -1535 -15915 pd gnrtv_mod;
#X obj -1531 -15872 nbx 5 14 -1e+37 1e+37 0 0 empty empty empty 0 -8
0 10 -262144 -1 -1 0.332956 256;
#X obj -1631 -15878 *~;
#X obj -1671 -16031 line;
#X msg -1684 -16053 \$1 \$1;
#X obj -1613 -16083 + 30;
#X msg -1510 -16124 30;
#X msg -1478 -16124 24;
#X obj -1516 -16190 sel 0;
#X obj -1625 -15976 *~;
#X obj -1519 -16009 line;
#X msg -1459 -16049 \$1 36;
#X obj -1507 -16164 tgl 15 0 empty empty empty 17 7 0 10 -262144 -1
-1 0 1;
#X obj -1476 -16158 sel 0;
#X msg -1473 -16095 0.7;
#X msg -1506 -16091 0.4;
#X obj -1613 -15936 *~;
#X obj -1311 -15954 line;
#X msg -1324 -15976 \$1 36;
#X msg -1347 -16012 0.7;
#X msg -1371 -15986 0.4;
#X obj -1365 -15927 nbx 5 14 -1e+37 1e+37 0 0 empty empty empty 0 -8
0 10 -262144 -1 -1 0.4 256;
#X obj -1940 -16120 line;
#X obj -1961 -16169 * 2;
#X obj -1897 -15982 *~;
#X obj -2177 -15878 tgl 15 0 empty empty empty 17 7 0 10 -262144 -1
-1 0.6 0.6;
#X obj -2106 -15830 line;
#X obj -2124 -15941 sel 0 2;
#X msg -2145 -15915 0.6;
#X msg -2115 -15915 0.9;
#X obj -1959 -16097 i;
#X obj -1863 -15982 *~;
#X msg -1953 -16142 \$1 1440;
#X msg -2119 -15852 \$1 1440;
#N canvas 604 240 450 458 gnrtv_mod 0;
#N canvas 577 307 450 423 lorenzattractor 0;
#X obj 122 68 metro 50;
#X obj 122 44 tgl 15 0 empty empty empty 20 8 0 8 -262144 -1 -1 0 1
;
#X floatatom 173 43 5 0 0 0 - - -;
#X obj 122 131 lorenz;
#X floatatom 167 239 5 0 0 0 - - -;
#X msg 208 148 param 0.02 10 28 2.667;
#X text 98 20 Calculate;
#X text 206 115 Reset To Initial Conditions;
#X text 208 166 Modify Parameters;
#X floatatom 122 239 5 0 0 0 - - -;
#X floatatom 213 239 5 0 0 0 - - -;
#X text 151 212 Output;
#X msg 207 97 reset 0.1 0 0;
#X obj 54 43 loadbang;
#X obj 168 316 line;
#X obj 172 351 outlet;
#X msg 185 287 \$1 33333;
#X connect 0 0 3 0;
#X connect 1 0 0 0;
#X connect 2 0 0 1;
#X connect 3 0 9 0;
#X connect 3 1 4 0;
#X connect 3 2 10 0;
#X connect 4 0 16 0;
#X connect 5 0 3 0;
#X connect 12 0 3 0;
#X connect 13 0 0 0;
#X connect 13 0 12 0;
#X connect 14 0 15 0;
#X connect 16 0 14 0;
#X restore 97 39 pd lorenzattractor;
#X obj 107 67 abs;
#X obj 102 144 nbx 5 14 -1e+37 1e+37 0 0 empty empty empty 0 -8 0 10
-262144 -1 -1 1.94291 256;
#X obj 150 277 line;
#X obj 168 389 outlet;
#X msg 131 246 \$1 3600;
#X obj 175 305 max 1;
#X obj 189 341 min 4;
#X obj 107 189 * 3;
#X obj 219 375 nbx 5 14 -1e+37 1e+37 0 0 empty empty empty 0 -8 0 10
-262144 -1 -1 4 256;
#X connect 0 0 1 0;
#X connect 1 0 2 0;
#X connect 2 0 8 0;
#X connect 3 0 6 0;
#X connect 5 0 3 0;
#X connect 6 0 7 0;
#X connect 7 0 4 0;
#X connect 7 0 9 0;
#X connect 8 0 5 0;
#X restore -1428 -15894 pd gnrtv_mod;
#X obj -1424 -15851 nbx 5 14 -1e+37 1e+37 0 0 empty empty empty 0 -8
0 10 -262144 -1 -1 6 256;
#X obj -1680 -15723 osc~;
#X obj -1478 -15774 osc~;
#X obj -1421 -15658 hsl 60 15 0 0.67 0 1 empty empty empty -2 -8 0
10 -262144 -1 -1 4887 1;
#N canvas 604 240 450 458 gnrtv_mod 0;
#N canvas 577 307 450 423 lorenzattractor 0;
#X obj 122 68 metro 50;
#X obj 122 44 tgl 15 0 empty empty empty 20 8 0 8 -262144 -1 -1 0 1
;
#X floatatom 173 43 5 0 0 0 - - -;
#X obj 122 131 lorenz;
#X floatatom 167 239 5 0 0 0 - - -;
#X msg 208 148 param 0.02 10 28 2.667;
#X text 98 20 Calculate;
#X text 206 115 Reset To Initial Conditions;
#X text 208 166 Modify Parameters;
#X floatatom 122 239 5 0 0 0 - - -;
#X floatatom 213 239 5 0 0 0 - - -;
#X text 151 212 Output;
#X msg 207 97 reset 0.1 0 0;
#X obj 54 43 loadbang;
#X obj 168 316 line;
#X obj 172 351 outlet;
#X msg 185 287 \$1 33333;
#X connect 0 0 3 0;
#X connect 1 0 0 0;
#X connect 2 0 0 1;
#X connect 3 0 9 0;
#X connect 3 1 4 0;
#X connect 3 2 10 0;
#X connect 4 0 16 0;
#X connect 5 0 3 0;
#X connect 12 0 3 0;
#X connect 13 0 0 0;
#X connect 13 0 12 0;
#X connect 14 0 15 0;
#X connect 16 0 14 0;
#X restore 97 39 pd lorenzattractor;
#X obj 107 67 abs;
#X obj 102 144 nbx 5 14 -1e+37 1e+37 0 0 empty empty empty 0 -8 0 10
-262144 -1 -1 3.53559 256;
#X obj 150 277 line;
#X obj 168 389 outlet;
#X obj 107 189 * 0.3;
#X msg 131 246 \$1 3600;
#X obj 175 305 max 0.1111;
#X obj 189 341 min 0.555;
#X connect 0 0 1 0;
#X connect 1 0 2 0;
#X connect 2 0 5 0;
#X connect 3 0 7 0;
#X connect 5 0 6 0;
#X connect 6 0 3 0;
#X connect 7 0 8 0;
#X connect 8 0 4 0;
#X restore -1419 -15681 pd gnrtv_mod;
#X obj -1415 -15638 nbx 5 14 -1e+37 1e+37 0 0 empty empty empty 0 -8
0 10 -262144 -1 -1 0.554964 256;
#X obj -1515 -15644 *~;
#X obj -1509 -15742 *~;
#X obj -1497 -15702 *~;
#X obj -1590 -15803 * 2;
#X obj -1606 -15769 nbx 5 14 -1e+37 1e+37 0 0 empty empty empty 0 -8
0 10 -262144 -1 -1 77.7817 256;
#X obj -1493 -15668 *~ 0.13333;
#X obj -1717 -15704 *~;
#X obj -1764 -15764 *~ 0.7;
#N canvas 0 53 1366 715 sidechain 0;
#X obj 923 -53 bng 15 250 50 0 empty empty empty 0 -6 0 8 -262144 -1
-1;
#X obj 210 530 *~;
#X obj 490 308 hsl 128 15 0 1 0 1 empty empty empty 10 7 1 10 -262144
-1 -1 7544 1;
#X obj 466 118 bng 23 250 50 0 empty empty empty 17 7 0 10 -1 -262144
-262144;
#X obj 525 273 line;
#X obj 568 143 pipe;
#X obj 555 184 nbx 5 14 -1e+37 1e+37 0 0 empty empty empty 0 -8 0 10
-262144 -1 -1 180 256;
#X obj 554 163 bng 15 250 50 0 empty empty empty 17 7 0 10 -262144
-1 -1;
#X obj 848 189 t b f;
#X obj 755 206 nbx 5 14 -1e+37 1e+37 0 0 empty empty empty 0 -8 0 10
-262144 -1 -1 180 256;
#X obj 885 154 hradio 15 1 0 8 empty empty empty 0 -8 0 10 -262144
-1 -1 0;
#X obj 816 265 *;
#X obj 882 75 counter 3;
#X obj 885 98 nbx 5 14 -1e+37 1e+37 0 0 empty empty empty 0 -8 0 10
-262144 -1 -1 0 256;
#X obj 760 48 bng 23 250 50 0 empty empty empty 17 7 0 10 -1 -262144
-262144;
#X obj 828 -7 bng 55 250 50 1 empty empty empty 17 7 0 10 -1 -262144
-1;
#X obj 894 177 + 1;
#X obj 669 -105 t b f;
#X obj 576 -88 nbx 5 14 -1e+37 1e+37 0 0 empty empty empty 0 -8 0 10
-262144 -1 -1 60 256;
#X obj 706 -140 hradio 15 1 0 8 empty empty empty 0 -8 0 10 -262144
-1 -1 2;
#X obj 637 -29 *;
#X obj 715 -117 + 1;
#X obj 652 18 nbx 5 14 -1e+37 1e+37 0 0 empty empty empty 0 -8 0 10
-262144 -1 -1 180 256;
#X obj 747 -56 counter 5;
#X msg 473 158 0.543307;
#X msg 549 242 1 \$1;
#X msg 395 156 set \$1;
#X obj 338 63 hsl 128 15 0 1 0 1 empty empty empty 10 7 1 10 -262144
-1 -1 6900 1;
#X obj 505 -90 / 4;
#X obj 433 -76 s time;
#X msg 426 -105 120;
#X obj 178 114 inlet~;
#X obj 98 624 outlet~;
#X obj 549 331 nbx 5 14 -1e+37 1e+37 0 0 empty empty empty 0 -8 0 10
-262144 -1 -1 0.594016 256;
#X obj 740 326 sel 1;
#X obj 783 329 bng 15 250 50 0 empty empty empty 17 7 0 10 -262144
-1 -1;
#X obj 339 36 inlet;
#X obj 468 350 outlet;
#X obj 332 394 line~;
#X obj 780 390 line;
#X msg 647 374 \$1 2;
#X obj 270 169 tgl 34 0 empty empty empty 17 7 0 10 -262144 -1 -1 1
1;
#X obj 20 221 spigot~;
#X msg 844 387 \$1 111;
#X obj 505 -124 r timeDNA;
#X obj 263 133 r sidechainonoffdna;
#X obj 851 -70 r minikikkdna;
#X obj 572 210 * 1;
#X msg 758 360 5;
#X msg 721 360 50;
#X obj 734 440 s hipzsidechain2;
#X msg 449 232 \$1 23;
#X obj 221 569 env~;
#X obj 212 592 nbx 5 14 -1e+37 1e+37 0 0 empty empty empty 0 -8 0 10
-262144 -1 -1 66.5702 256;
#X obj 116 334 env~;
#X obj 107 357 nbx 5 14 -1e+37 1e+37 0 0 empty empty empty 0 -8 0 10
-262144 -1 -1 0 256;
#X obj 563 423 bng 15 250 50 0 empty empty empty 0 -6 0 8 -262144 -1
-1;
#X obj 468 469 bng 55 250 50 1 empty empty empty 17 7 0 10 -1 -262144
-1;
#X obj 491 406 r minikikkdna;
#X obj 445 597 line;
#X obj 442 636 hsl 128 15 0 1 0 1 empty empty empty 10 7 1 10 -262144
-1 -1 7312 1;
#X obj 501 659 nbx 5 14 -1e+37 1e+37 0 0 empty empty empty 0 -8 0 10
-262144 -1 -1 0.575748 256;
#X obj 555 564 bng 15 250 50 0 empty empty empty 17 7 0 10 -262144
-1 -1;
#X obj 509 555 pipe 34;
#X msg 528 596 1 180;
#X obj 304 509 line~;
#X msg 455 550 0.3 33;
#X connect 0 0 15 0;
#X connect 1 0 32 0;
#X connect 1 0 52 0;
#X connect 2 0 33 0;
#X connect 2 0 34 0;
#X connect 2 0 37 0;
#X connect 3 0 24 0;
#X connect 3 0 5 0;
#X connect 3 0 49 0;
#X connect 4 0 2 0;
#X connect 5 0 7 0;
#X connect 6 0 47 0;
#X connect 7 0 6 0;
#X connect 8 0 9 0;
#X connect 8 1 11 1;
#X connect 9 0 11 0;
#X connect 10 0 16 0;
#X connect 11 0 5 1;
#X connect 11 0 6 0;
#X connect 12 0 13 0;
#X connect 13 0 10 0;
#X connect 14 0 12 0;
#X connect 15 0 14 0;
#X connect 15 0 3 0;
#X connect 15 0 23 0;
#X connect 16 0 8 0;
#X connect 17 0 18 0;
#X connect 17 1 20 1;
#X connect 18 0 20 0;
#X connect 19 0 21 0;
#X connect 20 0 22 0;
#X connect 21 0 17 0;
#X connect 22 0 9 0;
#X connect 22 0 5 1;
#X connect 23 0 19 0;
#X connect 24 0 51 0;
#X connect 24 0 4 0;
#X connect 25 0 4 0;
#X connect 25 0 38 0;
#X connect 26 0 24 0;
#X connect 27 0 26 0;
#X connect 28 0 18 0;
#X connect 30 0 29 0;
#X connect 31 0 42 0;
#X connect 34 0 35 0;
#X connect 35 0 48 0;
#X connect 36 0 27 0;
#X connect 39 0 50 0;
#X connect 40 0 39 0;
#X connect 41 0 42 1;
#X connect 42 0 54 0;
#X connect 42 1 1 0;
#X connect 43 0 39 0;
#X connect 44 0 28 0;
#X connect 45 0 41 0;
#X connect 46 0 0 0;
#X connect 47 0 25 0;
#X connect 48 0 43 0;
#X connect 49 0 40 0;
#X connect 51 0 4 0;
#X connect 51 0 38 0;
#X connect 52 0 53 0;
#X connect 54 0 55 0;
#X connect 56 0 57 0;
#X connect 57 0 66 0;
#X connect 57 0 63 0;
#X connect 58 0 56 0;
#X connect 59 0 60 0;
#X connect 60 0 61 0;
#X connect 62 0 64 0;
#X connect 63 0 62 0;
#X connect 64 0 59 0;
#X connect 64 0 65 0;
#X connect 65 0 1 1;
#X connect 66 0 59 0;
#X connect 66 0 65 0;
#X restore -1771 -15585 pd sidechain;
#X obj -1701 -15634 hsl 128 15 0 1 0 1 empty empty empty 10 7 1 10
-262144 -1 -1 7600 1;
#X obj -1699 -15560 hsl 128 15 0 1 0 1 empty empty empty 10 7 1 10
-262144 -1 -1 7544 1;
#X obj -1787 -15652 *~ 0.9;
#X obj -1220 -15731 osc~;
#X obj -1163 -15615 hsl 60 15 0 0.67 0 1 empty empty empty -2 -8 0
10 -262144 -1 -1 1933 1;
#N canvas 601 244 450 458 gnrtv_mod 0;
#N canvas 577 307 450 423 lorenzattractor 0;
#X obj 122 68 metro 50;
#X obj 122 44 tgl 15 0 empty empty empty 20 8 0 8 -262144 -1 -1 0 1
;
#X floatatom 173 43 5 0 0 0 - - -;
#X obj 122 131 lorenz;
#X floatatom 167 239 5 0 0 0 - - -;
#X msg 208 148 param 0.02 10 28 2.667;
#X text 98 20 Calculate;
#X text 206 115 Reset To Initial Conditions;
#X text 208 166 Modify Parameters;
#X floatatom 122 239 5 0 0 0 - - -;
#X floatatom 213 239 5 0 0 0 - - -;
#X text 151 212 Output;
#X msg 207 97 reset 0.1 0 0;
#X obj 54 43 loadbang;
#X obj 168 316 line;
#X obj 172 351 outlet;
#X msg 185 287 \$1 33333;
#X connect 0 0 3 0;
#X connect 1 0 0 0;
#X connect 2 0 0 1;
#X connect 3 0 9 0;
#X connect 3 1 4 0;
#X connect 3 2 10 0;
#X connect 4 0 16 0;
#X connect 5 0 3 0;
#X connect 12 0 3 0;
#X connect 13 0 0 0;
#X connect 13 0 12 0;
#X connect 14 0 15 0;
#X connect 16 0 14 0;
#X restore 97 39 pd lorenzattractor;
#X obj 107 67 abs;
#X obj 102 144 nbx 5 14 -1e+37 1e+37 0 0 empty empty empty 0 -8 0 10
-262144 -1 -1 1.24378 256;
#X obj 150 277 line;
#X obj 168 389 outlet;
#X obj 107 189 * 0.3;
#X msg 131 246 \$1 3600;
#X obj 175 305 max 0.1111;
#X obj 189 341 min 0.333;
#X connect 0 0 1 0;
#X connect 1 0 2 0;
#X connect 2 0 5 0;
#X connect 3 0 7 0;
#X connect 5 0 6 0;
#X connect 6 0 3 0;
#X connect 7 0 8 0;
#X connect 8 0 4 0;
#X restore -1161 -15638 pd gnrtv_mod;
#X obj -1157 -15595 nbx 5 14 -1e+37 1e+37 0 0 empty empty empty 0 -8
0 10 -262144 -1 -1 0.21951 256;
#X obj -1278 -15572 *~;
#X obj -1251 -15699 *~;
#X obj -1239 -15659 *~;
#X obj -1332 -15760 * 2;
#X obj -1484 -15602 osc~;
#X obj -1521 -15583 *~;
#X obj -1336 -15728 nbx 5 14 -1e+37 1e+37 0 0 empty empty empty 0 -8
0 10 -262144 -1 -1 155.563 256;
#X obj -1806 -15528 dac~;
#X obj -1235 -15625 *~ 0.08;
#X obj -968 -15693 osc~;
#X obj -911 -15577 hsl 60 15 0 0.67 0 1 empty empty empty -2 -8 0 10
-262144 -1 -1 1955 1;
#N canvas 601 244 450 458 gnrtv_mod 0;
#N canvas 577 307 450 423 lorenzattractor 0;
#X obj 122 68 metro 50;
#X obj 122 44 tgl 15 0 empty empty empty 20 8 0 8 -262144 -1 -1 0 1
;
#X floatatom 173 43 5 0 0 0 - - -;
#X obj 122 131 lorenz;
#X floatatom 167 239 5 0 0 0 - - -;
#X msg 208 148 param 0.02 10 28 2.667;
#X text 98 20 Calculate;
#X text 206 115 Reset To Initial Conditions;
#X text 208 166 Modify Parameters;
#X floatatom 122 239 5 0 0 0 - - -;
#X floatatom 213 239 5 0 0 0 - - -;
#X text 151 212 Output;
#X msg 207 97 reset 0.1 0 0;
#X obj 54 43 loadbang;
#X obj 168 316 line;
#X obj 172 351 outlet;
#X msg 185 287 \$1 33333;
#X connect 0 0 3 0;
#X connect 1 0 0 0;
#X connect 2 0 0 1;
#X connect 3 0 9 0;
#X connect 3 1 4 0;
#X connect 3 2 10 0;
#X connect 4 0 16 0;
#X connect 5 0 3 0;
#X connect 12 0 3 0;
#X connect 13 0 0 0;
#X connect 13 0 12 0;
#X connect 14 0 15 0;
#X connect 16 0 14 0;
#X restore 97 39 pd lorenzattractor;
#X obj 107 67 abs;
#X obj 102 144 nbx 5 14 -1e+37 1e+37 0 0 empty empty empty 0 -8 0 10
-262144 -1 -1 1.58557 256;
#X obj 150 277 line;
#X obj 168 389 outlet;
#X obj 107 189 * 0.3;
#X msg 131 246 \$1 3600;
#X obj 175 305 max 0.1111;
#X obj 189 341 min 0.222;
#X connect 0 0 1 0;
#X connect 1 0 2 0;
#X connect 2 0 5 0;
#X connect 3 0 7 0;
#X connect 5 0 6 0;
#X connect 6 0 3 0;
#X connect 7 0 8 0;
#X connect 8 0 4 0;
#X restore -909 -15600 pd gnrtv_mod;
#X obj -905 -15557 nbx 5 14 -1e+37 1e+37 0 0 empty empty empty 0 -8
0 10 -262144 -1 -1 0.222008 256;
#X obj -1026 -15534 *~;
#X obj -999 -15661 *~;
#X obj -987 -15621 *~;
#X obj -1119 -15681 nbx 5 14 -1e+37 1e+37 0 0 empty empty empty 0 -8
0 10 -262144 -1 -1 194.454 256;
#X obj -1172 -15535 osc~;
#X obj -1209 -15516 *~;
#X obj -1230 -15873 hradio 15 1 0 8 empty empty empty 0 -8 0 10 -262144
-1 -1 5;
#X obj -1154 -15723 * 5;
#X obj -983 -15587 *~ 0.05;
#X obj -1991 -15510 s~ MNMLDDD;
#X obj -2074 -15510 s~ MNMLEEE;
#X obj -1378 -16443 *~;
#X floatatom -1426 -16510 5 0 0 0 - - -;
#X floatatom -1337 -16558 5 0 0 0 - - -;
#X obj -1397 -16546 bng 15 250 50 0 empty empty empty 0 -6 0 8 -262144
-1 -1;
#X obj -1350 -16367 *~;
#X obj -1265 -16425 hsl 128 15 0 0.8 0 1 empty empty empty -2 -8 0
10 -262144 -1 -1 12700 1;
#X msg -1452 -16551 0.25;
#X msg -1294 -16557 111;
#X obj -1491 -16509 * 36;
#X obj -1426 -16478 phasor~ 60;
#X obj -1347 -16407 *~ 0.7;
#X obj -1481 -16469 noise~;
#X obj -1362 -16511 ead~ 0 2;
#X obj -2103 -16353 *~ 0.8;
#X obj -1630 -16405 *~ 0.5;
#X connect 1 0 3 0;
#X connect 1 0 7 1;
#X connect 4 0 5 0;
#X connect 7 0 21 0;
#X connect 7 0 35 0;
#X connect 8 0 7 0;
#X connect 9 0 7 0;
#X connect 18 0 14 0;
#X connect 18 1 15 0;
#X connect 18 2 16 0;
#X connect 18 3 17 0;
#X connect 19 0 18 0;
#X connect 20 0 22 0;
#X connect 21 0 63 0;
#X connect 21 0 111 0;
#X connect 22 0 24 0;
#X connect 22 0 27 0;
#X connect 22 0 41 0;
#X connect 22 0 67 0;
#X connect 22 0 84 0;
#X connect 23 0 80 0;
#X connect 23 1 25 1;
#X connect 24 0 23 0;
#X connect 24 0 90 0;
#X connect 24 0 100 0;
#X connect 24 0 119 0;
#X connect 25 0 37 0;
#X connect 26 0 48 0;
#X connect 26 1 28 1;
#X connect 27 0 26 0;
#X connect 27 0 57 0;
#X connect 27 0 71 0;
#X connect 28 0 62 0;
#X connect 29 0 239 0;
#X connect 30 0 38 0;
#X connect 31 0 206 0;
#X connect 31 0 215 0;
#X connect 32 0 38 1;
#X connect 33 0 38 2;
#X connect 33 0 151 0;
#X connect 33 0 213 2;
#X connect 33 0 300 0;
#X connect 34 0 38 0;
#X connect 34 0 69 0;
#X connect 36 0 34 0;
#X connect 37 0 60 0;
#X connect 37 0 249 0;
#X connect 38 0 29 1;
#X connect 39 0 77 0;
#X connect 39 0 145 0;
#X connect 40 0 39 1;
#X connect 40 0 230 0;
#X connect 42 0 21 4;
#X connect 43 0 21 4;
#X connect 44 0 21 4;
#X connect 45 0 21 4;
#X connect 46 0 21 4;
#X connect 47 0 21 4;
#X connect 48 0 28 0;
#X connect 49 0 51 0;
#X connect 49 1 52 0;
#X connect 49 2 53 0;
#X connect 49 3 54 0;
#X connect 49 4 55 0;
#X connect 49 5 56 0;
#X connect 50 0 58 0;
#X connect 51 0 50 0;
#X connect 52 0 50 0;
#X connect 53 0 50 0;
#X connect 54 0 50 0;
#X connect 55 0 50 0;
#X connect 56 0 50 0;
#X connect 57 0 49 0;
#X connect 58 0 40 0;
#X connect 59 0 31 0;
#X connect 60 0 59 0;
#X connect 61 0 33 0;
#X connect 62 0 61 0;
#X connect 63 0 104 0;
#X connect 64 0 201 0;
#X connect 65 0 66 0;
#X connect 66 0 178 0;
#X connect 66 1 179 0;
#X connect 66 2 180 0;
#X connect 66 3 181 0;
#X connect 66 4 182 0;
#X connect 67 0 65 0;
#X connect 68 0 67 1;
#X connect 69 0 206 1;
#X connect 70 0 76 0;
#X connect 70 1 72 1;
#X connect 71 0 70 0;
#X connect 71 0 159 0;
#X connect 71 0 267 0;
#X connect 71 0 273 0;
#X connect 72 0 75 0;
#X connect 73 0 32 0;
#X connect 74 0 73 0;
#X connect 75 0 74 0;
#X connect 76 0 72 0;
#X connect 77 0 78 0;
#X connect 78 0 145 0;
#X connect 78 0 313 0;
#X connect 79 0 78 1;
#X connect 80 0 25 0;
#X connect 82 0 21 4;
#X connect 83 0 88 0;
#X connect 83 1 85 1;
#X connect 84 0 83 0;
#X connect 85 0 86 0;
#X connect 86 0 87 0;
#X connect 87 0 80 0;
#X connect 88 0 85 0;
#X connect 90 0 89 0;
#X connect 91 0 202 0;
#X connect 92 0 200 0;
#X connect 93 0 98 0;
#X connect 93 0 222 0;
#X connect 94 0 200 1;
#X connect 95 0 200 2;
#X connect 96 0 200 0;
#X connect 96 0 221 0;
#X connect 97 0 103 1;
#X connect 98 0 91 0;
#X connect 99 0 205 0;
#X connect 99 1 101 1;
#X connect 100 0 99 0;
#X connect 101 0 102 0;
#X connect 102 0 93 0;
#X connect 103 0 77 0;
#X connect 104 0 20 0;
#X connect 105 0 104 1;
#X connect 106 0 110 0;
#X connect 106 1 108 1;
#X connect 107 0 106 0;
#X connect 107 0 246 0;
#X connect 108 0 109 0;
#X connect 109 0 115 0;
#X connect 110 0 108 0;
#X connect 111 0 112 0;
#X connect 113 0 117 0;
#X connect 114 0 107 0;
#X connect 115 0 105 0;
#X connect 116 0 115 1;
#X connect 117 0 114 0;
#X connect 118 0 199 0;
#X connect 118 1 120 1;
#X connect 119 0 118 0;
#X connect 120 0 123 0;
#X connect 121 0 95 0;
#X connect 122 0 121 0;
#X connect 123 0 122 0;
#X connect 124 0 442 0;
#X connect 125 0 150 0;
#X connect 125 0 311 0;
#X connect 126 0 327 1;
#X connect 127 0 131 0;
#X connect 127 0 149 0;
#X connect 127 0 305 0;
#X connect 127 0 327 0;
#X connect 128 0 132 0;
#X connect 129 0 322 0;
#X connect 130 0 129 1;
#X connect 131 0 150 1;
#X connect 132 0 135 0;
#X connect 133 0 134 0;
#X connect 134 0 136 0;
#X connect 137 0 64 0;
#X connect 138 0 160 0;
#X connect 138 0 160 1;
#X connect 138 1 140 0;
#X connect 139 0 138 1;
#X connect 140 0 143 0;
#X connect 140 0 291 0;
#X connect 142 0 139 0;
#X connect 146 0 138 0;
#X connect 148 0 147 0;
#X connect 150 0 124 0;
#X connect 151 0 235 0;
#X connect 152 0 125 0;
#X connect 153 0 152 0;
#X connect 154 0 158 0;
#X connect 155 0 157 0;
#X connect 156 0 152 1;
#X connect 157 0 156 0;
#X connect 157 1 156 0;
#X connect 157 2 156 0;
#X connect 157 3 241 0;
#X connect 157 4 156 0;
#X connect 157 5 156 0;
#X connect 158 0 155 0;
#X connect 159 0 245 0;
#X connect 160 0 333 0;
#X connect 160 1 334 0;
#X connect 161 0 160 8;
#X connect 162 0 160 6;
#X connect 163 0 160 5;
#X connect 164 0 160 4;
#X connect 165 0 160 3;
#X connect 166 0 160 2;
#X connect 167 0 160 7;
#X connect 168 0 201 0;
#X connect 169 0 427 0;
#X connect 169 0 428 0;
#X connect 170 0 175 0;
#X connect 171 0 175 0;
#X connect 172 0 175 0;
#X connect 173 0 174 0;
#X connect 174 0 170 0;
#X connect 174 1 171 0;
#X connect 174 2 172 0;
#X connect 174 3 176 0;
#X connect 174 4 177 0;
#X connect 176 0 175 0;
#X connect 177 0 175 0;
#X connect 178 0 81 0;
#X connect 179 0 81 0;
#X connect 180 0 81 0;
#X connect 181 0 81 0;
#X connect 182 0 81 0;
#X connect 183 0 158 4;
#X connect 184 0 194 0;
#X connect 185 0 184 0;
#X connect 186 0 105 0;
#X connect 187 0 186 0;
#X connect 187 0 204 0;
#X connect 188 0 187 0;
#X connect 189 0 184 0;
#X connect 191 0 184 1;
#X connect 192 0 96 0;
#X connect 193 0 195 0;
#X connect 193 0 196 0;
#X connect 193 0 197 0;
#X connect 194 0 188 0;
#X connect 194 0 190 0;
#X connect 196 0 192 0;
#X connect 197 0 192 0;
#X connect 198 0 194 4;
#X connect 199 0 120 0;
#X connect 200 0 91 1;
#X connect 201 0 1 0;
#X connect 202 0 237 0;
#X connect 203 0 202 1;
#X connect 203 0 227 0;
#X connect 203 0 242 0;
#X connect 204 0 203 0;
#X connect 205 0 101 0;
#X connect 206 0 29 0;
#X connect 207 0 240 0;
#X connect 208 0 213 0;
#X connect 209 0 214 0;
#X connect 210 0 213 1;
#X connect 211 0 213 0;
#X connect 212 0 211 0;
#X connect 213 0 207 1;
#X connect 214 0 207 0;
#X connect 215 0 209 0;
#X connect 216 0 225 0;
#X connect 217 0 224 0;
#X connect 218 0 253 0;
#X connect 219 0 224 1;
#X connect 220 0 224 2;
#X connect 221 0 224 0;
#X connect 221 0 275 0;
#X connect 222 0 218 0;
#X connect 223 0 221 0;
#X connect 224 0 216 1;
#X connect 225 0 238 0;
#X connect 226 0 225 1;
#X connect 227 0 228 0;
#X connect 228 0 226 0;
#X connect 229 0 77 0;
#X connect 230 0 229 1;
#X connect 231 0 232 0;
#X connect 232 0 252 0;
#X connect 234 0 127 0;
#X connect 236 0 327 2;
#X connect 237 0 103 0;
#X connect 237 0 145 0;
#X connect 237 0 313 0;
#X connect 238 0 145 0;
#X connect 238 0 229 0;
#X connect 238 0 313 0;
#X connect 239 0 39 0;
#X connect 240 0 39 0;
#X connect 241 0 152 1;
#X connect 242 0 243 0;
#X connect 243 0 244 0;
#X connect 244 0 245 1;
#X connect 245 0 127 0;
#X connect 247 0 159 1;
#X connect 247 0 248 0;
#X connect 249 0 48 0;
#X connect 252 0 233 0;
#X connect 252 1 233 0;
#X connect 253 0 216 0;
#X connect 254 0 257 0;
#X connect 255 0 258 0;
#X connect 255 0 261 0;
#X connect 256 0 255 0;
#X connect 257 0 256 0;
#X connect 258 0 319 0;
#X connect 259 0 65 0;
#X connect 260 0 259 0;
#X connect 261 0 320 0;
#X connect 262 0 372 0;
#X connect 263 0 379 0;
#X connect 264 0 262 1;
#X connect 264 0 263 1;
#X connect 265 0 263 2;
#X connect 265 0 262 2;
#X connect 265 0 269 0;
#X connect 267 0 266 0;
#X connect 268 0 264 0;
#X connect 271 0 427 0;
#X connect 271 0 428 0;
#X connect 273 0 272 0;
#X connect 275 0 276 0;
#X connect 276 0 293 0;
#X connect 277 0 276 1;
#X connect 278 0 279 0;
#X connect 278 0 276 2;
#X connect 280 0 281 0;
#X connect 280 0 276 3;
#X connect 282 0 283 0;
#X connect 282 0 276 4;
#X connect 284 0 285 0;
#X connect 284 0 276 5;
#X connect 286 0 277 0;
#X connect 286 0 275 0;
#X connect 288 0 278 0;
#X connect 289 0 278 0;
#X connect 290 0 145 0;
#X connect 290 0 313 0;
#X connect 291 0 292 0;
#X connect 292 0 166 0;
#X connect 293 0 290 0;
#X connect 294 0 293 1;
#X connect 295 0 296 0;
#X connect 296 0 297 0;
#X connect 297 0 298 0;
#X connect 297 1 299 0;
#X connect 298 0 294 0;
#X connect 299 0 294 0;
#X connect 300 0 301 0;
#X connect 301 0 268 0;
#X connect 302 0 443 0;
#X connect 303 0 309 0;
#X connect 304 0 312 1;
#X connect 305 0 308 0;
#X connect 305 0 312 0;
#X connect 305 0 432 0;
#X connect 306 0 129 0;
#X connect 307 0 306 1;
#X connect 308 0 309 1;
#X connect 309 0 302 0;
#X connect 310 0 312 2;
#X connect 311 0 303 0;
#X connect 311 0 437 0;
#X connect 312 0 302 1;
#X connect 313 0 270 0;
#X connect 314 0 316 0;
#X connect 314 0 337 0;
#X connect 315 0 314 0;
#X connect 316 0 317 0;
#X connect 316 1 318 0;
#X connect 317 0 323 0;
#X connect 318 0 323 0;
#X connect 319 0 260 0;
#X connect 320 0 321 0;
#X connect 321 0 315 0;
#X connect 322 0 144 0;
#X connect 323 0 325 0;
#X connect 323 0 371 0;
#X connect 324 0 322 1;
#X connect 325 0 324 0;
#X connect 326 0 148 0;
#X connect 327 0 124 1;
#X connect 328 0 311 1;
#X connect 329 0 331 0;
#X connect 330 0 332 0;
#X connect 331 0 330 0;
#X connect 332 0 328 0;
#X connect 335 0 262 0;
#X connect 336 0 263 0;
#X connect 337 0 340 0;
#X connect 337 0 356 0;
#X connect 337 0 424 0;
#X connect 338 0 357 0;
#X connect 339 0 352 0;
#X connect 340 0 341 0;
#X connect 340 0 383 0;
#X connect 341 0 342 0;
#X connect 341 4 344 0;
#X connect 341 4 367 0;
#X connect 341 5 345 0;
#X connect 341 5 368 0;
#X connect 342 0 353 0;
#X connect 343 0 425 0;
#X connect 344 0 353 0;
#X connect 345 0 353 0;
#X connect 347 0 349 0;
#X connect 347 0 350 1;
#X connect 348 0 347 0;
#X connect 350 0 396 0;
#X connect 351 0 338 0;
#X connect 351 0 343 0;
#X connect 351 0 392 0;
#X connect 352 0 351 0;
#X connect 353 0 339 0;
#X connect 353 0 346 0;
#X connect 354 0 353 1;
#X connect 354 0 363 0;
#X connect 355 0 353 1;
#X connect 355 0 362 0;
#X connect 356 0 360 0;
#X connect 357 0 364 0;
#X connect 358 0 357 1;
#X connect 358 0 390 1;
#X connect 358 0 406 1;
#X connect 358 0 419 1;
#X connect 359 0 358 0;
#X connect 360 0 361 0;
#X connect 361 0 354 0;
#X connect 361 1 355 0;
#X connect 362 0 359 0;
#X connect 363 0 359 0;
#X connect 364 0 350 0;
#X connect 365 0 364 1;
#X connect 365 0 369 0;
#X connect 366 0 365 0;
#X connect 367 0 366 0;
#X connect 368 0 366 0;
#X connect 369 0 391 1;
#X connect 369 0 407 1;
#X connect 369 0 420 1;
#X connect 370 0 265 0;
#X connect 370 0 378 0;
#X connect 371 0 380 0;
#X connect 372 0 428 0;
#X connect 373 0 381 0;
#X connect 374 0 372 1;
#X connect 374 0 379 1;
#X connect 375 0 376 0;
#X connect 375 1 377 0;
#X connect 376 0 381 0;
#X connect 377 0 381 0;
#X connect 378 0 375 0;
#X connect 379 0 427 0;
#X connect 380 0 370 0;
#X connect 381 0 374 0;
#X connect 383 0 384 0;
#X connect 383 0 409 0;
#X connect 383 0 422 0;
#X connect 384 0 395 1;
#X connect 385 0 390 0;
#X connect 386 0 388 0;
#X connect 386 0 389 1;
#X connect 387 0 386 0;
#X connect 389 0 395 0;
#X connect 390 0 391 0;
#X connect 391 0 394 0;
#X connect 392 0 385 0;
#X connect 392 0 393 0;
#X connect 393 0 408 0;
#X connect 394 0 389 0;
#X connect 395 0 400 0;
#X connect 396 0 400 0;
#X connect 397 0 427 0;
#X connect 397 0 428 0;
#X connect 397 1 399 0;
#X connect 398 0 397 1;
#X connect 400 0 397 0;
#X connect 401 0 406 0;
#X connect 402 0 404 0;
#X connect 402 0 405 1;
#X connect 403 0 402 0;
#X connect 405 0 410 0;
#X connect 406 0 407 0;
#X connect 407 0 413 0;
#X connect 408 0 401 0;
#X connect 408 0 411 0;
#X connect 409 0 410 1;
#X connect 410 0 400 0;
#X connect 413 0 405 0;
#X connect 414 0 419 0;
#X connect 415 0 417 0;
#X connect 415 0 418 1;
#X connect 416 0 415 0;
#X connect 418 0 423 0;
#X connect 419 0 420 0;
#X connect 420 0 426 0;
#X connect 422 0 423 1;
#X connect 423 0 400 0;
#X connect 425 0 414 0;
#X connect 425 0 421 0;
#X connect 426 0 418 0;
#X connect 429 0 439 0;
#X connect 430 0 438 0;
#X connect 431 0 441 1;
#X connect 432 0 435 0;
#X connect 432 0 441 0;
#X connect 433 0 129 0;
#X connect 434 0 433 1;
#X connect 435 0 438 1;
#X connect 436 0 441 2;
#X connect 437 0 430 0;
#X connect 439 0 433 0;
#X connect 440 0 429 0;
#X connect 441 0 429 1;
#X connect 442 0 129 0;
#X connect 443 0 306 0;
#X restore -1768 -15943 pd MNMLTech-_-;
#X obj -1586 -15967 pddp/dsp;
#X msg -1583 -15915 \; pd dsp 1;
#X obj -1582 -15937 loadbang;
#X connect 1 0 0 0;
#X connect 2 0 0 1;
#X connect 6 0 5 0;
