#N canvas 75 177 971 447 10;
#X declare -lib purepd;
#N canvas 385 189 899 553 OuterSpace 0;
#X obj 26 19 cnv 15 850 60 empty empty OuterSpace 20 12 0 35 -208318
-66577 0;
#X obj 27 344 cnv 15 200 260 empty empty SoundGenEngine 20 12 0 14
-233017 -66577 0;
#X obj 97 385 noise~;
#X obj 97 438 sound_gen;
#X obj 111 525 dac~;
#X obj 182 424 env~;
#X obj 35 426 env~;
#X obj 97 464 sound_out;
#N canvas 485 226 467 542 readme 0;
#X text 34 12 OUTERSPACE - An ambient sound generator by Alberto Zin
- 2006;
#X text 34 457 No warranty at all. The patch is provided "as-is" \,
without any express or implied warranty. In no event shall the author
be held liable for any damages arising for use of this patch.;
#X text 35 65 OuterSpace is an instrument for PureData capable of generating
audio effects like wind \, water \, "space" sounds.;
#X text 34 356 The OuterSpace instrument is loosely based on the SpaceDrone
instrument from Reaktor 5 library but since it is PD it is better (and
free) :-). Joking.;
#X text 179 427 WARRANTY;
#X text 34 110 The instrument is based on white noise filtered by a
bank of 128 (!) band-pass filters spread across the audible spectrum.
Each filter contributes to the overall sound as a "voice". Each voice
has a "quartic" attack and decay amplitude envelope triggered independently
for a "natural" effect of attack and decay. Each voice is then placed
in the stereo field and rotated from left to right following a low
frequency oscillator (LFO) \, plus some spread. High frequencies cam
be attenuated using a power law (1/x)^d \, where x is the frequency
and d is the "damp" control. The output is reverberated using freeverb~.
Few reverb parameters are implemented in the main control GUI. Keep
an eye to the CPU load. On old machines 128 voices may hang up the
audio. In this case try to reduce the polyphony to lower numbers. Doing
so you'll loose the high frequency part of the spectrum but using frequency
spacing parameter can compensate for this.;
#X restore 796 55 pd readme;
#X obj 245 344 cnv 15 300 260 empty empty Reverb_(freeverb~) 20 12
0 14 -233017 -66577 0;
#X obj 256 432 vsl 15 128 0 3000 0 0 OS_revgain0 OS_revgain0 empty
0 -8 0 8 -195568 -1 -1 4233 1;
#X obj 312 432 vsl 15 128 0 100 0 0 OS_WetDry0 OS_WetDry0 empty 0 -8
0 8 -195568 -1 -1 7620 1;
#X obj 26 99 cnv 15 565 225 empty empty VoiceControl 20 12 0 14 -233017
-66577 0;
#X obj 42 149 vsl 15 128 100 13000 0 0 OS_f00 OS_f00 empty 0 -8 0 8
-195568 -1 -1 2855 1;
#X floatatom 40 288 5 0 0 0 - OS_f0 -;
#X obj 230 150 vsl 15 128 0 100 0 0 OS_LFO_f0 OS_LFO_f0 empty 0 -8
0 8 -195568 -1 -1 1270 1;
#X floatatom 230 288 5 0 0 0 - OS_LFO_f -;
#X obj 129 151 vsl 15 128 50 5000 0 0 OS_f_offset0 OS_f_offset0 empty
0 -8 0 8 -195568 -1 -1 2437 1;
#X floatatom 124 289 5 0 0 0 - OS_f_offset -;
#X obj 342 153 vsl 15 128 30 30000 0 0 OS_attack_t OS_attack_t empty
0 -8 0 8 -195568 -1 -1 11429 1;
#X floatatom 342 289 7 0 0 0 - OS_attack_t -;
#X obj 402 152 vsl 15 128 30 30000 0 0 OS_decay_t OS_decay_t empty
0 -8 0 8 -195568 -1 -1 11429 1;
#X floatatom 402 289 7 0 0 0 - OS_decay_t -;
#X obj 463 151 vsl 15 128 50 200 0 0 OS_damp0 OS_damp0 empty 0 -8 0
8 -195568 -1 -1 4233 1;
#X floatatom 463 289 5 0 0 0 - OS_damp -;
#X obj 525 152 vsl 15 128 500 2000 0 0 OS_retrigg OS_retrigg empty
0 -8 0 8 -195568 -1 -1 2752 1;
#X floatatom 525 289 5 0 0 0 - OS_retrigg -;
#X obj 525 104 tgl 15 0 OS_retr_onoff OS_retr_onoff empty 0 -6 0 8
-195568 -1 -1 1 1;
#X obj 86 150 vsl 15 128 5 130 0 0 OS_Q OS_Q empty 0 -8 0 8 -195568
-1 -1 7620 1;
#X floatatom 81 289 5 0 0 0 - OS_Q -;
#X obj 608 99 cnv 15 270 225 empty empty MainControl 20 12 0 14 -233017
-66577 0;
#X obj 631 162 vsl 15 128 0 10000 0 0 OS_Amp0 OS_Amp0 empty 0 -8 0
8 -260818 -1 -1 381 1;
#X obj 682 128 tgl 20 0 OS_trigger OS_trigger empty 0 -6 0 8 -260818
-1 -1 1 1;
#X text 713 126 ON/OFF;
#X text 628 140 Volume;
#X text 680 155 Polyphony (Voices);
#X obj 286 151 vsl 15 128 0 100 0 0 OS_LFOspread OS_LFOspread empty
0 -8 0 8 -195568 -1 -1 6350 1;
#X floatatom 288 289 5 0 0 0 - OS_LFOspread -;
#X text 548 104 ON/OFF;
#X text 736 25 Alberto Zin - 2006;
#X text 41 126 f0;
#X text 79 126 Res;
#X text 219 126 PAN LFO;
#X text 272 126 LFO spr;
#X text 330 126 Attack;
#X text 385 126 Decay;
#X text 434 126 Hi-fr Damp;
#X text 516 125 Retrigg;
#X obj 370 432 vsl 15 128 0 100 0 0 OS_RevSize0 OS_RevSize0 empty 0
-8 0 8 -195568 -1 -1 11430 1;
#X obj 429 434 vsl 15 128 0 100 0 0 OS_RevDamp0 OS_RevDamp0 empty 0
-8 0 8 -195568 -1 -1 6350 1;
#X text 423 405 Damp;
#X obj 497 433 vsl 15 128 0 100 0 0 OS_RevWidth0 OS_RevWidth0 empty
0 -8 0 8 -195568 -1 -1 7620 1;
#X text 466 404 StereoWidth;
#X text 249 407 Gain;
#X text 293 406 Wet/Dry;
#X text 350 406 Room Size;
#X obj 682 256 hradio 15 1 0 8 OS_preset OS_preset empty 0 -6 0 8 -260818
-1 -1 0;
#X text 681 236 Preset;
#X obj 685 176 hsl 128 15 1 128 0 0 OS_polyphony OS_polyphony empty
-2 -6 0 8 -260818 -1 -1 9500 1;
#X obj 685 217 hsl 128 15 0 100 0 0 OS_v_dens OS_v_dens empty -2 -6
0 8 -260818 -1 -1 127 1;
#X text 681 196 Voice density;
#X text 109 126 Fr spac;
#X obj 179 150 vsl 15 128 0 12 0 0 OS_freq_detune OS_freq_detune empty
0 -8 0 8 -195568 -1 -1 0 1;
#X floatatom 179 288 5 0 0 0 - OS_freq_detune -;
#X text 158 126 Fr detune;
#X obj 620 378 preset;
#X obj 620 430 save_load_par;
#X obj 620 404 random_preset;
#X obj 620 353 norm_val;
#X obj 682 298 bng 15 250 50 0 OS_ParSave OS_ParSave empty 0 -6 0 8
-260818 -1 -1;
#X text 679 275 Save;
#X obj 722 298 bng 15 250 50 0 OS_ParLoad OS_ParLoad empty 0 -6 0 8
-260818 -1 -1;
#X text 719 275 Load;
#X obj 760 298 bng 15 250 50 0 OS_random OS_random empty 0 -6 0 8 -260818
-1 -1;
#X text 757 275 Randomize;
#X floatatom 255 580 5 0 0 0 - OS_reverbgain -;
#X floatatom 630 305 5 0 0 0 - OS_Amp -;
#X text 343 309 ms;
#X text 404 309 ms;
#X text 40 309 Hz;
#X text 234 309 Hz;
#X text 171 310 halftones;
#X text 288 309 %;
#X text 527 308 ms;
#X floatatom 825 175 5 0 0 0 - OS_polyphony -;
#X text 46 59 Ambient sound generator - freeverb~/NO GUI version;
#X symbolatom 788 298 15 0 0 1 - OS_pres_name -;
#X obj 35 449 - 97;
#X obj 182 449 - 97;
#X obj 36 478 vu 15 120 empty empty -1 -8 0 8 -66577 -1 1 0;
#X obj 183 478 vu 15 120 empty empty -1 -8 0 8 -66577 -1 1 0;
#X obj 727 459 failsafe;
#X obj 727 431 loadbang;
#X msg 727 525 \; pd quit;
#N canvas 0 85 630 352 OSrecorder 0;
#X msg 59 215 start;
#X msg 59 256 stop;
#X obj 114 266 writesf~ 2;
#X obj 110 72 inlet~;
#X obj 185 71 inlet~;
#X text 15 255 3) ->;
#X text 15 214 2) ->;
#X text 265 240 <- 1) open the file on which to record;
#X text 265 224 <- 0) edit it first to set the desired filename;
#X msg 123 234 open OuterChimes.wav;
#X connect 0 0 2 0;
#X connect 1 0 2 0;
#X connect 3 0 2 0;
#X connect 4 0 2 1;
#X connect 9 0 2 0;
#X restore 88 575 pd OSrecorder;
#X connect 2 0 3 0;
#X connect 5 0 88 0;
#X connect 6 0 87 0;
#X connect 7 0 4 0;
#X connect 7 0 6 0;
#X connect 7 0 94 0;
#X connect 7 1 4 1;
#X connect 7 1 5 0;
#X connect 7 1 94 1;
#X connect 87 0 89 0;
#X connect 88 0 90 0;
#X connect 91 0 93 0;
#X connect 92 0 91 0;
#X restore 203 145 pd OuterSpace;
#X obj 236 182 bng 15 250 50 0 OS_random OS_random empty 0 -6 0 8 -260818
-1 -1;
#X obj 353 245 hsl 128 15 0 127 0 0 OS_Amp0 empty empty -2 -8 0 10
-262144 -1 -1 0 1;
